<svg width="1024" height="1024" viewBox="0 0 1024 1024" fill="none" xmlns="http://www.w3.org/2000/svg">
<path d="M395.074 211.211C374.288 159.091 421.595 112 477.708 112L810.4 112C866.512 112 913.82 159.091 893.033 211.211C853.602 310.079 756.987 379.946 644.054 379.946C531.12 379.946 434.505 310.079 395.074 211.211Z"/>
<path d="M912 477.708C912 421.595 864.909 374.288 812.789 395.074C713.921 434.505 644.054 531.12 644.054 644.054C644.054 756.987 713.921 853.602 812.789 893.033C864.909 913.82 912 866.512 912 810.4L912 477.708Z"/>
<path d="M130.967 812.789C110.18 864.909 157.488 912 213.6 912H546.292C602.405 912 649.712 864.909 628.926 812.789C589.495 713.921 492.88 644.054 379.946 644.054C267.013 644.054 170.398 713.921 130.967 812.789Z"/>
<path d="M112 546.292C112 602.405 159.09 649.712 211.211 628.926C310.079 589.495 379.946 492.88 379.946 379.946C379.946 267.013 310.079 170.398 211.211 130.967C159.091 110.18 112 157.488 112 213.6L112 546.292Z"/>
<style>
  path { fill: #000; }
  @media (prefers-color-scheme: dark) {
      path { fill: #FFF; }
  }
</style>
</svg>
