<svg width="568" height="42" viewBox="0 0 568 42" fill="none" xmlns="http://www.w3.org/2000/svg">
<rect width="42" height="42" rx="21" fill="#FF00BF" fill-opacity="0.1"/>
<path d="M21 14C22.5 12.5 23.74 12 25.5 12C26.9587 12 28.3576 12.5795 29.3891 13.6109C30.4205 14.6424 31 16.0413 31 17.5C31 19.79 29.49 21.54 28 23L21 30L14 23C12.5 21.55 11 19.8 11 17.5C11 16.0413 11.5795 14.6424 12.6109 13.6109C13.6424 12.5795 15.0413 12 16.5 12C18.26 12 19.5 12.5 21 14ZM21 14L18.04 16.96C17.8368 17.1617 17.6756 17.4016 17.5655 17.6659C17.4555 17.9302 17.3988 18.2137 17.3988 18.5C17.3988 18.7863 17.4555 19.0698 17.5655 19.3341C17.6756 19.5984 17.8368 19.8383 18.04 20.04C18.86 20.86 20.17 20.89 21.04 20.11L23.11 18.21C23.6289 17.7392 24.3044 17.4784 25.005 17.4784C25.7056 17.4784 26.3811 17.7392 26.9 18.21L29.86 20.87M27 24L25 22M24 27L22 25" stroke="#FF00BF" stroke-width="2" stroke-linecap="round" stroke-linejoin="round"/>
<path d="M64.1484 29H60.5234L66.0469 13H70.4063L75.9219 29H72.2969L68.2891 16.6562H68.1641L64.1484 29ZM63.9219 22.7109H72.4844V25.3516H63.9219V22.7109ZM82.6484 29.2344C81.4193 29.2344 80.362 28.974 79.4766 28.4531C78.5964 27.9271 77.9193 27.1979 77.4453 26.2656C76.9766 25.3333 76.7422 24.2604 76.7422 23.0469C76.7422 21.8177 76.9792 20.7396 77.4531 19.8125C77.9323 18.8802 78.612 18.1536 79.4922 17.6328C80.3724 17.1068 81.4193 16.8438 82.6328 16.8438C83.6797 16.8438 84.5964 17.0339 85.3828 17.4141C86.1693 17.7943 86.7917 18.3281 87.25 19.0156C87.7083 19.7031 87.9609 20.5104 88.0078 21.4375H84.8672C84.7786 20.8385 84.5443 20.3568 84.1641 19.9922C83.7891 19.6224 83.2969 19.4375 82.6875 19.4375C82.1719 19.4375 81.7214 19.5781 81.3359 19.8594C80.9557 20.1354 80.6589 20.5391 80.4453 21.0703C80.2318 21.6016 80.125 22.2448 80.125 23C80.125 23.7656 80.2292 24.4167 80.4375 24.9531C80.651 25.4896 80.9505 25.8984 81.3359 26.1797C81.7214 26.4609 82.1719 26.6016 82.6875 26.6016C83.0677 26.6016 83.4089 26.5234 83.7109 26.3672C84.0182 26.2109 84.2708 25.9844 84.4687 25.6875C84.6719 25.3854 84.8047 25.0234 84.8672 24.6016H88.0078C87.9557 25.5182 87.7057 26.3255 87.2578 27.0234C86.8151 27.7161 86.2031 28.2578 85.4219 28.6484C84.6406 29.0391 83.7161 29.2344 82.6484 29.2344ZM93.1543 25.5469L93.1621 21.5547H93.6465L97.4902 17H101.311L96.1465 23.0313H95.3574L93.1543 25.5469ZM90.1387 29V13H93.4668V29H90.1387ZM97.6387 29L94.1074 23.7734L96.3262 21.4219L101.537 29H97.6387ZM106.271 22.0625V29H102.943V17H106.115V19.1172H106.256C106.521 18.4193 106.967 17.8672 107.592 17.4609C108.217 17.0495 108.975 16.8438 109.865 16.8438C110.699 16.8438 111.425 17.026 112.045 17.3906C112.665 17.7552 113.146 18.276 113.49 18.9531C113.834 19.625 114.006 20.4271 114.006 21.3594V29H110.678V21.9531C110.683 21.2187 110.495 20.6458 110.115 20.2344C109.735 19.8177 109.212 19.6094 108.545 19.6094C108.097 19.6094 107.701 19.7057 107.357 19.8984C107.019 20.0911 106.753 20.3724 106.561 20.7422C106.373 21.1068 106.277 21.5469 106.271 22.0625ZM122.051 29.2344C120.837 29.2344 119.788 28.9766 118.902 28.4609C118.022 27.9401 117.342 27.2161 116.863 26.2891C116.384 25.3568 116.145 24.276 116.145 23.0469C116.145 21.8073 116.384 20.724 116.863 19.7969C117.342 18.8646 118.022 18.1406 118.902 17.625C119.788 17.1042 120.837 16.8438 122.051 16.8438C123.264 16.8438 124.311 17.1042 125.191 17.625C126.077 18.1406 126.759 18.8646 127.238 19.7969C127.717 20.724 127.957 21.8073 127.957 23.0469C127.957 24.276 127.717 25.3568 127.238 26.2891C126.759 27.2161 126.077 27.9401 125.191 28.4609C124.311 28.9766 123.264 29.2344 122.051 29.2344ZM122.066 26.6562C122.618 26.6562 123.079 26.5 123.449 26.1875C123.819 25.8698 124.098 25.4375 124.285 24.8906C124.478 24.3437 124.574 23.7214 124.574 23.0234C124.574 22.3255 124.478 21.7031 124.285 21.1562C124.098 20.6094 123.819 20.1771 123.449 19.8594C123.079 19.5417 122.618 19.3828 122.066 19.3828C121.509 19.3828 121.04 19.5417 120.66 19.8594C120.285 20.1771 120.001 20.6094 119.809 21.1562C119.621 21.7031 119.527 22.3255 119.527 23.0234C119.527 23.7214 119.621 24.3437 119.809 24.8906C120.001 25.4375 120.285 25.8698 120.66 26.1875C121.04 26.5 121.509 26.6562 122.066 26.6562ZM132.188 29L128.922 17H132.289L134.148 25.0625H134.258L136.195 17H139.5L141.469 25.0156H141.57L143.398 17H146.758L143.5 29H139.977L137.914 21.4531H137.766L135.703 29H132.188ZM151.861 13V29H148.533V13H151.861ZM159.996 29.2344C158.762 29.2344 157.699 28.9844 156.809 28.4844C155.923 27.9792 155.241 27.2656 154.762 26.3437C154.283 25.4167 154.043 24.3203 154.043 23.0547C154.043 21.8203 154.283 20.737 154.762 19.8047C155.241 18.8724 155.915 18.1458 156.785 17.625C157.66 17.1042 158.686 16.8438 159.863 16.8438C160.655 16.8438 161.392 16.9714 162.074 17.2266C162.762 17.4766 163.361 17.8542 163.871 18.3594C164.387 18.8646 164.788 19.5 165.074 20.2656C165.361 21.026 165.504 21.9167 165.504 22.9375V23.8516H155.371V21.7891H162.371C162.371 21.3099 162.267 20.8854 162.059 20.5156C161.85 20.1458 161.561 19.8568 161.191 19.6484C160.827 19.4349 160.402 19.3281 159.918 19.3281C159.413 19.3281 158.965 19.4453 158.574 19.6797C158.189 19.9089 157.887 20.2187 157.668 20.6094C157.449 20.9948 157.337 21.4245 157.332 21.8984V23.8594C157.332 24.4531 157.441 24.9661 157.66 25.3984C157.884 25.8307 158.199 26.1641 158.605 26.3984C159.012 26.6328 159.493 26.75 160.051 26.75C160.421 26.75 160.759 26.6979 161.066 26.5938C161.374 26.4896 161.637 26.3333 161.855 26.125C162.074 25.9167 162.241 25.6615 162.355 25.3594L165.434 25.5625C165.277 26.3021 164.957 26.9479 164.473 27.5C163.993 28.0469 163.374 28.474 162.613 28.7813C161.858 29.0833 160.986 29.2344 159.996 29.2344ZM172.098 29.1953C171.186 29.1953 170.361 28.9609 169.621 28.4922C168.887 28.0182 168.303 27.3229 167.871 26.4062C167.444 25.4844 167.23 24.3542 167.23 23.0156C167.23 21.6406 167.452 20.4974 167.895 19.5859C168.337 18.6693 168.926 17.9844 169.66 17.5313C170.4 17.0729 171.21 16.8438 172.09 16.8438C172.762 16.8438 173.322 16.9583 173.77 17.1875C174.223 17.4115 174.587 17.6927 174.863 18.0312C175.145 18.3646 175.358 18.6927 175.504 19.0156H175.605V13H178.926V29H175.645V27.0781H175.504C175.348 27.4115 175.126 27.7422 174.84 28.0703C174.559 28.3932 174.191 28.6615 173.738 28.875C173.29 29.0885 172.743 29.1953 172.098 29.1953ZM173.152 26.5469C173.689 26.5469 174.142 26.401 174.512 26.1094C174.887 25.8125 175.173 25.3984 175.371 24.8672C175.574 24.3359 175.676 23.7135 175.676 23C175.676 22.2865 175.577 21.6667 175.379 21.1406C175.181 20.6146 174.895 20.2083 174.52 19.9219C174.145 19.6354 173.689 19.4922 173.152 19.4922C172.605 19.4922 172.145 19.6406 171.77 19.9375C171.395 20.2344 171.111 20.6458 170.918 21.1719C170.725 21.6979 170.629 22.3073 170.629 23C170.629 23.6979 170.725 24.3151 170.918 24.8516C171.116 25.3828 171.4 25.7995 171.77 26.1016C172.145 26.3984 172.605 26.5469 173.152 26.5469ZM187.068 33.75C185.99 33.75 185.066 33.6016 184.295 33.3047C183.529 33.013 182.92 32.6146 182.467 32.1094C182.014 31.6042 181.719 31.0365 181.584 30.4062L184.662 29.9922C184.756 30.2318 184.904 30.4557 185.107 30.6641C185.311 30.8724 185.579 31.0391 185.912 31.1641C186.251 31.2943 186.662 31.3594 187.146 31.3594C187.87 31.3594 188.467 31.1823 188.936 30.8281C189.41 30.4792 189.646 29.8932 189.646 29.0703V26.875H189.506C189.36 27.2083 189.141 27.5234 188.85 27.8203C188.558 28.1172 188.183 28.3594 187.725 28.5469C187.266 28.7344 186.719 28.8281 186.084 28.8281C185.183 28.8281 184.363 28.6198 183.623 28.2031C182.889 27.7812 182.303 27.138 181.865 26.2734C181.433 25.4036 181.217 24.3047 181.217 22.9766C181.217 21.6172 181.438 20.4818 181.881 19.5703C182.324 18.6589 182.912 17.9766 183.646 17.5234C184.386 17.0703 185.196 16.8438 186.076 16.8438C186.748 16.8438 187.311 16.9583 187.764 17.1875C188.217 17.4115 188.581 17.6927 188.857 18.0312C189.139 18.3646 189.355 18.6927 189.506 19.0156H189.631V17H192.936V29.1172C192.936 30.138 192.686 30.9922 192.186 31.6797C191.686 32.3672 190.993 32.8828 190.107 33.2266C189.227 33.5755 188.214 33.75 187.068 33.75ZM187.139 26.3281C187.675 26.3281 188.128 26.1953 188.498 25.9297C188.873 25.6589 189.16 25.2734 189.357 24.7734C189.561 24.2682 189.662 23.6641 189.662 22.9609C189.662 22.2578 189.563 21.6484 189.365 21.1328C189.167 20.612 188.881 20.2083 188.506 19.9219C188.131 19.6354 187.675 19.4922 187.139 19.4922C186.592 19.4922 186.131 19.6406 185.756 19.9375C185.381 20.2292 185.097 20.6354 184.904 21.1562C184.712 21.6771 184.615 22.2786 184.615 22.9609C184.615 23.6536 184.712 24.2526 184.904 24.7578C185.102 25.2578 185.386 25.6458 185.756 25.9219C186.131 26.1927 186.592 26.3281 187.139 26.3281ZM195.584 29V17H198.756V19.1172H198.896C199.146 18.4141 199.563 17.8594 200.146 17.4531C200.73 17.0469 201.428 16.8438 202.24 16.8438C203.063 16.8438 203.764 17.0495 204.342 17.4609C204.92 17.8672 205.305 18.4193 205.498 19.1172H205.623C205.868 18.4297 206.311 17.8802 206.951 17.4687C207.597 17.0521 208.36 16.8438 209.24 16.8438C210.36 16.8438 211.269 17.2005 211.967 17.9141C212.67 18.6224 213.021 19.6276 213.021 20.9297V29H209.701V21.5859C209.701 20.9193 209.524 20.4193 209.17 20.0859C208.816 19.7526 208.373 19.5859 207.842 19.5859C207.238 19.5859 206.766 19.7786 206.428 20.1641C206.089 20.5443 205.92 21.0469 205.92 21.6719V29H202.693V21.5156C202.693 20.9271 202.524 20.4583 202.186 20.1094C201.852 19.7604 201.412 19.5859 200.865 19.5859C200.495 19.5859 200.162 19.6797 199.865 19.8672C199.574 20.0495 199.342 20.3073 199.17 20.6406C198.998 20.9687 198.912 21.3542 198.912 21.7969V29H195.584ZM221.119 29.2344C219.885 29.2344 218.822 28.9844 217.932 28.4844C217.046 27.9792 216.364 27.2656 215.885 26.3437C215.406 25.4167 215.166 24.3203 215.166 23.0547C215.166 21.8203 215.406 20.737 215.885 19.8047C216.364 18.8724 217.038 18.1458 217.908 17.625C218.783 17.1042 219.809 16.8438 220.986 16.8438C221.778 16.8438 222.515 16.9714 223.197 17.2266C223.885 17.4766 224.484 17.8542 224.994 18.3594C225.51 18.8646 225.911 19.5 226.197 20.2656C226.484 21.026 226.627 21.9167 226.627 22.9375V23.8516H216.494V21.7891H223.494C223.494 21.3099 223.39 20.8854 223.182 20.5156C222.973 20.1458 222.684 19.8568 222.314 19.6484C221.95 19.4349 221.525 19.3281 221.041 19.3281C220.536 19.3281 220.088 19.4453 219.697 19.6797C219.312 19.9089 219.01 20.2187 218.791 20.6094C218.572 20.9948 218.46 21.4245 218.455 21.8984V23.8594C218.455 24.4531 218.564 24.9661 218.783 25.3984C219.007 25.8307 219.322 26.1641 219.729 26.3984C220.135 26.6328 220.617 26.75 221.174 26.75C221.544 26.75 221.882 26.6979 222.189 26.5938C222.497 26.4896 222.76 26.3333 222.979 26.125C223.197 25.9167 223.364 25.6615 223.479 25.3594L226.557 25.5625C226.4 26.3021 226.08 26.9479 225.596 27.5C225.117 28.0469 224.497 28.474 223.736 28.7813C222.981 29.0833 222.109 29.2344 221.119 29.2344ZM232.127 22.0625V29H228.799V17H231.971V19.1172H232.111C232.377 18.4193 232.822 17.8672 233.447 17.4609C234.072 17.0495 234.83 16.8438 235.721 16.8438C236.554 16.8438 237.281 17.026 237.9 17.3906C238.52 17.7552 239.002 18.276 239.346 18.9531C239.689 19.625 239.861 20.4271 239.861 21.3594V29H236.533V21.9531C236.538 21.2187 236.351 20.6458 235.971 20.2344C235.59 19.8177 235.067 19.6094 234.4 19.6094C233.952 19.6094 233.557 19.7057 233.213 19.8984C232.874 20.0911 232.609 20.3724 232.416 20.7422C232.229 21.1068 232.132 21.5469 232.127 22.0625ZM248.867 17V19.5H241.641V17H248.867ZM243.281 14.125H246.609V25.3125C246.609 25.6198 246.656 25.8594 246.75 26.0312C246.844 26.1979 246.974 26.3151 247.141 26.3828C247.313 26.4505 247.51 26.4844 247.734 26.4844C247.891 26.4844 248.047 26.4714 248.203 26.4453C248.359 26.4141 248.479 26.3906 248.563 26.375L249.086 28.8516C248.919 28.9036 248.685 28.9635 248.383 29.0313C248.081 29.1042 247.714 29.1484 247.281 29.1641C246.479 29.1953 245.776 29.0885 245.172 28.8437C244.573 28.599 244.107 28.2187 243.773 27.7031C243.44 27.1875 243.276 26.5365 243.281 25.75V14.125ZM260.869 20.4219L257.822 20.6094C257.77 20.349 257.658 20.1146 257.486 19.9062C257.314 19.6927 257.088 19.5234 256.807 19.3984C256.531 19.2682 256.2 19.2031 255.814 19.2031C255.299 19.2031 254.864 19.3125 254.51 19.5312C254.156 19.7448 253.979 20.0312 253.979 20.3906C253.979 20.6771 254.093 20.9193 254.322 21.1172C254.551 21.3151 254.945 21.474 255.502 21.5937L257.674 22.0312C258.84 22.2708 259.71 22.6562 260.283 23.1875C260.856 23.7187 261.143 24.4167 261.143 25.2812C261.143 26.0677 260.911 26.7578 260.447 27.3516C259.989 27.9453 259.359 28.4089 258.557 28.7422C257.76 29.0703 256.84 29.2344 255.799 29.2344C254.21 29.2344 252.945 28.9036 252.002 28.2422C251.064 27.5755 250.515 26.6693 250.354 25.5234L253.627 25.3516C253.726 25.8359 253.965 26.2057 254.346 26.4609C254.726 26.7109 255.213 26.8359 255.807 26.8359C256.39 26.8359 256.859 26.724 257.213 26.5C257.572 26.2708 257.755 25.9766 257.76 25.6172C257.755 25.3151 257.627 25.0677 257.377 24.875C257.127 24.6771 256.742 24.526 256.221 24.4219L254.143 24.0078C252.971 23.7734 252.098 23.3672 251.525 22.7891C250.958 22.2109 250.674 21.474 250.674 20.5781C250.674 19.8073 250.882 19.1432 251.299 18.5859C251.721 18.0286 252.312 17.599 253.072 17.2969C253.838 16.9948 254.734 16.8438 255.76 16.8438C257.275 16.8438 258.468 17.1641 259.338 17.8047C260.213 18.4453 260.723 19.3177 260.869 20.4219Z" fill="white"/>
</svg>
