<svg xmlns="http://www.w3.org/2000/svg" width="1024" height="1024" fill="none" viewBox="0 0 1024 1024"><rect width="1024" height="1024" fill="#000" rx="150"/><path fill="#fff" d="M669.406 606.914C653.702 606.914 640.926 594.128 640.926 578.423C640.926 562.718 653.702 549.943 669.406 549.943C685.114 549.943 697.889 562.716 697.889 578.423C697.889 594.131 685.114 606.914 669.406 606.914ZM354.594 606.914C338.889 606.914 326.114 594.128 326.114 578.423C326.114 562.718 338.886 549.943 354.594 549.943C370.299 549.943 383.074 562.716 383.074 578.423C383.074 594.131 370.301 606.914 354.594 606.914ZM679.622 435.346L736.545 336.758C738.112 334.037 738.536 330.806 737.723 327.773C736.911 324.74 734.928 322.154 732.211 320.581C729.49 319.015 726.259 318.591 723.226 319.404C720.194 320.217 717.607 322.199 716.034 324.916L658.399 424.75C614.321 404.637 564.821 393.431 512 393.431C459.179 393.431 409.679 404.637 365.604 424.75L307.966 324.916C306.393 322.199 303.806 320.217 300.774 319.404C297.741 318.591 294.51 319.015 291.789 320.581C289.07 322.152 287.087 324.739 286.274 327.772C285.461 330.805 285.886 334.037 287.455 336.758L344.378 435.346C246.632 488.508 179.78 587.463 170 704.373H854C844.212 587.466 777.36 488.508 679.622 435.343"/></svg>