<svg xmlns="http://www.w3.org/2000/svg" width="1024" height="1024" fill="none" viewBox="0 0 1024 1024"><rect width="1024" height="1024" fill="#000" rx="150"/><path fill="#fff" d="M741.947 415.924C738.444 418.642 676.603 453.497 676.603 530.998C676.603 620.64 755.294 652.353 757.649 653.139C757.286 655.072 745.148 696.571 716.16 738.855C690.312 776.065 663.317 813.215 622.251 813.215C581.184 813.215 570.616 789.354 523.208 789.354C477.009 789.354 460.582 814 423.018 814C385.455 814 359.245 779.569 329.109 737.284C294.203 687.631 266 610.492 266 537.28C266 419.851 342.335 357.572 417.462 357.572C457.381 357.572 490.657 383.788 515.72 383.788C539.574 383.788 576.776 356.001 622.19 356.001C639.402 356.001 701.243 357.572 741.947 415.924ZM600.63 306.287C619.412 283.997 632.698 253.07 632.698 222.142C632.698 217.853 632.336 213.504 631.551 210C600.993 211.148 564.637 230.357 542.715 255.788C525.503 275.359 509.439 306.287 509.439 337.638C509.439 342.35 510.224 347.061 510.586 348.571C512.519 348.934 515.659 349.357 518.8 349.357C546.217 349.357 580.701 330.993 600.63 306.287Z"/></svg>