<svg xmlns="http://www.w3.org/2000/svg" width="830" height="135" fill="none" viewBox="0 0 830 135"><rect width="830" height="135" fill="#000" rx="14"/><path fill="#fff" d="M305.125 47.1582C303.337 43.1523 307.045 39.4438 311.432 39.4438L333.43 39.4438C337.817 39.4438 341.525 43.1523 339.737 47.1582C336.783 53.7749 330.145 58.3864 322.431 58.3864C314.717 58.3864 308.079 53.7749 305.125 47.1582Z"/><path fill="#fff" d="M341.374 66.0583C341.374 61.6713 337.665 57.9634 333.659 59.7518C327.043 62.7058 322.431 69.3431 322.431 77.0575C322.431 84.7719 327.043 91.4092 333.659 94.3632C337.665 96.1516 341.374 92.4437 341.374 88.0568V66.0583Z"/><path fill="#fff" d="M286.454 88.2857C284.666 92.2916 288.374 96.0001 292.761 96.0001H314.759C319.146 96.0001 322.854 92.2916 321.066 88.2857C318.112 81.669 311.474 77.0575 303.76 77.0575C296.046 77.0575 289.408 81.669 286.454 88.2857Z"/><path fill="#fff" d="M284.817 69.3857C284.817 73.7726 288.526 77.4805 292.532 75.6921C299.148 72.7381 303.76 66.1008 303.76 58.3864C303.76 50.672 299.148 44.0347 292.532 41.0807C288.526 39.2923 284.817 43.0002 284.817 47.3871V69.3857Z"/><path fill="#fff" d="M377.147 61.1508C377.032 59.9858 376.536 59.0807 375.66 58.4356C374.783 57.7905 373.594 57.468 372.092 57.468C371.072 57.468 370.21 57.6124 369.507 57.9013C368.804 58.1805 368.265 58.5704 367.89 59.0711C367.524 59.5718 367.341 60.1398 367.341 60.7753C367.322 61.3048 367.432 61.767 367.673 62.1617C367.923 62.5565 368.265 62.8983 368.698 63.1872C369.132 63.4664 369.632 63.7119 370.2 63.9237C370.768 64.1259 371.375 64.2992 372.02 64.4436L374.678 65.0791C375.968 65.3679 377.152 65.7531 378.23 66.2345C379.309 66.7159 380.243 67.308 381.032 68.0109C381.822 68.7138 382.433 69.5418 382.866 70.495C383.309 71.4482 383.536 72.541 383.545 73.7734C383.536 75.5835 383.073 77.1529 382.159 78.4816C381.254 79.8007 379.944 80.8261 378.23 81.5578C376.526 82.2799 374.471 82.641 372.063 82.641C369.676 82.641 367.596 82.2751 365.824 81.5434C364.062 80.8116 362.686 79.7285 361.694 78.2938C360.712 76.8496 360.197 75.0636 360.149 72.9357H366.2C366.267 73.9274 366.551 74.7555 367.052 75.4198C367.562 76.0745 368.241 76.5704 369.088 76.9074C369.945 77.2347 370.913 77.3984 371.991 77.3984C373.05 77.3984 373.97 77.2444 374.75 76.9363C375.539 76.6282 376.151 76.1997 376.584 75.6509C377.017 75.1021 377.234 74.4714 377.234 73.759C377.234 73.0946 377.036 72.5362 376.642 72.0836C376.257 71.6311 375.689 71.246 374.938 70.9283C374.196 70.6105 373.286 70.3217 372.208 70.0617L368.987 69.2529C366.494 68.6464 364.525 67.698 363.08 66.4078C361.636 65.1176 360.919 63.3797 360.928 61.1941C360.919 59.4033 361.395 57.8387 362.358 56.5003C363.331 55.162 364.664 54.1174 366.359 53.3664C368.053 52.6154 369.979 52.2399 372.136 52.2399C374.331 52.2399 376.247 52.6154 377.884 53.3664C379.53 54.1174 380.811 55.162 381.725 56.5003C382.64 57.8387 383.112 59.3888 383.141 61.1508H377.147ZM399.435 60.0387V64.6603H386.076V60.0387H399.435ZM389.109 54.7239H395.262V75.4054C395.262 75.9734 395.348 76.4163 395.521 76.7341C395.695 77.0422 395.935 77.2588 396.244 77.384C396.561 77.5091 396.927 77.5717 397.341 77.5717C397.63 77.5717 397.919 77.5477 398.208 77.4995C398.497 77.4418 398.718 77.3984 398.872 77.3695L399.84 81.9478C399.532 82.044 399.098 82.1548 398.54 82.2799C397.981 82.4147 397.303 82.4966 396.504 82.5255C395.021 82.5832 393.721 82.3858 392.604 81.9333C391.497 81.4808 390.635 80.7779 390.019 79.8247C389.403 78.8715 389.099 77.668 389.109 76.2142V54.7239ZM409.769 82.641C408.353 82.641 407.092 82.3955 405.985 81.9044C404.878 81.4038 404.002 80.6672 403.356 79.6948C402.721 78.7127 402.403 77.4899 402.403 76.0264C402.403 74.794 402.63 73.759 403.082 72.9213C403.535 72.0836 404.151 71.4097 404.931 70.8994C405.711 70.3891 406.596 70.0039 407.588 69.744C408.589 69.484 409.639 69.3011 410.736 69.1952C412.027 69.0604 413.067 68.9352 413.856 68.8197C414.646 68.6945 415.218 68.5116 415.575 68.2709C415.931 68.0302 416.109 67.6739 416.109 67.2021V67.1155C416.109 66.2008 415.82 65.4931 415.242 64.9924C414.674 64.4918 413.866 64.2414 412.816 64.2414C411.709 64.2414 410.828 64.487 410.173 64.978C409.519 65.4594 409.085 66.066 408.873 66.7977L403.183 66.3356C403.472 64.9876 404.04 63.8226 404.887 62.8405C405.735 61.8488 406.827 61.0882 408.166 60.5586C409.514 60.0195 411.073 59.7499 412.845 59.7499C414.077 59.7499 415.257 59.8943 416.383 60.1831C417.52 60.472 418.526 60.9197 419.402 61.5263C420.288 62.1329 420.986 62.9127 421.496 63.8659C422.006 64.8095 422.261 65.9408 422.261 67.2599V82.2222H416.427V79.1459H416.253C415.897 79.8392 415.421 80.4506 414.824 80.9801C414.227 81.5001 413.509 81.9093 412.672 82.2077C411.834 82.4966 410.866 82.641 409.769 82.641ZM411.531 78.3949C412.436 78.3949 413.235 78.2168 413.928 77.8606C414.621 77.4947 415.165 77.0037 415.56 76.3875C415.955 75.7713 416.152 75.0732 416.152 74.2933V71.9392C415.96 72.0644 415.695 72.1799 415.358 72.2858C415.031 72.3821 414.66 72.4736 414.246 72.5602C413.832 72.6373 413.418 72.7095 413.004 72.7769C412.59 72.8346 412.214 72.8876 411.877 72.9357C411.155 73.0416 410.525 73.2101 409.985 73.4412C409.446 73.6723 409.027 73.9852 408.729 74.38C408.431 74.7651 408.281 75.2465 408.281 75.8242C408.281 76.6619 408.585 77.3021 409.191 77.745C409.807 78.1783 410.587 78.3949 411.531 78.3949ZM430.039 90.541C429.259 90.541 428.527 90.4784 427.843 90.3532C427.169 90.2377 426.611 90.0884 426.168 89.9055L427.555 85.3128C428.277 85.5343 428.927 85.6546 429.504 85.6739C430.092 85.6931 430.597 85.5584 431.021 85.2695C431.454 84.9807 431.805 84.4896 432.075 83.7964L432.436 82.8576L424.478 60.0387H430.949L435.541 76.3297H435.772L440.408 60.0387H446.922L438.3 84.6196C437.886 85.8135 437.322 86.8533 436.61 87.7391C435.907 88.6346 435.016 89.323 433.938 89.8044C432.86 90.2954 431.56 90.541 430.039 90.541ZM450.186 82.2222V52.6442H461.855C464.089 52.6442 465.995 53.0438 467.574 53.843C469.163 54.6325 470.371 55.7542 471.199 57.208C472.037 58.6523 472.456 60.3516 472.456 62.3062C472.456 64.2703 472.032 65.9601 471.185 67.3754C470.338 68.7812 469.11 69.8595 467.502 70.6105C465.904 71.3615 463.969 71.737 461.696 71.737H453.883V66.7111H460.685C461.879 66.7111 462.871 66.5474 463.66 66.22C464.45 65.8927 465.037 65.4016 465.422 64.7469C465.817 64.0922 466.015 63.2786 466.015 62.3062C466.015 61.3241 465.817 60.4961 465.422 59.8221C465.037 59.1481 464.445 58.6378 463.646 58.2912C462.857 57.935 461.86 57.7568 460.656 57.7568H456.439V82.2222H450.186ZM466.159 68.7619L473.51 82.2222H466.607L459.414 68.7619H466.159ZM486.512 82.6554C484.23 82.6554 482.266 82.1933 480.619 81.269C478.983 80.335 477.721 79.016 476.835 77.3118C475.95 75.5979 475.507 73.5712 475.507 71.2315C475.507 68.9497 475.95 66.947 476.835 65.2235C477.721 63.5001 478.968 62.1569 480.576 61.1941C482.194 60.2313 484.09 59.7499 486.266 59.7499C487.73 59.7499 489.092 59.9858 490.354 60.4576C491.624 60.9197 492.732 61.6178 493.675 62.5517C494.628 63.4856 495.37 64.6603 495.899 66.0756C496.429 67.4813 496.694 69.1278 496.694 71.0149V72.7047H477.962V68.8919H490.902C490.902 68.0061 490.71 67.2214 490.325 66.5378C489.94 65.8542 489.405 65.3198 488.722 64.9347C488.048 64.5399 487.263 64.3425 486.367 64.3425C485.434 64.3425 484.605 64.5592 483.883 64.9924C483.171 65.4161 482.612 65.989 482.208 66.7111C481.804 67.4236 481.597 68.2179 481.587 69.0941V72.7191C481.587 73.8167 481.789 74.7651 482.194 75.5642C482.608 76.3634 483.19 76.9796 483.941 77.4129C484.692 77.8461 485.583 78.0628 486.613 78.0628C487.297 78.0628 487.922 77.9665 488.49 77.7739C489.059 77.5814 489.545 77.2925 489.949 76.9074C490.354 76.5223 490.662 76.0505 490.873 75.492L496.564 75.8675C496.275 77.2347 495.683 78.4286 494.787 79.4492C493.902 80.4602 492.756 81.2497 491.35 81.8178C489.954 82.3762 488.341 82.6554 486.512 82.6554ZM507.034 82.641C505.619 82.641 504.358 82.3955 503.251 81.9044C502.143 81.4038 501.267 80.6672 500.622 79.6948C499.987 78.7127 499.669 77.4899 499.669 76.0264C499.669 74.794 499.895 73.759 500.348 72.9213C500.8 72.0836 501.416 71.4097 502.196 70.8994C502.976 70.3891 503.862 70.0039 504.854 69.744C505.855 69.484 506.904 69.3011 508.002 69.1952C509.292 69.0604 510.332 68.9352 511.122 68.8197C511.911 68.6945 512.484 68.5116 512.84 68.2709C513.197 68.0302 513.375 67.6739 513.375 67.2021V67.1155C513.375 66.2008 513.086 65.4931 512.508 64.9924C511.94 64.4918 511.131 64.2414 510.082 64.2414C508.975 64.2414 508.094 64.487 507.439 64.978C506.784 65.4594 506.351 66.066 506.139 66.7977L500.449 66.3356C500.738 64.9876 501.306 63.8226 502.153 62.8405C503 61.8488 504.093 61.0882 505.431 60.5586C506.779 60.0195 508.339 59.7499 510.111 59.7499C511.343 59.7499 512.523 59.8943 513.649 60.1831C514.785 60.472 515.791 60.9197 516.667 61.5263C517.553 62.1329 518.251 62.9127 518.762 63.8659C519.272 64.8095 519.527 65.9408 519.527 67.2599V82.2222H513.692V79.1459H513.519C513.163 79.8392 512.686 80.4506 512.089 80.9801C511.492 81.5001 510.775 81.9093 509.937 82.2077C509.1 82.4966 508.132 82.641 507.034 82.641ZM508.796 78.3949C509.701 78.3949 510.501 78.2168 511.194 77.8606C511.887 77.4947 512.431 77.0037 512.826 76.3875C513.221 75.7713 513.418 75.0732 513.418 74.2933V71.9392C513.225 72.0644 512.961 72.1799 512.624 72.2858C512.296 72.3821 511.926 72.4736 511.512 72.5602C511.098 72.6373 510.684 72.7095 510.27 72.7769C509.856 72.8346 509.48 72.8876 509.143 72.9357C508.421 73.0416 507.79 73.2101 507.251 73.4412C506.712 73.6723 506.293 73.9852 505.995 74.38C505.696 74.7651 505.547 75.2465 505.547 75.8242C505.547 76.6619 505.85 77.3021 506.457 77.745C507.073 78.1783 507.853 78.3949 508.796 78.3949ZM530.453 52.6442V82.2222H524.3V52.6442H530.453ZM538.977 82.5977C538.024 82.5977 537.206 82.2607 536.522 81.5867C535.848 80.9031 535.511 80.0847 535.511 79.1315C535.511 78.1879 535.848 77.3792 536.522 76.7052C537.206 76.0312 538.024 75.6942 538.977 75.6942C539.902 75.6942 540.71 76.0312 541.404 76.7052C542.097 77.3792 542.443 78.1879 542.443 79.1315C542.443 79.767 542.28 80.3495 541.952 80.879C541.635 81.399 541.216 81.8178 540.696 82.1355C540.176 82.4436 539.603 82.5977 538.977 82.5977Z"/></svg>