<svg width="588" height="42" viewBox="0 0 588 42" fill="none" xmlns="http://www.w3.org/2000/svg">
<path d="M3.01705 26H0.380682L4.39773 14.3636H7.56818L11.5795 26H8.94318L6.02841 17.0227H5.9375L3.01705 26ZM2.85227 21.4261H9.07955V23.3466H2.85227V21.4261ZM15.3551 20.9545V26H12.9347V17.2727H15.2415V18.8125H15.3438C15.5369 18.3049 15.8608 17.9034 16.3153 17.608C16.7699 17.3087 17.321 17.1591 17.9688 17.1591C18.5748 17.1591 19.1032 17.2917 19.554 17.5568C20.0047 17.822 20.3551 18.2008 20.6051 18.6932C20.8551 19.1818 20.9801 19.7652 20.9801 20.4432V26H18.5597V20.875C18.5634 20.3409 18.4271 19.9242 18.1506 19.625C17.8741 19.322 17.4934 19.1705 17.0085 19.1705C16.6828 19.1705 16.3949 19.2405 16.1449 19.3807C15.8987 19.5208 15.7055 19.7254 15.5653 19.9943C15.429 20.2595 15.3589 20.5795 15.3551 20.9545ZM30.5341 26.1705C29.6515 26.1705 28.8883 25.983 28.2443 25.608C27.6042 25.2292 27.1098 24.7027 26.7614 24.0284C26.4129 23.3504 26.2386 22.5644 26.2386 21.6705C26.2386 20.7689 26.4129 19.9811 26.7614 19.3068C27.1098 18.6288 27.6042 18.1023 28.2443 17.7273C28.8883 17.3485 29.6515 17.1591 30.5341 17.1591C31.4167 17.1591 32.178 17.3485 32.8182 17.7273C33.4621 18.1023 33.9583 18.6288 34.3068 19.3068C34.6553 19.9811 34.8295 20.7689 34.8295 21.6705C34.8295 22.5644 34.6553 23.3504 34.3068 24.0284C33.9583 24.7027 33.4621 25.2292 32.8182 25.608C32.178 25.983 31.4167 26.1705 30.5341 26.1705ZM30.5455 24.2955C30.947 24.2955 31.2822 24.1818 31.5511 23.9545C31.8201 23.7235 32.0227 23.4091 32.1591 23.0114C32.2992 22.6136 32.3693 22.161 32.3693 21.6534C32.3693 21.1458 32.2992 20.6932 32.1591 20.2955C32.0227 19.8977 31.8201 19.5833 31.5511 19.3523C31.2822 19.1212 30.947 19.0057 30.5455 19.0057C30.1402 19.0057 29.7992 19.1212 29.5227 19.3523C29.25 19.5833 29.0436 19.8977 28.9034 20.2955C28.767 20.6932 28.6989 21.1458 28.6989 21.6534C28.6989 22.161 28.767 22.6136 28.9034 23.0114C29.0436 23.4091 29.25 23.7235 29.5227 23.9545C29.7992 24.1818 30.1402 24.2955 30.5455 24.2955ZM36.4034 29.2727V17.2727H38.7898V18.7386H38.8977C39.0038 18.5038 39.1572 18.2652 39.358 18.0227C39.5625 17.7765 39.8277 17.572 40.1534 17.4091C40.483 17.2424 40.892 17.1591 41.3807 17.1591C42.017 17.1591 42.6042 17.3258 43.142 17.6591C43.6799 17.9886 44.1098 18.4867 44.4318 19.1534C44.7538 19.8163 44.9148 20.6477 44.9148 21.6477C44.9148 22.6212 44.7576 23.4432 44.4432 24.1136C44.1326 24.7803 43.7083 25.286 43.1705 25.6307C42.6364 25.9716 42.0379 26.142 41.375 26.142C40.9053 26.142 40.5057 26.0644 40.1761 25.9091C39.8504 25.7538 39.5833 25.5587 39.375 25.3239C39.1667 25.0852 39.0076 24.8447 38.8977 24.6023H38.8239V29.2727H36.4034ZM38.7727 21.6364C38.7727 22.1553 38.8447 22.608 38.9886 22.9943C39.1326 23.3807 39.3409 23.6818 39.6136 23.8977C39.8864 24.1098 40.2178 24.2159 40.608 24.2159C41.0019 24.2159 41.3352 24.108 41.608 23.892C41.8807 23.6723 42.0871 23.3693 42.2273 22.983C42.3712 22.5928 42.4432 22.1439 42.4432 21.6364C42.4432 21.1326 42.3731 20.6894 42.233 20.3068C42.0928 19.9242 41.8864 19.625 41.6136 19.4091C41.3409 19.1932 41.0057 19.0852 40.608 19.0852C40.214 19.0852 39.8807 19.1894 39.608 19.3977C39.339 19.6061 39.1326 19.9015 38.9886 20.2841C38.8447 20.6667 38.7727 21.1174 38.7727 21.6364ZM50.5057 26.1705C49.608 26.1705 48.8352 25.9886 48.1875 25.625C47.5436 25.2576 47.0473 24.7386 46.6989 24.0682C46.3504 23.3939 46.1761 22.5966 46.1761 21.6761C46.1761 20.7784 46.3504 19.9905 46.6989 19.3125C47.0473 18.6345 47.5379 18.1061 48.1705 17.7273C48.8068 17.3485 49.553 17.1591 50.4091 17.1591C50.9848 17.1591 51.5208 17.2519 52.017 17.4375C52.517 17.6193 52.9527 17.8939 53.3239 18.2614C53.6989 18.6288 53.9905 19.0909 54.1989 19.6477C54.4072 20.2008 54.5114 20.8485 54.5114 21.5909V22.2557H47.142V20.7557H52.233C52.233 20.4072 52.1572 20.0985 52.0057 19.8295C51.8542 19.5606 51.6439 19.3504 51.375 19.1989C51.1098 19.0436 50.8011 18.9659 50.4489 18.9659C50.0814 18.9659 49.7557 19.0511 49.4716 19.2216C49.1913 19.3883 48.9716 19.6136 48.8125 19.8977C48.6534 20.178 48.572 20.4905 48.5682 20.8352V22.2614C48.5682 22.6932 48.6477 23.0663 48.8068 23.3807C48.9697 23.6951 49.1989 23.9375 49.4943 24.108C49.7898 24.2784 50.1402 24.3636 50.5455 24.3636C50.8144 24.3636 51.0606 24.3258 51.2841 24.25C51.5076 24.1742 51.6989 24.0606 51.858 23.9091C52.017 23.7576 52.1383 23.572 52.2216 23.3523L54.4602 23.5C54.3466 24.0379 54.1136 24.5076 53.7614 24.9091C53.4129 25.3068 52.9621 25.6174 52.4091 25.8409C51.8598 26.0606 51.2254 26.1705 50.5057 26.1705ZM58.5114 20.9545V26H56.0909V17.2727H58.3977V18.8125H58.5C58.6932 18.3049 59.017 17.9034 59.4716 17.608C59.9261 17.3087 60.4773 17.1591 61.125 17.1591C61.7311 17.1591 62.2595 17.2917 62.7102 17.5568C63.161 17.822 63.5114 18.2008 63.7614 18.6932C64.0114 19.1818 64.1364 19.7652 64.1364 20.4432V26H61.7159V20.875C61.7197 20.3409 61.5833 19.9242 61.3068 19.625C61.0303 19.322 60.6496 19.1705 60.1648 19.1705C59.839 19.1705 59.5511 19.2405 59.3011 19.3807C59.0549 19.5208 58.8617 19.7254 58.7216 19.9943C58.5852 20.2595 58.5152 20.5795 58.5114 20.9545ZM71.4815 20.2614V22.1818H66.1747V20.2614H71.4815ZM80.8054 19.7614L78.5895 19.8977C78.5516 19.7083 78.4702 19.5379 78.3452 19.3864C78.2202 19.2311 78.0554 19.108 77.8509 19.017C77.6501 18.9223 77.4096 18.875 77.1293 18.875C76.7543 18.875 76.438 18.9545 76.1804 19.1136C75.9228 19.2689 75.794 19.4773 75.794 19.7386C75.794 19.947 75.8774 20.1231 76.044 20.267C76.2107 20.411 76.4967 20.5265 76.902 20.6136L78.4815 20.9318C79.33 21.1061 79.9626 21.3864 80.3793 21.7727C80.7959 22.1591 81.0043 22.6667 81.0043 23.2955C81.0043 23.8674 80.8357 24.3693 80.4986 24.8011C80.1652 25.233 79.7069 25.5701 79.1236 25.8125C78.544 26.0511 77.8755 26.1705 77.1179 26.1705C75.9626 26.1705 75.0421 25.9299 74.3565 25.4489C73.6747 24.964 73.2751 24.3049 73.1577 23.4716L75.5384 23.3466C75.6103 23.6989 75.7846 23.9678 76.0611 24.1534C76.3376 24.3352 76.6918 24.4261 77.1236 24.4261C77.5478 24.4261 77.8887 24.3447 78.1463 24.1818C78.4077 24.0152 78.5402 23.8011 78.544 23.5398C78.5402 23.3201 78.4474 23.1402 78.2656 23C78.0838 22.8561 77.8035 22.7462 77.4247 22.6705L75.9134 22.3693C75.0611 22.1989 74.4266 21.9034 74.0099 21.483C73.5971 21.0625 73.3906 20.5265 73.3906 19.875C73.3906 19.3144 73.5421 18.8314 73.8452 18.4261C74.152 18.0208 74.5819 17.7083 75.1349 17.4886C75.6918 17.2689 76.3433 17.1591 77.0895 17.1591C78.1918 17.1591 79.0592 17.392 79.6918 17.858C80.3281 18.3239 80.6993 18.9583 80.8054 19.7614ZM86.4716 26.1705C85.589 26.1705 84.8258 25.983 84.1818 25.608C83.5417 25.2292 83.0473 24.7027 82.6989 24.0284C82.3504 23.3504 82.1761 22.5644 82.1761 21.6705C82.1761 20.7689 82.3504 19.9811 82.6989 19.3068C83.0473 18.6288 83.5417 18.1023 84.1818 17.7273C84.8258 17.3485 85.589 17.1591 86.4716 17.1591C87.3542 17.1591 88.1155 17.3485 88.7557 17.7273C89.3996 18.1023 89.8958 18.6288 90.2443 19.3068C90.5928 19.9811 90.767 20.7689 90.767 21.6705C90.767 22.5644 90.5928 23.3504 90.2443 24.0284C89.8958 24.7027 89.3996 25.2292 88.7557 25.608C88.1155 25.983 87.3542 26.1705 86.4716 26.1705ZM86.483 24.2955C86.8845 24.2955 87.2197 24.1818 87.4886 23.9545C87.7576 23.7235 87.9602 23.4091 88.0966 23.0114C88.2367 22.6136 88.3068 22.161 88.3068 21.6534C88.3068 21.1458 88.2367 20.6932 88.0966 20.2955C87.9602 19.8977 87.7576 19.5833 87.4886 19.3523C87.2197 19.1212 86.8845 19.0057 86.483 19.0057C86.0777 19.0057 85.7367 19.1212 85.4602 19.3523C85.1875 19.5833 84.9811 19.8977 84.8409 20.2955C84.7045 20.6932 84.6364 21.1458 84.6364 21.6534C84.6364 22.161 84.7045 22.6136 84.8409 23.0114C84.9811 23.4091 85.1875 23.7235 85.4602 23.9545C85.7367 24.1818 86.0777 24.2955 86.483 24.2955ZM97.9375 22.2841V17.2727H100.358V26H98.0341V24.4148H97.9432C97.7462 24.9261 97.4186 25.3371 96.9602 25.6477C96.5057 25.9583 95.9508 26.1136 95.2955 26.1136C94.7121 26.1136 94.1989 25.9811 93.7557 25.7159C93.3125 25.4508 92.9659 25.0739 92.7159 24.5852C92.4697 24.0966 92.3447 23.5114 92.3409 22.8295V17.2727H94.7614V22.3977C94.7652 22.9129 94.9034 23.3201 95.1761 23.6193C95.4489 23.9186 95.8144 24.0682 96.2727 24.0682C96.5644 24.0682 96.8371 24.0019 97.0909 23.8693C97.3447 23.733 97.5492 23.5322 97.7045 23.267C97.8636 23.0019 97.9413 22.6742 97.9375 22.2841ZM102.294 26V17.2727H104.641V18.7955H104.732C104.891 18.2538 105.158 17.8447 105.533 17.5682C105.908 17.2879 106.339 17.1477 106.828 17.1477C106.949 17.1477 107.08 17.1553 107.22 17.1705C107.36 17.1856 107.483 17.2064 107.589 17.233V19.3807C107.476 19.3466 107.319 19.3163 107.118 19.2898C106.917 19.2633 106.733 19.25 106.567 19.25C106.211 19.25 105.893 19.3277 105.612 19.483C105.336 19.6345 105.116 19.8466 104.953 20.1193C104.794 20.392 104.714 20.7064 104.714 21.0625V26H102.294ZM112.378 26.1705C111.484 26.1705 110.715 25.9811 110.071 25.6023C109.431 25.2197 108.938 24.6894 108.594 24.0114C108.253 23.3333 108.082 22.553 108.082 21.6705C108.082 20.7765 108.255 19.9924 108.599 19.3182C108.948 18.6402 109.442 18.1117 110.082 17.733C110.723 17.3504 111.484 17.1591 112.366 17.1591C113.128 17.1591 113.795 17.2973 114.366 17.5739C114.938 17.8504 115.391 18.2386 115.724 18.7386C116.058 19.2386 116.241 19.8258 116.276 20.5H113.991C113.927 20.0644 113.757 19.714 113.48 19.4489C113.207 19.1799 112.849 19.0455 112.406 19.0455C112.031 19.0455 111.704 19.1477 111.423 19.3523C111.147 19.553 110.931 19.8466 110.776 20.233C110.62 20.6193 110.543 21.0871 110.543 21.6364C110.543 22.1932 110.618 22.6667 110.77 23.0568C110.925 23.447 111.143 23.7443 111.423 23.9489C111.704 24.1534 112.031 24.2557 112.406 24.2557C112.683 24.2557 112.931 24.1989 113.151 24.0852C113.374 23.9716 113.558 23.8068 113.702 23.5909C113.849 23.3712 113.946 23.108 113.991 22.8011H116.276C116.238 23.4678 116.056 24.0549 115.73 24.5625C115.408 25.0663 114.963 25.4602 114.395 25.7443C113.827 26.0284 113.154 26.1705 112.378 26.1705ZM121.803 26.1705C120.905 26.1705 120.132 25.9886 119.484 25.625C118.84 25.2576 118.344 24.7386 117.996 24.0682C117.647 23.3939 117.473 22.5966 117.473 21.6761C117.473 20.7784 117.647 19.9905 117.996 19.3125C118.344 18.6345 118.835 18.1061 119.467 17.7273C120.104 17.3485 120.85 17.1591 121.706 17.1591C122.282 17.1591 122.818 17.2519 123.314 17.4375C123.814 17.6193 124.25 17.8939 124.621 18.2614C124.996 18.6288 125.287 19.0909 125.496 19.6477C125.704 20.2008 125.808 20.8485 125.808 21.5909V22.2557H118.439V20.7557H123.53C123.53 20.4072 123.454 20.0985 123.303 19.8295C123.151 19.5606 122.941 19.3504 122.672 19.1989C122.407 19.0436 122.098 18.9659 121.746 18.9659C121.378 18.9659 121.053 19.0511 120.768 19.2216C120.488 19.3883 120.268 19.6136 120.109 19.8977C119.95 20.178 119.869 20.4905 119.865 20.8352V22.2614C119.865 22.6932 119.945 23.0663 120.104 23.3807C120.267 23.6951 120.496 23.9375 120.791 24.108C121.087 24.2784 121.437 24.3636 121.842 24.3636C122.111 24.3636 122.357 24.3258 122.581 24.25C122.804 24.1742 122.996 24.0606 123.155 23.9091C123.314 23.7576 123.435 23.572 123.518 23.3523L125.757 23.5C125.643 24.0379 125.411 24.5076 125.058 24.9091C124.71 25.3068 124.259 25.6174 123.706 25.8409C123.157 26.0606 122.522 26.1705 121.803 26.1705ZM130.018 24.4091L129.956 25.0341C129.907 25.5341 129.812 26.0322 129.672 26.5284C129.536 27.0284 129.392 27.4811 129.24 27.8864C129.092 28.2917 128.973 28.6098 128.882 28.8409H127.314C127.371 28.6174 127.448 28.3049 127.547 27.9034C127.645 27.5057 127.738 27.0587 127.825 26.5625C127.912 26.0663 127.967 25.5606 127.99 25.0455L128.018 24.4091H130.018ZM137.808 14.3636V26H135.388V14.3636H137.808ZM139.747 26V17.2727H142.168V26H139.747ZM140.963 16.1477C140.603 16.1477 140.295 16.0284 140.037 15.7898C139.783 15.5473 139.656 15.2576 139.656 14.9205C139.656 14.5871 139.783 14.3011 140.037 14.0625C140.295 13.8201 140.603 13.6989 140.963 13.6989C141.323 13.6989 141.63 13.8201 141.884 14.0625C142.141 14.3011 142.27 14.5871 142.27 14.9205C142.27 15.2576 142.141 15.5473 141.884 15.7898C141.63 16.0284 141.323 16.1477 140.963 16.1477ZM148.038 29.4545C147.254 29.4545 146.582 29.3466 146.021 29.1307C145.464 28.9186 145.021 28.6288 144.692 28.2614C144.362 27.8939 144.148 27.4811 144.05 27.0227L146.288 26.7216C146.357 26.8958 146.464 27.0587 146.612 27.2102C146.76 27.3617 146.955 27.483 147.197 27.5739C147.444 27.6686 147.743 27.7159 148.095 27.7159C148.622 27.7159 149.055 27.5871 149.396 27.3295C149.741 27.0758 149.913 26.6496 149.913 26.0511V24.4545H149.811C149.705 24.697 149.546 24.9261 149.334 25.142C149.122 25.358 148.849 25.5341 148.516 25.6705C148.182 25.8068 147.785 25.875 147.322 25.875C146.667 25.875 146.071 25.7235 145.533 25.4205C144.999 25.1136 144.572 24.6458 144.254 24.017C143.94 23.3845 143.783 22.5852 143.783 21.6193C143.783 20.6307 143.944 19.8049 144.266 19.142C144.588 18.4792 145.016 17.983 145.55 17.6534C146.088 17.3239 146.677 17.1591 147.317 17.1591C147.805 17.1591 148.214 17.2424 148.544 17.4091C148.874 17.572 149.139 17.7765 149.339 18.0227C149.544 18.2652 149.701 18.5038 149.811 18.7386H149.902V17.2727H152.305V26.0852C152.305 26.8277 152.124 27.4489 151.76 27.9489C151.396 28.4489 150.893 28.8239 150.249 29.0739C149.608 29.3277 148.872 29.4545 148.038 29.4545ZM148.089 24.0568C148.48 24.0568 148.809 23.9602 149.078 23.767C149.351 23.5701 149.559 23.2898 149.703 22.9261C149.851 22.5587 149.925 22.1193 149.925 21.608C149.925 21.0966 149.853 20.6534 149.709 20.2784C149.565 19.8996 149.357 19.6061 149.084 19.3977C148.811 19.1894 148.48 19.0852 148.089 19.0852C147.692 19.0852 147.357 19.1932 147.084 19.4091C146.811 19.6212 146.605 19.9167 146.464 20.2955C146.324 20.6742 146.254 21.1117 146.254 21.608C146.254 22.1117 146.324 22.5473 146.464 22.9148C146.608 23.2784 146.815 23.5606 147.084 23.7614C147.357 23.9583 147.692 24.0568 148.089 24.0568ZM156.652 20.9545V26H154.232V14.3636H156.584V18.8125H156.686C156.883 18.2973 157.201 17.8939 157.641 17.6023C158.08 17.3068 158.631 17.1591 159.294 17.1591C159.9 17.1591 160.429 17.2917 160.879 17.5568C161.334 17.8182 161.686 18.1951 161.936 18.6875C162.19 19.1761 162.315 19.7614 162.311 20.4432V26H159.891V20.875C159.894 20.3371 159.758 19.9186 159.482 19.6193C159.209 19.3201 158.826 19.1705 158.334 19.1705C158.004 19.1705 157.713 19.2405 157.459 19.3807C157.209 19.5208 157.012 19.7254 156.868 19.9943C156.728 20.2595 156.656 20.5795 156.652 20.9545ZM168.858 17.2727V19.0909H163.602V17.2727H168.858ZM164.795 15.1818H167.216V23.3182C167.216 23.5417 167.25 23.7159 167.318 23.8409C167.386 23.9621 167.481 24.0473 167.602 24.0966C167.727 24.1458 167.871 24.1705 168.034 24.1705C168.148 24.1705 168.261 24.161 168.375 24.142C168.489 24.1193 168.576 24.1023 168.636 24.0909L169.017 25.892C168.896 25.9299 168.725 25.9735 168.506 26.0227C168.286 26.0758 168.019 26.108 167.705 26.1193C167.121 26.142 166.61 26.0644 166.17 25.8864C165.735 25.7083 165.396 25.4318 165.153 25.0568C164.911 24.6818 164.792 24.2083 164.795 23.6364V15.1818ZM172.156 26L169.781 17.2727H172.23L173.582 23.1364H173.662L175.071 17.2727H177.474L178.906 23.1023H178.98L180.31 17.2727H182.753L180.384 26H177.821L176.321 20.5114H176.213L174.713 26H172.156ZM187.803 26.1705C186.905 26.1705 186.132 25.9886 185.484 25.625C184.84 25.2576 184.344 24.7386 183.996 24.0682C183.647 23.3939 183.473 22.5966 183.473 21.6761C183.473 20.7784 183.647 19.9905 183.996 19.3125C184.344 18.6345 184.835 18.1061 185.467 17.7273C186.104 17.3485 186.85 17.1591 187.706 17.1591C188.282 17.1591 188.818 17.2519 189.314 17.4375C189.814 17.6193 190.25 17.8939 190.621 18.2614C190.996 18.6288 191.287 19.0909 191.496 19.6477C191.704 20.2008 191.808 20.8485 191.808 21.5909V22.2557H184.439V20.7557H189.53C189.53 20.4072 189.454 20.0985 189.303 19.8295C189.151 19.5606 188.941 19.3504 188.672 19.1989C188.407 19.0436 188.098 18.9659 187.746 18.9659C187.378 18.9659 187.053 19.0511 186.768 19.2216C186.488 19.3883 186.268 19.6136 186.109 19.8977C185.95 20.178 185.869 20.4905 185.865 20.8352V22.2614C185.865 22.6932 185.945 23.0663 186.104 23.3807C186.267 23.6951 186.496 23.9375 186.791 24.108C187.087 24.2784 187.437 24.3636 187.842 24.3636C188.111 24.3636 188.357 24.3258 188.581 24.25C188.804 24.1742 188.996 24.0606 189.155 23.9091C189.314 23.7576 189.435 23.572 189.518 23.3523L191.757 23.5C191.643 24.0379 191.411 24.5076 191.058 24.9091C190.71 25.3068 190.259 25.6174 189.706 25.8409C189.157 26.0606 188.522 26.1705 187.803 26.1705ZM193.388 26V17.2727H195.808V26H193.388ZM194.604 16.1477C194.244 16.1477 193.935 16.0284 193.678 15.7898C193.424 15.5473 193.297 15.2576 193.297 14.9205C193.297 14.5871 193.424 14.3011 193.678 14.0625C193.935 13.8201 194.244 13.6989 194.604 13.6989C194.964 13.6989 195.27 13.8201 195.524 14.0625C195.782 14.3011 195.911 14.5871 195.911 14.9205C195.911 15.2576 195.782 15.5473 195.524 15.7898C195.27 16.0284 194.964 16.1477 194.604 16.1477ZM201.679 29.4545C200.895 29.4545 200.223 29.3466 199.662 29.1307C199.105 28.9186 198.662 28.6288 198.332 28.2614C198.003 27.8939 197.789 27.4811 197.69 27.0227L199.929 26.7216C199.997 26.8958 200.105 27.0587 200.253 27.2102C200.401 27.3617 200.596 27.483 200.838 27.5739C201.084 27.6686 201.384 27.7159 201.736 27.7159C202.262 27.7159 202.696 27.5871 203.037 27.3295C203.382 27.0758 203.554 26.6496 203.554 26.0511V24.4545H203.452C203.346 24.697 203.187 24.9261 202.974 25.142C202.762 25.358 202.49 25.5341 202.156 25.6705C201.823 25.8068 201.425 25.875 200.963 25.875C200.308 25.875 199.711 25.7235 199.173 25.4205C198.639 25.1136 198.213 24.6458 197.895 24.017C197.58 23.3845 197.423 22.5852 197.423 21.6193C197.423 20.6307 197.584 19.8049 197.906 19.142C198.228 18.4792 198.656 17.983 199.19 17.6534C199.728 17.3239 200.317 17.1591 200.957 17.1591C201.446 17.1591 201.855 17.2424 202.185 17.4091C202.514 17.572 202.779 17.7765 202.98 18.0227C203.185 18.2652 203.342 18.5038 203.452 18.7386H203.543V17.2727H205.946V26.0852C205.946 26.8277 205.764 27.4489 205.401 27.9489C205.037 28.4489 204.533 28.8239 203.889 29.0739C203.249 29.3277 202.512 29.4545 201.679 29.4545ZM201.73 24.0568C202.12 24.0568 202.45 23.9602 202.719 23.767C202.991 23.5701 203.2 23.2898 203.344 22.9261C203.491 22.5587 203.565 22.1193 203.565 21.608C203.565 21.0966 203.493 20.6534 203.349 20.2784C203.205 19.8996 202.997 19.6061 202.724 19.3977C202.452 19.1894 202.12 19.0852 201.73 19.0852C201.332 19.0852 200.997 19.1932 200.724 19.4091C200.452 19.6212 200.245 19.9167 200.105 20.2955C199.965 20.6742 199.895 21.1117 199.895 21.608C199.895 22.1117 199.965 22.5473 200.105 22.9148C200.249 23.2784 200.455 23.5606 200.724 23.7614C200.997 23.9583 201.332 24.0568 201.73 24.0568ZM210.293 20.9545V26H207.872V14.3636H210.224V18.8125H210.327C210.524 18.2973 210.842 17.8939 211.281 17.6023C211.721 17.3068 212.272 17.1591 212.935 17.1591C213.541 17.1591 214.069 17.2917 214.52 17.5568C214.974 17.8182 215.327 18.1951 215.577 18.6875C215.83 19.1761 215.955 19.7614 215.952 20.4432V26H213.531V20.875C213.535 20.3371 213.399 19.9186 213.122 19.6193C212.849 19.3201 212.467 19.1705 211.974 19.1705C211.645 19.1705 211.353 19.2405 211.099 19.3807C210.849 19.5208 210.652 19.7254 210.509 19.9943C210.368 20.2595 210.296 20.5795 210.293 20.9545ZM222.499 17.2727V19.0909H217.243V17.2727H222.499ZM218.436 15.1818H220.857V23.3182C220.857 23.5417 220.891 23.7159 220.959 23.8409C221.027 23.9621 221.122 24.0473 221.243 24.0966C221.368 24.1458 221.512 24.1705 221.675 24.1705C221.788 24.1705 221.902 24.161 222.016 24.142C222.129 24.1193 222.216 24.1023 222.277 24.0909L222.658 25.892C222.536 25.9299 222.366 25.9735 222.146 26.0227C221.927 26.0758 221.66 26.108 221.345 26.1193C220.762 26.142 220.25 26.0644 219.811 25.8864C219.375 25.7083 219.036 25.4318 218.794 25.0568C218.552 24.6818 218.432 24.2083 218.436 23.6364V15.1818ZM230.267 26.1648C229.71 26.1648 229.214 26.0682 228.778 25.875C228.343 25.678 227.998 25.3883 227.744 25.0057C227.494 24.6193 227.369 24.1383 227.369 23.5625C227.369 23.0777 227.458 22.6705 227.636 22.3409C227.814 22.0114 228.057 21.7462 228.364 21.5455C228.67 21.3447 229.019 21.1932 229.409 21.0909C229.803 20.9886 230.216 20.9167 230.648 20.875C231.155 20.822 231.564 20.7727 231.875 20.7273C232.186 20.678 232.411 20.6061 232.551 20.5114C232.691 20.4167 232.761 20.2765 232.761 20.0909V20.0568C232.761 19.697 232.648 19.4186 232.42 19.2216C232.197 19.0246 231.879 18.9261 231.466 18.9261C231.03 18.9261 230.684 19.0227 230.426 19.2159C230.169 19.4053 229.998 19.6439 229.915 19.9318L227.676 19.75C227.79 19.2197 228.013 18.7614 228.347 18.375C228.68 17.9848 229.11 17.6856 229.636 17.4773C230.167 17.2652 230.78 17.1591 231.477 17.1591C231.962 17.1591 232.426 17.2159 232.869 17.3295C233.316 17.4432 233.712 17.6193 234.057 17.858C234.405 18.0966 234.68 18.4034 234.881 18.7784C235.081 19.1496 235.182 19.5947 235.182 20.1136V26H232.886V24.7898H232.818C232.678 25.0625 232.491 25.303 232.256 25.5114C232.021 25.7159 231.739 25.8769 231.409 25.9943C231.08 26.108 230.699 26.1648 230.267 26.1648ZM230.96 24.4943C231.316 24.4943 231.631 24.4242 231.903 24.2841C232.176 24.1402 232.39 23.947 232.545 23.7045C232.701 23.4621 232.778 23.1875 232.778 22.8807V21.9545C232.703 22.0038 232.598 22.0492 232.466 22.0909C232.337 22.1288 232.191 22.1648 232.028 22.1989C231.866 22.2292 231.703 22.2576 231.54 22.2841C231.377 22.3068 231.229 22.3277 231.097 22.3466C230.813 22.3883 230.564 22.4545 230.352 22.5455C230.14 22.6364 229.975 22.7595 229.858 22.9148C229.741 23.0663 229.682 23.2557 229.682 23.483C229.682 23.8125 229.801 24.0644 230.04 24.2386C230.282 24.4091 230.589 24.4943 230.96 24.4943ZM239.48 20.9545V26H237.06V17.2727H239.366V18.8125H239.469C239.662 18.3049 239.986 17.9034 240.44 17.608C240.895 17.3087 241.446 17.1591 242.094 17.1591C242.7 17.1591 243.228 17.2917 243.679 17.5568C244.13 17.822 244.48 18.2008 244.73 18.6932C244.98 19.1818 245.105 19.7652 245.105 20.4432V26H242.685V20.875C242.688 20.3409 242.552 19.9242 242.276 19.625C241.999 19.322 241.618 19.1705 241.134 19.1705C240.808 19.1705 240.52 19.2405 240.27 19.3807C240.024 19.5208 239.83 19.7254 239.69 19.9943C239.554 20.2595 239.484 20.5795 239.48 20.9545ZM250.229 26.142C249.566 26.142 248.965 25.9716 248.428 25.6307C247.893 25.286 247.469 24.7803 247.155 24.1136C246.844 23.4432 246.689 22.6212 246.689 21.6477C246.689 20.6477 246.85 19.8163 247.172 19.1534C247.494 18.4867 247.922 17.9886 248.456 17.6591C248.994 17.3258 249.583 17.1591 250.223 17.1591C250.712 17.1591 251.119 17.2424 251.445 17.4091C251.774 17.572 252.039 17.7765 252.24 18.0227C252.445 18.2652 252.6 18.5038 252.706 18.7386H252.78V14.3636H255.195V26H252.808V24.6023H252.706C252.592 24.8447 252.431 25.0852 252.223 25.3239C252.018 25.5587 251.751 25.7538 251.422 25.9091C251.096 26.0644 250.698 26.142 250.229 26.142ZM250.996 24.2159C251.386 24.2159 251.715 24.1098 251.984 23.8977C252.257 23.6818 252.465 23.3807 252.609 22.9943C252.757 22.608 252.831 22.1553 252.831 21.6364C252.831 21.1174 252.759 20.6667 252.615 20.2841C252.471 19.9015 252.263 19.6061 251.99 19.3977C251.717 19.1894 251.386 19.0852 250.996 19.0852C250.598 19.0852 250.263 19.1932 249.99 19.4091C249.717 19.625 249.511 19.9242 249.371 20.3068C249.231 20.6894 249.161 21.1326 249.161 21.6364C249.161 22.1439 249.231 22.5928 249.371 22.983C249.515 23.3693 249.721 23.6723 249.99 23.892C250.263 24.108 250.598 24.2159 250.996 24.2159ZM260.888 29.2727V17.2727H263.274V18.7386H263.382C263.488 18.5038 263.642 18.2652 263.842 18.0227C264.047 17.7765 264.312 17.572 264.638 17.4091C264.967 17.2424 265.376 17.1591 265.865 17.1591C266.501 17.1591 267.089 17.3258 267.626 17.6591C268.164 17.9886 268.594 18.4867 268.916 19.1534C269.238 19.8163 269.399 20.6477 269.399 21.6477C269.399 22.6212 269.242 23.4432 268.928 24.1136C268.617 24.7803 268.193 25.286 267.655 25.6307C267.121 25.9716 266.522 26.142 265.859 26.142C265.39 26.142 264.99 26.0644 264.661 25.9091C264.335 25.7538 264.068 25.5587 263.859 25.3239C263.651 25.0852 263.492 24.8447 263.382 24.6023H263.308V29.2727H260.888ZM263.257 21.6364C263.257 22.1553 263.329 22.608 263.473 22.9943C263.617 23.3807 263.825 23.6818 264.098 23.8977C264.371 24.1098 264.702 24.2159 265.092 24.2159C265.486 24.2159 265.82 24.108 266.092 23.892C266.365 23.6723 266.571 23.3693 266.712 22.983C266.856 22.5928 266.928 22.1439 266.928 21.6364C266.928 21.1326 266.857 20.6894 266.717 20.3068C266.577 19.9242 266.371 19.625 266.098 19.4091C265.825 19.1932 265.49 19.0852 265.092 19.0852C264.698 19.0852 264.365 19.1894 264.092 19.3977C263.823 19.6061 263.617 19.9015 263.473 20.2841C263.329 20.6667 263.257 21.1174 263.257 21.6364ZM271.013 26V17.2727H273.359V18.7955H273.45C273.609 18.2538 273.876 17.8447 274.251 17.5682C274.626 17.2879 275.058 17.1477 275.547 17.1477C275.668 17.1477 275.799 17.1553 275.939 17.1705C276.079 17.1856 276.202 17.2064 276.308 17.233V19.3807C276.195 19.3466 276.037 19.3163 275.837 19.2898C275.636 19.2633 275.452 19.25 275.286 19.25C274.929 19.25 274.611 19.3277 274.331 19.483C274.054 19.6345 273.835 19.8466 273.672 20.1193C273.513 20.392 273.433 20.7064 273.433 21.0625V26H271.013ZM277.56 26V17.2727H279.98V26H277.56ZM278.776 16.1477C278.416 16.1477 278.107 16.0284 277.849 15.7898C277.596 15.5473 277.469 15.2576 277.469 14.9205C277.469 14.5871 277.596 14.3011 277.849 14.0625C278.107 13.8201 278.416 13.6989 278.776 13.6989C279.135 13.6989 279.442 13.8201 279.696 14.0625C279.954 14.3011 280.082 14.5871 280.082 14.9205C280.082 15.2576 279.954 15.5473 279.696 15.7898C279.442 16.0284 279.135 16.1477 278.776 16.1477ZM290.055 17.2727L287.004 26H284.277L281.226 17.2727H283.783L285.595 23.517H285.686L287.493 17.2727H290.055ZM293.548 26.1648C292.991 26.1648 292.495 26.0682 292.06 25.875C291.624 25.678 291.279 25.3883 291.026 25.0057C290.776 24.6193 290.651 24.1383 290.651 23.5625C290.651 23.0777 290.74 22.6705 290.918 22.3409C291.096 22.0114 291.338 21.7462 291.645 21.5455C291.952 21.3447 292.3 21.1932 292.69 21.0909C293.084 20.9886 293.497 20.9167 293.929 20.875C294.437 20.822 294.846 20.7727 295.156 20.7273C295.467 20.678 295.692 20.6061 295.832 20.5114C295.973 20.4167 296.043 20.2765 296.043 20.0909V20.0568C296.043 19.697 295.929 19.4186 295.702 19.2216C295.478 19.0246 295.16 18.9261 294.747 18.9261C294.312 18.9261 293.965 19.0227 293.707 19.2159C293.45 19.4053 293.279 19.6439 293.196 19.9318L290.957 19.75C291.071 19.2197 291.295 18.7614 291.628 18.375C291.961 17.9848 292.391 17.6856 292.918 17.4773C293.448 17.2652 294.062 17.1591 294.759 17.1591C295.243 17.1591 295.707 17.2159 296.151 17.3295C296.598 17.4432 296.993 17.6193 297.338 17.858C297.687 18.0966 297.961 18.4034 298.162 18.7784C298.363 19.1496 298.463 19.5947 298.463 20.1136V26H296.168V24.7898H296.099C295.959 25.0625 295.772 25.303 295.537 25.5114C295.302 25.7159 295.02 25.8769 294.69 25.9943C294.361 26.108 293.98 26.1648 293.548 26.1648ZM294.241 24.4943C294.598 24.4943 294.912 24.4242 295.185 24.2841C295.457 24.1402 295.671 23.947 295.827 23.7045C295.982 23.4621 296.06 23.1875 296.06 22.8807V21.9545C295.984 22.0038 295.88 22.0492 295.747 22.0909C295.618 22.1288 295.473 22.1648 295.31 22.1989C295.147 22.2292 294.984 22.2576 294.821 22.2841C294.658 22.3068 294.51 22.3277 294.378 22.3466C294.094 22.3883 293.846 22.4545 293.634 22.5455C293.421 22.6364 293.257 22.7595 293.139 22.9148C293.022 23.0663 292.963 23.2557 292.963 23.483C292.963 23.8125 293.082 24.0644 293.321 24.2386C293.563 24.4091 293.87 24.4943 294.241 24.4943ZM304.284 26.1705C303.39 26.1705 302.621 25.9811 301.977 25.6023C301.337 25.2197 300.845 24.6894 300.5 24.0114C300.159 23.3333 299.989 22.553 299.989 21.6705C299.989 20.7765 300.161 19.9924 300.506 19.3182C300.854 18.6402 301.348 18.1117 301.989 17.733C302.629 17.3504 303.39 17.1591 304.273 17.1591C305.034 17.1591 305.701 17.2973 306.273 17.5739C306.845 17.8504 307.297 18.2386 307.631 18.7386C307.964 19.2386 308.148 19.8258 308.182 20.5H305.898C305.833 20.0644 305.663 19.714 305.386 19.4489C305.114 19.1799 304.756 19.0455 304.312 19.0455C303.938 19.0455 303.61 19.1477 303.33 19.3523C303.053 19.553 302.837 19.8466 302.682 20.233C302.527 20.6193 302.449 21.0871 302.449 21.6364C302.449 22.1932 302.525 22.6667 302.676 23.0568C302.831 23.447 303.049 23.7443 303.33 23.9489C303.61 24.1534 303.938 24.2557 304.312 24.2557C304.589 24.2557 304.837 24.1989 305.057 24.0852C305.28 23.9716 305.464 23.8068 305.608 23.5909C305.756 23.3712 305.852 23.108 305.898 22.8011H308.182C308.144 23.4678 307.962 24.0549 307.636 24.5625C307.314 25.0663 306.869 25.4602 306.301 25.7443C305.733 26.0284 305.061 26.1705 304.284 26.1705ZM311.226 29.2727C310.919 29.2727 310.631 29.2481 310.362 29.1989C310.097 29.1534 309.877 29.0947 309.703 29.0227L310.249 27.2159C310.533 27.303 310.788 27.3504 311.016 27.358C311.247 27.3655 311.446 27.3125 311.612 27.1989C311.783 27.0852 311.921 26.892 312.027 26.6193L312.169 26.25L309.038 17.2727H311.584L313.391 23.6818H313.482L315.305 17.2727H317.868L314.476 26.9432C314.313 27.4129 314.091 27.822 313.811 28.1705C313.535 28.5227 313.184 28.7936 312.76 28.983C312.336 29.1761 311.824 29.2727 311.226 29.2727ZM324.544 20.2614V22.1818H319.237V20.2614H324.544ZM331.3 17.2727V19.0909H325.913V17.2727H331.3ZM327.146 26V16.642C327.146 16.0095 327.269 15.4848 327.516 15.0682C327.766 14.6515 328.107 14.339 328.538 14.1307C328.97 13.9223 329.461 13.8182 330.01 13.8182C330.381 13.8182 330.72 13.8466 331.027 13.9034C331.338 13.9602 331.569 14.0114 331.72 14.0568L331.288 15.875C331.194 15.8447 331.076 15.8163 330.936 15.7898C330.8 15.7633 330.66 15.75 330.516 15.75C330.16 15.75 329.911 15.8333 329.771 16C329.631 16.1629 329.561 16.392 329.561 16.6875V26H327.146ZM336.409 26.1705C335.527 26.1705 334.763 25.983 334.119 25.608C333.479 25.2292 332.985 24.7027 332.636 24.0284C332.288 23.3504 332.114 22.5644 332.114 21.6705C332.114 20.7689 332.288 19.9811 332.636 19.3068C332.985 18.6288 333.479 18.1023 334.119 17.7273C334.763 17.3485 335.527 17.1591 336.409 17.1591C337.292 17.1591 338.053 17.3485 338.693 17.7273C339.337 18.1023 339.833 18.6288 340.182 19.3068C340.53 19.9811 340.705 20.7689 340.705 21.6705C340.705 22.5644 340.53 23.3504 340.182 24.0284C339.833 24.7027 339.337 25.2292 338.693 25.608C338.053 25.983 337.292 26.1705 336.409 26.1705ZM336.42 24.2955C336.822 24.2955 337.157 24.1818 337.426 23.9545C337.695 23.7235 337.898 23.4091 338.034 23.0114C338.174 22.6136 338.244 22.161 338.244 21.6534C338.244 21.1458 338.174 20.6932 338.034 20.2955C337.898 19.8977 337.695 19.5833 337.426 19.3523C337.157 19.1212 336.822 19.0057 336.42 19.0057C336.015 19.0057 335.674 19.1212 335.398 19.3523C335.125 19.5833 334.919 19.8977 334.778 20.2955C334.642 20.6932 334.574 21.1458 334.574 21.6534C334.574 22.161 334.642 22.6136 334.778 23.0114C334.919 23.4091 335.125 23.7235 335.398 23.9545C335.674 24.1818 336.015 24.2955 336.42 24.2955ZM346.222 26.1705C345.328 26.1705 344.559 25.9811 343.915 25.6023C343.275 25.2197 342.782 24.6894 342.438 24.0114C342.097 23.3333 341.926 22.553 341.926 21.6705C341.926 20.7765 342.098 19.9924 342.443 19.3182C342.792 18.6402 343.286 18.1117 343.926 17.733C344.566 17.3504 345.328 17.1591 346.21 17.1591C346.972 17.1591 347.638 17.2973 348.21 17.5739C348.782 17.8504 349.235 18.2386 349.568 18.7386C349.902 19.2386 350.085 19.8258 350.119 20.5H347.835C347.771 20.0644 347.6 19.714 347.324 19.4489C347.051 19.1799 346.693 19.0455 346.25 19.0455C345.875 19.0455 345.547 19.1477 345.267 19.3523C344.991 19.553 344.775 19.8466 344.619 20.233C344.464 20.6193 344.386 21.0871 344.386 21.6364C344.386 22.1932 344.462 22.6667 344.614 23.0568C344.769 23.447 344.987 23.7443 345.267 23.9489C345.547 24.1534 345.875 24.2557 346.25 24.2557C346.527 24.2557 346.775 24.1989 346.994 24.0852C347.218 23.9716 347.402 23.8068 347.545 23.5909C347.693 23.3712 347.79 23.108 347.835 22.8011H350.119C350.081 23.4678 349.9 24.0549 349.574 24.5625C349.252 25.0663 348.807 25.4602 348.239 25.7443C347.67 26.0284 346.998 26.1705 346.222 26.1705ZM357.266 22.2841V17.2727H359.686V26H357.362V24.4148H357.271C357.074 24.9261 356.747 25.3371 356.288 25.6477C355.834 25.9583 355.279 26.1136 354.624 26.1136C354.04 26.1136 353.527 25.9811 353.084 25.7159C352.641 25.4508 352.294 25.0739 352.044 24.5852C351.798 24.0966 351.673 23.5114 351.669 22.8295V17.2727H354.089V22.3977C354.093 22.9129 354.232 23.3201 354.504 23.6193C354.777 23.9186 355.143 24.0682 355.601 24.0682C355.893 24.0682 356.165 24.0019 356.419 23.8693C356.673 23.733 356.877 23.5322 357.033 23.267C357.192 23.0019 357.269 22.6742 357.266 22.2841ZM368.884 19.7614L366.668 19.8977C366.63 19.7083 366.548 19.5379 366.423 19.3864C366.298 19.2311 366.134 19.108 365.929 19.017C365.728 18.9223 365.488 18.875 365.207 18.875C364.832 18.875 364.516 18.9545 364.259 19.1136C364.001 19.2689 363.872 19.4773 363.872 19.7386C363.872 19.947 363.955 20.1231 364.122 20.267C364.289 20.411 364.575 20.5265 364.98 20.6136L366.56 20.9318C367.408 21.1061 368.041 21.3864 368.457 21.7727C368.874 22.1591 369.082 22.6667 369.082 23.2955C369.082 23.8674 368.914 24.3693 368.577 24.8011C368.243 25.233 367.785 25.5701 367.202 25.8125C366.622 26.0511 365.954 26.1705 365.196 26.1705C364.041 26.1705 363.12 25.9299 362.435 25.4489C361.753 24.964 361.353 24.3049 361.236 23.4716L363.616 23.3466C363.688 23.6989 363.863 23.9678 364.139 24.1534C364.416 24.3352 364.77 24.4261 365.202 24.4261C365.626 24.4261 365.967 24.3447 366.224 24.1818C366.486 24.0152 366.618 23.8011 366.622 23.5398C366.618 23.3201 366.526 23.1402 366.344 23C366.162 22.8561 365.882 22.7462 365.503 22.6705L363.991 22.3693C363.139 22.1989 362.505 21.9034 362.088 21.483C361.675 21.0625 361.469 20.5265 361.469 19.875C361.469 19.3144 361.62 18.8314 361.923 18.4261C362.23 18.0208 362.66 17.7083 363.213 17.4886C363.77 17.2689 364.421 17.1591 365.168 17.1591C366.27 17.1591 367.137 17.392 367.77 17.858C368.406 18.3239 368.777 18.9583 368.884 19.7614ZM374.584 26.1705C373.686 26.1705 372.913 25.9886 372.266 25.625C371.622 25.2576 371.125 24.7386 370.777 24.0682C370.429 23.3939 370.254 22.5966 370.254 21.6761C370.254 20.7784 370.429 19.9905 370.777 19.3125C371.125 18.6345 371.616 18.1061 372.249 17.7273C372.885 17.3485 373.631 17.1591 374.487 17.1591C375.063 17.1591 375.599 17.2519 376.095 17.4375C376.595 17.6193 377.031 17.8939 377.402 18.2614C377.777 18.6288 378.069 19.0909 378.277 19.6477C378.485 20.2008 378.589 20.8485 378.589 21.5909V22.2557H371.22V20.7557H376.311C376.311 20.4072 376.235 20.0985 376.084 19.8295C375.932 19.5606 375.722 19.3504 375.453 19.1989C375.188 19.0436 374.879 18.9659 374.527 18.9659C374.16 18.9659 373.834 19.0511 373.55 19.2216C373.269 19.3883 373.05 19.6136 372.891 19.8977C372.732 20.178 372.65 20.4905 372.646 20.8352V22.2614C372.646 22.6932 372.726 23.0663 372.885 23.3807C373.048 23.6951 373.277 23.9375 373.572 24.108C373.868 24.2784 374.218 24.3636 374.624 24.3636C374.893 24.3636 375.139 24.3258 375.362 24.25C375.586 24.1742 375.777 24.0606 375.936 23.9091C376.095 23.7576 376.216 23.572 376.3 23.3523L378.538 23.5C378.425 24.0379 378.192 24.5076 377.839 24.9091C377.491 25.3068 377.04 25.6174 376.487 25.8409C375.938 26.0606 375.304 26.1705 374.584 26.1705ZM383.385 26.142C382.722 26.142 382.122 25.9716 381.584 25.6307C381.05 25.286 380.625 24.7803 380.311 24.1136C380 23.4432 379.845 22.6212 379.845 21.6477C379.845 20.6477 380.006 19.8163 380.328 19.1534C380.65 18.4867 381.078 17.9886 381.612 17.6591C382.15 17.3258 382.739 17.1591 383.379 17.1591C383.868 17.1591 384.275 17.2424 384.601 17.4091C384.93 17.572 385.196 17.7765 385.396 18.0227C385.601 18.2652 385.756 18.5038 385.862 18.7386H385.936V14.3636H388.351V26H385.964V24.6023H385.862C385.749 24.8447 385.588 25.0852 385.379 25.3239C385.175 25.5587 384.908 25.7538 384.578 25.9091C384.252 26.0644 383.855 26.142 383.385 26.142ZM384.152 24.2159C384.542 24.2159 384.872 24.1098 385.141 23.8977C385.413 23.6818 385.622 23.3807 385.766 22.9943C385.913 22.608 385.987 22.1553 385.987 21.6364C385.987 21.1174 385.915 20.6667 385.771 20.2841C385.627 19.9015 385.419 19.6061 385.146 19.3977C384.874 19.1894 384.542 19.0852 384.152 19.0852C383.754 19.0852 383.419 19.1932 383.146 19.4091C382.874 19.625 382.667 19.9242 382.527 20.3068C382.387 20.6894 382.317 21.1326 382.317 21.6364C382.317 22.1439 382.387 22.5928 382.527 22.983C382.671 23.3693 382.877 23.6723 383.146 23.892C383.419 24.108 383.754 24.2159 384.152 24.2159ZM394.089 26V14.3636H398.749C399.605 14.3636 400.319 14.4905 400.891 14.7443C401.463 14.9981 401.893 15.3504 402.18 15.8011C402.468 16.2481 402.612 16.7633 402.612 17.3466C402.612 17.8011 402.521 18.2008 402.339 18.5455C402.158 18.8864 401.908 19.1667 401.589 19.3864C401.275 19.6023 400.915 19.7557 400.51 19.8466V19.9602C400.953 19.9792 401.368 20.1042 401.754 20.3352C402.144 20.5663 402.461 20.8902 402.703 21.3068C402.946 21.7197 403.067 22.2121 403.067 22.7841C403.067 23.4015 402.913 23.9527 402.607 24.4375C402.304 24.9186 401.855 25.2992 401.26 25.5795C400.665 25.8598 399.932 26 399.061 26H394.089ZM396.55 23.9886H398.555C399.241 23.9886 399.741 23.858 400.055 23.5966C400.37 23.3314 400.527 22.9792 400.527 22.5398C400.527 22.2178 400.449 21.9337 400.294 21.6875C400.139 21.4413 399.917 21.2481 399.629 21.108C399.345 20.9678 399.006 20.8977 398.612 20.8977H396.55V23.9886ZM396.55 19.233H398.374C398.711 19.233 399.01 19.1742 399.271 19.0568C399.536 18.9356 399.745 18.7652 399.896 18.5455C400.052 18.3258 400.129 18.0625 400.129 17.7557C400.129 17.3352 399.98 16.9962 399.68 16.7386C399.385 16.4811 398.964 16.3523 398.419 16.3523H396.55V19.233ZM408.599 26.1705C407.702 26.1705 406.929 25.9886 406.281 25.625C405.637 25.2576 405.141 24.7386 404.793 24.0682C404.444 23.3939 404.27 22.5966 404.27 21.6761C404.27 20.7784 404.444 19.9905 404.793 19.3125C405.141 18.6345 405.632 18.1061 406.264 17.7273C406.901 17.3485 407.647 17.1591 408.503 17.1591C409.079 17.1591 409.615 17.2519 410.111 17.4375C410.611 17.6193 411.046 17.8939 411.418 18.2614C411.793 18.6288 412.084 19.0909 412.293 19.6477C412.501 20.2008 412.605 20.8485 412.605 21.5909V22.2557H405.236V20.7557H410.327C410.327 20.4072 410.251 20.0985 410.099 19.8295C409.948 19.5606 409.738 19.3504 409.469 19.1989C409.204 19.0436 408.895 18.9659 408.543 18.9659C408.175 18.9659 407.849 19.0511 407.565 19.2216C407.285 19.3883 407.065 19.6136 406.906 19.8977C406.747 20.178 406.666 20.4905 406.662 20.8352V22.2614C406.662 22.6932 406.741 23.0663 406.901 23.3807C407.063 23.6951 407.293 23.9375 407.588 24.108C407.884 24.2784 408.234 24.3636 408.639 24.3636C408.908 24.3636 409.154 24.3258 409.378 24.25C409.601 24.1742 409.793 24.0606 409.952 23.9091C410.111 23.7576 410.232 23.572 410.315 23.3523L412.554 23.5C412.44 24.0379 412.207 24.5076 411.855 24.9091C411.507 25.3068 411.056 25.6174 410.503 25.8409C409.954 26.0606 409.319 26.1705 408.599 26.1705ZM414.23 26V14.3636H418.821C419.7 14.3636 420.45 14.5208 421.071 14.8352C421.696 15.1458 422.171 15.5871 422.497 16.1591C422.827 16.7273 422.991 17.3958 422.991 18.1648C422.991 18.9375 422.825 19.6023 422.491 20.1591C422.158 20.7121 421.675 21.1364 421.043 21.4318C420.414 21.7273 419.652 21.875 418.759 21.875H415.685V19.8977H418.361C418.83 19.8977 419.221 19.8333 419.531 19.7045C419.842 19.5758 420.073 19.3826 420.224 19.125C420.38 18.8674 420.457 18.5473 420.457 18.1648C420.457 17.7784 420.38 17.4527 420.224 17.1875C420.073 16.9223 419.84 16.7216 419.526 16.5852C419.215 16.4451 418.823 16.375 418.349 16.375H416.69V26H414.23ZM420.514 20.7045L423.406 26H420.69L417.861 20.7045H420.514ZM428.521 26.1705C427.624 26.1705 426.851 25.9886 426.203 25.625C425.559 25.2576 425.063 24.7386 424.714 24.0682C424.366 23.3939 424.192 22.5966 424.192 21.6761C424.192 20.7784 424.366 19.9905 424.714 19.3125C425.063 18.6345 425.554 18.1061 426.186 17.7273C426.822 17.3485 427.569 17.1591 428.425 17.1591C429 17.1591 429.536 17.2519 430.033 17.4375C430.533 17.6193 430.968 17.8939 431.339 18.2614C431.714 18.6288 432.006 19.0909 432.214 19.6477C432.423 20.2008 432.527 20.8485 432.527 21.5909V22.2557H425.158V20.7557H430.249C430.249 20.4072 430.173 20.0985 430.021 19.8295C429.87 19.5606 429.66 19.3504 429.391 19.1989C429.125 19.0436 428.817 18.9659 428.464 18.9659C428.097 18.9659 427.771 19.0511 427.487 19.2216C427.207 19.3883 426.987 19.6136 426.828 19.8977C426.669 20.178 426.588 20.4905 426.584 20.8352V22.2614C426.584 22.6932 426.663 23.0663 426.822 23.3807C426.985 23.6951 427.214 23.9375 427.51 24.108C427.805 24.2784 428.156 24.3636 428.561 24.3636C428.83 24.3636 429.076 24.3258 429.3 24.25C429.523 24.1742 429.714 24.0606 429.874 23.9091C430.033 23.7576 430.154 23.572 430.237 23.3523L432.476 23.5C432.362 24.0379 432.129 24.5076 431.777 24.9091C431.429 25.3068 430.978 25.6174 430.425 25.8409C429.875 26.0606 429.241 26.1705 428.521 26.1705ZM436.595 26.1648C436.038 26.1648 435.542 26.0682 435.107 25.875C434.671 25.678 434.326 25.3883 434.072 25.0057C433.822 24.6193 433.697 24.1383 433.697 23.5625C433.697 23.0777 433.786 22.6705 433.964 22.3409C434.143 22.0114 434.385 21.7462 434.692 21.5455C434.999 21.3447 435.347 21.1932 435.737 21.0909C436.131 20.9886 436.544 20.9167 436.976 20.875C437.483 20.822 437.893 20.7727 438.203 20.7273C438.514 20.678 438.739 20.6061 438.879 20.5114C439.019 20.4167 439.089 20.2765 439.089 20.0909V20.0568C439.089 19.697 438.976 19.4186 438.749 19.2216C438.525 19.0246 438.207 18.9261 437.794 18.9261C437.358 18.9261 437.012 19.0227 436.754 19.2159C436.497 19.4053 436.326 19.6439 436.243 19.9318L434.004 19.75C434.118 19.2197 434.341 18.7614 434.675 18.375C435.008 17.9848 435.438 17.6856 435.964 17.4773C436.495 17.2652 437.108 17.1591 437.805 17.1591C438.29 17.1591 438.754 17.2159 439.197 17.3295C439.644 17.4432 440.04 17.6193 440.385 17.858C440.733 18.0966 441.008 18.4034 441.209 18.7784C441.41 19.1496 441.51 19.5947 441.51 20.1136V26H439.214V24.7898H439.146C439.006 25.0625 438.819 25.303 438.584 25.5114C438.349 25.7159 438.067 25.8769 437.737 25.9943C437.408 26.108 437.027 26.1648 436.595 26.1648ZM437.288 24.4943C437.644 24.4943 437.959 24.4242 438.232 24.2841C438.504 24.1402 438.718 23.947 438.874 23.7045C439.029 23.4621 439.107 23.1875 439.107 22.8807V21.9545C439.031 22.0038 438.927 22.0492 438.794 22.0909C438.665 22.1288 438.519 22.1648 438.357 22.1989C438.194 22.2292 438.031 22.2576 437.868 22.2841C437.705 22.3068 437.557 22.3277 437.425 22.3466C437.141 22.3883 436.893 22.4545 436.68 22.5455C436.468 22.6364 436.304 22.7595 436.186 22.9148C436.069 23.0663 436.01 23.2557 436.01 23.483C436.01 23.8125 436.129 24.0644 436.368 24.2386C436.61 24.4091 436.917 24.4943 437.288 24.4943ZM445.808 14.3636V26H443.388V14.3636H445.808ZM453.939 26.1648C453.382 26.1648 452.886 26.0682 452.45 25.875C452.015 25.678 451.67 25.3883 451.416 25.0057C451.166 24.6193 451.041 24.1383 451.041 23.5625C451.041 23.0777 451.13 22.6705 451.308 22.3409C451.486 22.0114 451.729 21.7462 452.036 21.5455C452.342 21.3447 452.691 21.1932 453.081 21.0909C453.475 20.9886 453.888 20.9167 454.32 20.875C454.827 20.822 455.236 20.7727 455.547 20.7273C455.857 20.678 456.083 20.6061 456.223 20.5114C456.363 20.4167 456.433 20.2765 456.433 20.0909V20.0568C456.433 19.697 456.32 19.4186 456.092 19.2216C455.869 19.0246 455.551 18.9261 455.138 18.9261C454.702 18.9261 454.356 19.0227 454.098 19.2159C453.84 19.4053 453.67 19.6439 453.587 19.9318L451.348 19.75C451.462 19.2197 451.685 18.7614 452.018 18.375C452.352 17.9848 452.782 17.6856 453.308 17.4773C453.839 17.2652 454.452 17.1591 455.149 17.1591C455.634 17.1591 456.098 17.2159 456.541 17.3295C456.988 17.4432 457.384 17.6193 457.729 17.858C458.077 18.0966 458.352 18.4034 458.553 18.7784C458.753 19.1496 458.854 19.5947 458.854 20.1136V26H456.558V24.7898H456.49C456.35 25.0625 456.162 25.303 455.928 25.5114C455.693 25.7159 455.411 25.8769 455.081 25.9943C454.751 26.108 454.371 26.1648 453.939 26.1648ZM454.632 24.4943C454.988 24.4943 455.303 24.4242 455.575 24.2841C455.848 24.1402 456.062 23.947 456.217 23.7045C456.373 23.4621 456.45 23.1875 456.45 22.8807V21.9545C456.375 22.0038 456.27 22.0492 456.138 22.0909C456.009 22.1288 455.863 22.1648 455.7 22.1989C455.537 22.2292 455.375 22.2576 455.212 22.2841C455.049 22.3068 454.901 22.3277 454.768 22.3466C454.484 22.3883 454.236 22.4545 454.024 22.5455C453.812 22.6364 453.647 22.7595 453.53 22.9148C453.412 23.0663 453.354 23.2557 453.354 23.483C453.354 23.8125 453.473 24.0644 453.712 24.2386C453.954 24.4091 454.261 24.4943 454.632 24.4943ZM463.152 14.3636V26H460.732V14.3636H463.152ZM469.733 17.2727V19.0909H464.477V17.2727H469.733ZM465.67 15.1818H468.091V23.3182C468.091 23.5417 468.125 23.7159 468.193 23.8409C468.261 23.9621 468.356 24.0473 468.477 24.0966C468.602 24.1458 468.746 24.1705 468.909 24.1705C469.023 24.1705 469.136 24.161 469.25 24.142C469.364 24.1193 469.451 24.1023 469.511 24.0909L469.892 25.892C469.771 25.9299 469.6 25.9735 469.381 26.0227C469.161 26.0758 468.894 26.108 468.58 26.1193C467.996 26.142 467.485 26.0644 467.045 25.8864C466.61 25.7083 466.271 25.4318 466.028 25.0568C465.786 24.6818 465.667 24.2083 465.67 23.6364V15.1818ZM475.193 26.1705C474.295 26.1705 473.523 25.9886 472.875 25.625C472.231 25.2576 471.735 24.7386 471.386 24.0682C471.038 23.3939 470.864 22.5966 470.864 21.6761C470.864 20.7784 471.038 19.9905 471.386 19.3125C471.735 18.6345 472.225 18.1061 472.858 17.7273C473.494 17.3485 474.241 17.1591 475.097 17.1591C475.672 17.1591 476.208 17.2519 476.705 17.4375C477.205 17.6193 477.64 17.8939 478.011 18.2614C478.386 18.6288 478.678 19.0909 478.886 19.6477C479.095 20.2008 479.199 20.8485 479.199 21.5909V22.2557H471.83V20.7557H476.92C476.92 20.4072 476.845 20.0985 476.693 19.8295C476.542 19.5606 476.331 19.3504 476.062 19.1989C475.797 19.0436 475.489 18.9659 475.136 18.9659C474.769 18.9659 474.443 19.0511 474.159 19.2216C473.879 19.3883 473.659 19.6136 473.5 19.8977C473.341 20.178 473.259 20.4905 473.256 20.8352V22.2614C473.256 22.6932 473.335 23.0663 473.494 23.3807C473.657 23.6951 473.886 23.9375 474.182 24.108C474.477 24.2784 474.828 24.3636 475.233 24.3636C475.502 24.3636 475.748 24.3258 475.972 24.25C476.195 24.1742 476.386 24.0606 476.545 23.9091C476.705 23.7576 476.826 23.572 476.909 23.3523L479.148 23.5C479.034 24.0379 478.801 24.5076 478.449 24.9091C478.1 25.3068 477.65 25.6174 477.097 25.8409C476.547 26.0606 475.913 26.1705 475.193 26.1705ZM480.778 26V17.2727H483.125V18.7955H483.216C483.375 18.2538 483.642 17.8447 484.017 17.5682C484.392 17.2879 484.824 17.1477 485.312 17.1477C485.434 17.1477 485.564 17.1553 485.705 17.1705C485.845 17.1856 485.968 17.2064 486.074 17.233V19.3807C485.96 19.3466 485.803 19.3163 485.602 19.2898C485.402 19.2633 485.218 19.25 485.051 19.25C484.695 19.25 484.377 19.3277 484.097 19.483C483.82 19.6345 483.6 19.8466 483.438 20.1193C483.278 20.392 483.199 20.7064 483.199 21.0625V26H480.778ZM489.746 20.9545V26H487.325V17.2727H489.632V18.8125H489.734C489.928 18.3049 490.251 17.9034 490.706 17.608C491.161 17.3087 491.712 17.1591 492.359 17.1591C492.965 17.1591 493.494 17.2917 493.945 17.5568C494.395 17.822 494.746 18.2008 494.996 18.6932C495.246 19.1818 495.371 19.7652 495.371 20.4432V26H492.95V20.875C492.954 20.3409 492.818 19.9242 492.541 19.625C492.265 19.322 491.884 19.1705 491.399 19.1705C491.073 19.1705 490.786 19.2405 490.536 19.3807C490.289 19.5208 490.096 19.7254 489.956 19.9943C489.82 20.2595 489.75 20.5795 489.746 20.9545ZM499.767 26.1648C499.21 26.1648 498.714 26.0682 498.278 25.875C497.843 25.678 497.498 25.3883 497.244 25.0057C496.994 24.6193 496.869 24.1383 496.869 23.5625C496.869 23.0777 496.958 22.6705 497.136 22.3409C497.314 22.0114 497.557 21.7462 497.864 21.5455C498.17 21.3447 498.519 21.1932 498.909 21.0909C499.303 20.9886 499.716 20.9167 500.148 20.875C500.655 20.822 501.064 20.7727 501.375 20.7273C501.686 20.678 501.911 20.6061 502.051 20.5114C502.191 20.4167 502.261 20.2765 502.261 20.0909V20.0568C502.261 19.697 502.148 19.4186 501.92 19.2216C501.697 19.0246 501.379 18.9261 500.966 18.9261C500.53 18.9261 500.184 19.0227 499.926 19.2159C499.669 19.4053 499.498 19.6439 499.415 19.9318L497.176 19.75C497.29 19.2197 497.513 18.7614 497.847 18.375C498.18 17.9848 498.61 17.6856 499.136 17.4773C499.667 17.2652 500.28 17.1591 500.977 17.1591C501.462 17.1591 501.926 17.2159 502.369 17.3295C502.816 17.4432 503.212 17.6193 503.557 17.858C503.905 18.0966 504.18 18.4034 504.381 18.7784C504.581 19.1496 504.682 19.5947 504.682 20.1136V26H502.386V24.7898H502.318C502.178 25.0625 501.991 25.303 501.756 25.5114C501.521 25.7159 501.239 25.8769 500.909 25.9943C500.58 26.108 500.199 26.1648 499.767 26.1648ZM500.46 24.4943C500.816 24.4943 501.131 24.4242 501.403 24.2841C501.676 24.1402 501.89 23.947 502.045 23.7045C502.201 23.4621 502.278 23.1875 502.278 22.8807V21.9545C502.203 22.0038 502.098 22.0492 501.966 22.0909C501.837 22.1288 501.691 22.1648 501.528 22.1989C501.366 22.2292 501.203 22.2576 501.04 22.2841C500.877 22.3068 500.729 22.3277 500.597 22.3466C500.313 22.3883 500.064 22.4545 499.852 22.5455C499.64 22.6364 499.475 22.7595 499.358 22.9148C499.241 23.0663 499.182 23.2557 499.182 23.483C499.182 23.8125 499.301 24.0644 499.54 24.2386C499.782 24.4091 500.089 24.4943 500.46 24.4943ZM511.202 17.2727V19.0909H505.946V17.2727H511.202ZM507.139 15.1818H509.56V23.3182C509.56 23.5417 509.594 23.7159 509.662 23.8409C509.73 23.9621 509.825 24.0473 509.946 24.0966C510.071 24.1458 510.215 24.1705 510.378 24.1705C510.491 24.1705 510.605 24.161 510.719 24.142C510.832 24.1193 510.92 24.1023 510.98 24.0909L511.361 25.892C511.24 25.9299 511.069 25.9735 510.849 26.0227C510.63 26.0758 510.363 26.108 510.048 26.1193C509.465 26.142 508.954 26.0644 508.514 25.8864C508.079 25.7083 507.74 25.4318 507.497 25.0568C507.255 24.6818 507.135 24.2083 507.139 23.6364V15.1818ZM512.778 26V17.2727H515.199V26H512.778ZM513.994 16.1477C513.634 16.1477 513.326 16.0284 513.068 15.7898C512.814 15.5473 512.688 15.2576 512.688 14.9205C512.688 14.5871 512.814 14.3011 513.068 14.0625C513.326 13.8201 513.634 13.6989 513.994 13.6989C514.354 13.6989 514.661 13.8201 514.915 14.0625C515.172 14.3011 515.301 14.5871 515.301 14.9205C515.301 15.2576 515.172 15.5473 514.915 15.7898C514.661 16.0284 514.354 16.1477 513.994 16.1477ZM525.274 17.2727L522.223 26H519.496L516.445 17.2727H519.001L520.814 23.517H520.905L522.712 17.2727H525.274ZM530.209 26.1705C529.311 26.1705 528.538 25.9886 527.891 25.625C527.247 25.2576 526.75 24.7386 526.402 24.0682C526.054 23.3939 525.879 22.5966 525.879 21.6761C525.879 20.7784 526.054 19.9905 526.402 19.3125C526.75 18.6345 527.241 18.1061 527.874 17.7273C528.51 17.3485 529.256 17.1591 530.112 17.1591C530.688 17.1591 531.224 17.2519 531.72 17.4375C532.22 17.6193 532.656 17.8939 533.027 18.2614C533.402 18.6288 533.694 19.0909 533.902 19.6477C534.11 20.2008 534.214 20.8485 534.214 21.5909V22.2557H526.845V20.7557H531.936C531.936 20.4072 531.86 20.0985 531.709 19.8295C531.557 19.5606 531.347 19.3504 531.078 19.1989C530.813 19.0436 530.504 18.9659 530.152 18.9659C529.785 18.9659 529.459 19.0511 529.175 19.2216C528.894 19.3883 528.675 19.6136 528.516 19.8977C528.357 20.178 528.275 20.4905 528.271 20.8352V22.2614C528.271 22.6932 528.351 23.0663 528.51 23.3807C528.673 23.6951 528.902 23.9375 529.197 24.108C529.493 24.2784 529.843 24.3636 530.249 24.3636C530.518 24.3636 530.764 24.3258 530.987 24.25C531.211 24.1742 531.402 24.0606 531.561 23.9091C531.72 23.7576 531.841 23.572 531.925 23.3523L534.163 23.5C534.05 24.0379 533.817 24.5076 533.464 24.9091C533.116 25.3068 532.665 25.6174 532.112 25.8409C531.563 26.0606 530.929 26.1705 530.209 26.1705ZM543.44 26.1705C542.546 26.1705 541.777 25.9811 541.134 25.6023C540.493 25.2197 540.001 24.6894 539.656 24.0114C539.315 23.3333 539.145 22.553 539.145 21.6705C539.145 20.7765 539.317 19.9924 539.662 19.3182C540.01 18.6402 540.505 18.1117 541.145 17.733C541.785 17.3504 542.546 17.1591 543.429 17.1591C544.19 17.1591 544.857 17.2973 545.429 17.5739C546.001 17.8504 546.454 18.2386 546.787 18.7386C547.12 19.2386 547.304 19.8258 547.338 20.5H545.054C544.99 20.0644 544.819 19.714 544.543 19.4489C544.27 19.1799 543.912 19.0455 543.469 19.0455C543.094 19.0455 542.766 19.1477 542.486 19.3523C542.209 19.553 541.993 19.8466 541.838 20.233C541.683 20.6193 541.605 21.0871 541.605 21.6364C541.605 22.1932 541.681 22.6667 541.832 23.0568C541.988 23.447 542.205 23.7443 542.486 23.9489C542.766 24.1534 543.094 24.2557 543.469 24.2557C543.745 24.2557 543.993 24.1989 544.213 24.0852C544.437 23.9716 544.62 23.8068 544.764 23.5909C544.912 23.3712 545.009 23.108 545.054 22.8011H547.338C547.3 23.4678 547.118 24.0549 546.793 24.5625C546.471 25.0663 546.026 25.4602 545.457 25.7443C544.889 26.0284 544.217 26.1705 543.44 26.1705ZM551.308 14.3636V26H548.888V14.3636H551.308ZM553.247 26V17.2727H555.668V26H553.247ZM554.463 16.1477C554.103 16.1477 553.795 16.0284 553.537 15.7898C553.283 15.5473 553.156 15.2576 553.156 14.9205C553.156 14.5871 553.283 14.3011 553.537 14.0625C553.795 13.8201 554.103 13.6989 554.463 13.6989C554.823 13.6989 555.13 13.8201 555.384 14.0625C555.641 14.3011 555.77 14.5871 555.77 14.9205C555.77 15.2576 555.641 15.5473 555.384 15.7898C555.13 16.0284 554.823 16.1477 554.463 16.1477ZM561.584 26.1705C560.686 26.1705 559.913 25.9886 559.266 25.625C558.622 25.2576 558.125 24.7386 557.777 24.0682C557.429 23.3939 557.254 22.5966 557.254 21.6761C557.254 20.7784 557.429 19.9905 557.777 19.3125C558.125 18.6345 558.616 18.1061 559.249 17.7273C559.885 17.3485 560.631 17.1591 561.487 17.1591C562.063 17.1591 562.599 17.2519 563.095 17.4375C563.595 17.6193 564.031 17.8939 564.402 18.2614C564.777 18.6288 565.069 19.0909 565.277 19.6477C565.485 20.2008 565.589 20.8485 565.589 21.5909V22.2557H558.22V20.7557H563.311C563.311 20.4072 563.235 20.0985 563.084 19.8295C562.932 19.5606 562.722 19.3504 562.453 19.1989C562.188 19.0436 561.879 18.9659 561.527 18.9659C561.16 18.9659 560.834 19.0511 560.55 19.2216C560.269 19.3883 560.05 19.6136 559.891 19.8977C559.732 20.178 559.65 20.4905 559.646 20.8352V22.2614C559.646 22.6932 559.726 23.0663 559.885 23.3807C560.048 23.6951 560.277 23.9375 560.572 24.108C560.868 24.2784 561.218 24.3636 561.624 24.3636C561.893 24.3636 562.139 24.3258 562.362 24.25C562.586 24.1742 562.777 24.0606 562.936 23.9091C563.095 23.7576 563.216 23.572 563.3 23.3523L565.538 23.5C565.425 24.0379 565.192 24.5076 564.839 24.9091C564.491 25.3068 564.04 25.6174 563.487 25.8409C562.938 26.0606 562.304 26.1705 561.584 26.1705ZM569.589 20.9545V26H567.169V17.2727H569.476V18.8125H569.578C569.771 18.3049 570.095 17.9034 570.55 17.608C571.004 17.3087 571.555 17.1591 572.203 17.1591C572.809 17.1591 573.338 17.2917 573.788 17.5568C574.239 17.822 574.589 18.2008 574.839 18.6932C575.089 19.1818 575.214 19.7652 575.214 20.4432V26H572.794V20.875C572.798 20.3409 572.661 19.9242 572.385 19.625C572.108 19.322 571.728 19.1705 571.243 19.1705C570.917 19.1705 570.629 19.2405 570.379 19.3807C570.133 19.5208 569.94 19.7254 569.8 19.9943C569.663 20.2595 569.593 20.5795 569.589 20.9545ZM581.764 17.2727V19.0909H576.509V17.2727H581.764ZM577.702 15.1818H580.122V23.3182C580.122 23.5417 580.156 23.7159 580.224 23.8409C580.293 23.9621 580.387 24.0473 580.509 24.0966C580.634 24.1458 580.777 24.1705 580.94 24.1705C581.054 24.1705 581.168 24.161 581.281 24.142C581.395 24.1193 581.482 24.1023 581.543 24.0909L581.923 25.892C581.802 25.9299 581.632 25.9735 581.412 26.0227C581.192 26.0758 580.925 26.108 580.611 26.1193C580.027 26.142 579.516 26.0644 579.077 25.8864C578.641 25.7083 578.302 25.4318 578.06 25.0568C577.817 24.6818 577.698 24.2083 577.702 23.6364V15.1818ZM584.756 26.1477C584.381 26.1477 584.059 26.0152 583.79 25.75C583.525 25.4811 583.392 25.1591 583.392 24.7841C583.392 24.4129 583.525 24.0947 583.79 23.8295C584.059 23.5644 584.381 23.4318 584.756 23.4318C585.119 23.4318 585.438 23.5644 585.71 23.8295C585.983 24.0947 586.119 24.4129 586.119 24.7841C586.119 25.0341 586.055 25.2633 585.926 25.4716C585.801 25.6761 585.636 25.8409 585.432 25.9659C585.227 26.0871 585.002 26.1477 584.756 26.1477Z" fill="white"/>
</svg>
