<svg width="513" height="15" viewBox="0 0 513 15" fill="none" xmlns="http://www.w3.org/2000/svg">
<path d="M2.63991 11H0.333097L3.84801 0.818182H6.62216L10.1321 11H7.82528L5.27486 3.14489H5.19531L2.63991 11ZM2.49574 6.99787H7.9446V8.67827H2.49574V6.99787ZM13.4357 6.58523V11H11.3178V3.36364H13.3363V4.71094H13.4258C13.5948 4.26681 13.8782 3.91548 14.2759 3.65696C14.6737 3.39512 15.1559 3.2642 15.7227 3.2642C16.253 3.2642 16.7153 3.38021 17.1097 3.61222C17.5041 3.84422 17.8107 4.17566 18.0295 4.60653C18.2482 5.03409 18.3576 5.54451 18.3576 6.13778V11H16.2397V6.51562C16.243 6.0483 16.1237 5.68371 15.8817 5.42188C15.6398 5.15672 15.3067 5.02415 14.8825 5.02415C14.5974 5.02415 14.3455 5.08546 14.1268 5.2081C13.9113 5.33073 13.7423 5.50971 13.6197 5.74503C13.5004 5.97704 13.439 6.2571 13.4357 6.58523ZM26.7173 11.1491C25.9451 11.1491 25.2772 10.9851 24.7138 10.657C24.1536 10.3255 23.7211 9.86482 23.4162 9.27486C23.1113 8.68158 22.9588 7.99384 22.9588 7.21165C22.9588 6.42282 23.1113 5.73343 23.4162 5.14347C23.7211 4.55019 24.1536 4.08949 24.7138 3.76136C25.2772 3.42992 25.9451 3.2642 26.7173 3.2642C27.4896 3.2642 28.1558 3.42992 28.7159 3.76136C29.2794 4.08949 29.7135 4.55019 30.0185 5.14347C30.3234 5.73343 30.4759 6.42282 30.4759 7.21165C30.4759 7.99384 30.3234 8.68158 30.0185 9.27486C29.7135 9.86482 29.2794 10.3255 28.7159 10.657C28.1558 10.9851 27.4896 11.1491 26.7173 11.1491ZM26.7273 9.50852C27.0786 9.50852 27.3719 9.40909 27.6072 9.21023C27.8426 9.00805 28.0199 8.73295 28.1392 8.38494C28.2618 8.03693 28.3232 7.64086 28.3232 7.19673C28.3232 6.7526 28.2618 6.35653 28.1392 6.00852C28.0199 5.66051 27.8426 5.38542 27.6072 5.18324C27.3719 4.98106 27.0786 4.87997 26.7273 4.87997C26.3726 4.87997 26.0743 4.98106 25.8324 5.18324C25.5938 5.38542 25.4131 5.66051 25.2905 6.00852C25.1712 6.35653 25.1115 6.7526 25.1115 7.19673C25.1115 7.64086 25.1712 8.03693 25.2905 8.38494C25.4131 8.73295 25.5938 9.00805 25.8324 9.21023C26.0743 9.40909 26.3726 9.50852 26.7273 9.50852ZM31.853 13.8636V3.36364H33.9411V4.64631H34.0355C34.1283 4.44081 34.2625 4.23201 34.4382 4.01989C34.6172 3.80445 34.8492 3.62547 35.1342 3.48295C35.4226 3.33712 35.7805 3.2642 36.2081 3.2642C36.7649 3.2642 37.2786 3.41004 37.7493 3.7017C38.2199 3.99006 38.5961 4.4259 38.8778 5.00923C39.1596 5.58925 39.3004 6.31676 39.3004 7.19176C39.3004 8.04356 39.1629 8.76278 38.8878 9.34943C38.616 9.93277 38.2448 10.3752 37.7741 10.6768C37.3068 10.9751 36.7831 11.1243 36.2031 11.1243C35.7921 11.1243 35.4425 11.0563 35.1541 10.9205C34.8691 10.7846 34.6354 10.6139 34.4531 10.4084C34.2708 10.1996 34.1316 9.98911 34.0355 9.77699H33.9709V13.8636H31.853ZM33.9261 7.18182C33.9261 7.63589 33.9891 8.03196 34.1151 8.37003C34.241 8.7081 34.4233 8.97159 34.6619 9.16051C34.9006 9.34612 35.1906 9.43892 35.532 9.43892C35.8767 9.43892 36.1683 9.34446 36.407 9.15554C36.6456 8.9633 36.8262 8.69815 36.9489 8.36009C37.0748 8.0187 37.1378 7.62595 37.1378 7.18182C37.1378 6.741 37.0765 6.35322 36.9538 6.01847C36.8312 5.68371 36.6506 5.42187 36.4119 5.23295C36.1733 5.04403 35.88 4.94957 35.532 4.94957C35.1873 4.94957 34.8956 5.04072 34.657 5.22301C34.4216 5.4053 34.241 5.66383 34.1151 5.99858C33.9891 6.33333 33.9261 6.72775 33.9261 7.18182ZM44.1925 11.1491C43.407 11.1491 42.7308 10.9901 42.1641 10.6719C41.6006 10.3504 41.1664 9.89631 40.8615 9.30966C40.5566 8.7197 40.4041 8.02202 40.4041 7.21662C40.4041 6.43111 40.5566 5.74171 40.8615 5.14844C41.1664 4.55516 41.5956 4.0928 42.1491 3.76136C42.706 3.42992 43.3589 3.2642 44.108 3.2642C44.6117 3.2642 45.0807 3.34541 45.5149 3.50781C45.9524 3.6669 46.3336 3.9072 46.6584 4.22869C46.9865 4.55019 47.2417 4.95455 47.424 5.44176C47.6063 5.92566 47.6974 6.49242 47.6974 7.14205V7.72372H41.2493V6.41122H45.7038C45.7038 6.1063 45.6375 5.83617 45.505 5.60085C45.3724 5.36553 45.1884 5.18158 44.9531 5.04901C44.7211 4.91312 44.451 4.84517 44.1428 4.84517C43.8213 4.84517 43.5362 4.91974 43.2876 5.06889C43.0424 5.21473 42.8501 5.41193 42.7109 5.66051C42.5717 5.90578 42.5005 6.17921 42.4972 6.48082V7.72869C42.4972 8.10653 42.5668 8.433 42.706 8.7081C42.8485 8.98319 43.049 9.19531 43.3075 9.34446C43.5661 9.49361 43.8726 9.56818 44.2273 9.56818C44.4626 9.56818 44.678 9.53504 44.8736 9.46875C45.0691 9.40246 45.2365 9.30303 45.3757 9.17045C45.5149 9.03788 45.621 8.87547 45.6939 8.68324L47.6527 8.8125C47.5533 9.28314 47.3494 9.69413 47.0412 10.0455C46.7363 10.3935 46.3419 10.6652 45.858 10.8608C45.3774 11.053 44.8222 11.1491 44.1925 11.1491ZM51.1974 6.58523V11H49.0795V3.36364H51.098V4.71094H51.1875C51.3565 4.26681 51.6399 3.91548 52.0376 3.65696C52.4354 3.39512 52.9176 3.2642 53.4844 3.2642C54.0147 3.2642 54.477 3.38021 54.8714 3.61222C55.2659 3.84422 55.5724 4.17566 55.7912 4.60653C56.0099 5.03409 56.1193 5.54451 56.1193 6.13778V11H54.0014V6.51562C54.0047 6.0483 53.8854 5.68371 53.6435 5.42188C53.4015 5.15672 53.0684 5.02415 52.6442 5.02415C52.3591 5.02415 52.1072 5.08546 51.8885 5.2081C51.6731 5.33073 51.504 5.50971 51.3814 5.74503C51.2621 5.97704 51.2008 6.2571 51.1974 6.58523ZM62.5463 5.97869V7.65909H57.9029V5.97869H62.5463ZM70.7047 5.54119L68.7658 5.66051C68.7327 5.49479 68.6614 5.34564 68.552 5.21307C68.4426 5.07718 68.2985 4.96946 68.1195 4.88991C67.9438 4.80705 67.7334 4.76562 67.4881 4.76562C67.16 4.76562 66.8832 4.83523 66.6578 4.97443C66.4325 5.11032 66.3198 5.29261 66.3198 5.52131C66.3198 5.7036 66.3927 5.85772 66.5385 5.98366C66.6844 6.10961 66.9346 6.2107 67.2892 6.28693L68.6713 6.56534C69.4138 6.7178 69.9673 6.96307 70.3319 7.30114C70.6964 7.6392 70.8787 8.08333 70.8787 8.63352C70.8787 9.134 70.7312 9.57315 70.4363 9.95099C70.1446 10.3288 69.7435 10.6238 69.2331 10.8359C68.726 11.0447 68.141 11.1491 67.4782 11.1491C66.4673 11.1491 65.6619 10.9387 65.062 10.5178C64.4654 10.0935 64.1157 9.51681 64.013 8.78764L66.0961 8.67827C66.159 8.98651 66.3115 9.22183 66.5534 9.38423C66.7954 9.54332 67.1053 9.62287 67.4831 9.62287C67.8543 9.62287 68.1526 9.55161 68.378 9.40909C68.6067 9.26326 68.7227 9.07599 68.726 8.8473C68.7227 8.65507 68.6415 8.49763 68.4824 8.375C68.3233 8.24905 68.0781 8.15294 67.7466 8.08665L66.4242 7.82315C65.6784 7.67401 65.1233 7.41548 64.7587 7.04759C64.3974 6.67969 64.2168 6.2107 64.2168 5.64062C64.2168 5.15009 64.3494 4.72751 64.6145 4.37287C64.883 4.01823 65.2592 3.74479 65.7431 3.55256C66.2303 3.36032 66.8004 3.2642 67.4533 3.2642C68.4178 3.2642 69.1768 3.46804 69.7303 3.87571C70.2871 4.28338 70.6119 4.83854 70.7047 5.54119ZM75.6626 11.1491C74.8904 11.1491 74.2225 10.9851 73.6591 10.657C73.099 10.3255 72.6664 9.86482 72.3615 9.27486C72.0566 8.68158 71.9041 7.99384 71.9041 7.21165C71.9041 6.42282 72.0566 5.73343 72.3615 5.14347C72.6664 4.55019 73.099 4.08949 73.6591 3.76136C74.2225 3.42992 74.8904 3.2642 75.6626 3.2642C76.4349 3.2642 77.1011 3.42992 77.6612 3.76136C78.2247 4.08949 78.6589 4.55019 78.9638 5.14347C79.2687 5.73343 79.4212 6.42282 79.4212 7.21165C79.4212 7.99384 79.2687 8.68158 78.9638 9.27486C78.6589 9.86482 78.2247 10.3255 77.6612 10.657C77.1011 10.9851 76.4349 11.1491 75.6626 11.1491ZM75.6726 9.50852C76.0239 9.50852 76.3172 9.40909 76.5526 9.21023C76.7879 9.00805 76.9652 8.73295 77.0845 8.38494C77.2071 8.03693 77.2685 7.64086 77.2685 7.19673C77.2685 6.7526 77.2071 6.35653 77.0845 6.00852C76.9652 5.66051 76.7879 5.38542 76.5526 5.18324C76.3172 4.98106 76.0239 4.87997 75.6726 4.87997C75.3179 4.87997 75.0196 4.98106 74.7777 5.18324C74.5391 5.38542 74.3584 5.66051 74.2358 6.00852C74.1165 6.35653 74.0568 6.7526 74.0568 7.19673C74.0568 7.64086 74.1165 8.03693 74.2358 8.38494C74.3584 8.73295 74.5391 9.00805 74.7777 9.21023C75.0196 9.40909 75.3179 9.50852 75.6726 9.50852ZM85.6953 7.74858V3.36364H87.8132V11H85.7798V9.61293H85.7003C85.5279 10.0604 85.2412 10.42 84.8402 10.6918C84.4425 10.9635 83.9569 11.0994 83.3835 11.0994C82.8731 11.0994 82.424 10.9834 82.0362 10.7514C81.6484 10.5194 81.3452 10.1896 81.1264 9.76207C80.911 9.33452 80.8016 8.82244 80.7983 8.22585V3.36364H82.9162V7.84801C82.9195 8.29877 83.0405 8.65507 83.2791 8.9169C83.5178 9.17874 83.8376 9.30966 84.2386 9.30966C84.4938 9.30966 84.7325 9.25166 84.9545 9.13565C85.1766 9.01634 85.3556 8.84067 85.4915 8.60866C85.6307 8.37666 85.6986 8.08996 85.6953 7.74858ZM89.5073 11V3.36364H91.5605V4.69602H91.6401C91.7793 4.22206 92.013 3.86411 92.3411 3.62216C92.6692 3.37689 93.0471 3.25426 93.4746 3.25426C93.5807 3.25426 93.695 3.26089 93.8176 3.27415C93.9403 3.28741 94.048 3.30563 94.1408 3.32883V5.2081C94.0414 5.17827 93.9038 5.15175 93.7282 5.12855C93.5525 5.10535 93.3917 5.09375 93.2459 5.09375C92.9344 5.09375 92.656 5.1617 92.4107 5.29759C92.1687 5.43016 91.9765 5.61577 91.834 5.8544C91.6948 6.09304 91.6252 6.36813 91.6252 6.67969V11H89.5073ZM98.3306 11.1491C97.5484 11.1491 96.8756 10.9834 96.3121 10.652C95.752 10.3172 95.3211 9.85322 95.0195 9.25994C94.7212 8.66667 94.5721 7.9839 94.5721 7.21165C94.5721 6.42945 94.7229 5.74337 95.0245 5.15341C95.3294 4.56013 95.762 4.09777 96.3221 3.76633C96.8822 3.43158 97.5484 3.2642 98.3207 3.2642C98.9869 3.2642 99.5702 3.38518 100.071 3.62713C100.571 3.86908 100.967 4.20881 101.259 4.64631C101.551 5.08381 101.711 5.59754 101.741 6.1875H99.7425C99.6862 5.80634 99.5371 5.49976 99.2951 5.26776C99.0565 5.03243 98.7433 4.91477 98.3555 4.91477C98.0273 4.91477 97.7406 5.00426 97.4954 5.18324C97.2534 5.3589 97.0645 5.61577 96.9286 5.95384C96.7927 6.2919 96.7248 6.70123 96.7248 7.18182C96.7248 7.66903 96.7911 8.08333 96.9237 8.42472C97.0595 8.7661 97.2501 9.02628 97.4954 9.20526C97.7406 9.38423 98.0273 9.47372 98.3555 9.47372C98.5974 9.47372 98.8145 9.42401 99.0067 9.32457C99.2023 9.22514 99.363 9.08097 99.489 8.89205C99.6183 8.69981 99.7028 8.46946 99.7425 8.20099H101.741C101.708 8.78433 101.549 9.29806 101.264 9.74219C100.982 10.183 100.593 10.5277 100.096 10.7763C99.5984 11.0249 99.0101 11.1491 98.3306 11.1491ZM106.577 11.1491C105.792 11.1491 105.116 10.9901 104.549 10.6719C103.985 10.3504 103.551 9.89631 103.246 9.30966C102.941 8.7197 102.789 8.02202 102.789 7.21662C102.789 6.43111 102.941 5.74171 103.246 5.14844C103.551 4.55516 103.98 4.0928 104.534 3.76136C105.091 3.42992 105.744 3.2642 106.493 3.2642C106.997 3.2642 107.465 3.34541 107.9 3.50781C108.337 3.6669 108.718 3.9072 109.043 4.22869C109.371 4.55019 109.626 4.95455 109.809 5.44176C109.991 5.92566 110.082 6.49242 110.082 7.14205V7.72372H103.634V6.41122H108.089C108.089 6.1063 108.022 5.83617 107.89 5.60085C107.757 5.36553 107.573 5.18158 107.338 5.04901C107.106 4.91312 106.836 4.84517 106.528 4.84517C106.206 4.84517 105.921 4.91974 105.672 5.06889C105.427 5.21473 105.235 5.41193 105.096 5.66051C104.956 5.90578 104.885 6.17921 104.882 6.48082V7.72869C104.882 8.10653 104.952 8.433 105.091 8.7081C105.233 8.98319 105.434 9.19531 105.692 9.34446C105.951 9.49361 106.257 9.56818 106.612 9.56818C106.847 9.56818 107.063 9.53504 107.258 9.46875C107.454 9.40246 107.621 9.30303 107.76 9.17045C107.9 9.03788 108.006 8.87547 108.079 8.68324L110.037 8.8125C109.938 9.28314 109.734 9.69413 109.426 10.0455C109.121 10.3935 108.727 10.6652 108.243 10.8608C107.762 11.053 107.207 11.1491 106.577 11.1491ZM113.766 9.60795L113.711 10.1548C113.668 10.5923 113.586 11.0282 113.463 11.4624C113.344 11.8999 113.218 12.2959 113.085 12.6506C112.956 13.0052 112.851 13.2836 112.772 13.4858H111.4C111.449 13.2902 111.517 13.0168 111.604 12.6655C111.69 12.3175 111.771 11.9264 111.847 11.4922C111.923 11.058 111.971 10.6155 111.991 10.1648L112.016 9.60795H113.766ZM120.582 0.818182V11H118.464V0.818182H120.582ZM122.279 11V3.36364H124.397V11H122.279ZM123.343 2.37926C123.028 2.37926 122.758 2.27486 122.532 2.06605C122.31 1.85393 122.199 1.60038 122.199 1.3054C122.199 1.01373 122.31 0.763494 122.532 0.554688C122.758 0.342566 123.028 0.236505 123.343 0.236505C123.658 0.236505 123.926 0.342566 124.148 0.554688C124.373 0.763494 124.486 1.01373 124.486 1.3054C124.486 1.60038 124.373 1.85393 124.148 2.06605C123.926 2.27486 123.658 2.37926 123.343 2.37926ZM129.534 14.0227C128.847 14.0227 128.259 13.9283 127.769 13.7393C127.281 13.5537 126.894 13.3002 126.605 12.9787C126.317 12.6572 126.13 12.2959 126.044 11.8949L128.002 11.6314C128.062 11.7839 128.156 11.9264 128.286 12.0589C128.415 12.1915 128.586 12.2976 128.798 12.3771C129.013 12.46 129.275 12.5014 129.583 12.5014C130.044 12.5014 130.423 12.3887 130.722 12.1634C131.023 11.9413 131.174 11.5684 131.174 11.0447V9.64773H131.085C130.992 9.85985 130.853 10.0604 130.667 10.2493C130.481 10.4382 130.243 10.5923 129.951 10.7116C129.66 10.831 129.311 10.8906 128.907 10.8906C128.334 10.8906 127.812 10.758 127.341 10.4929C126.874 10.2244 126.501 9.8151 126.222 9.26491C125.947 8.71141 125.81 8.01207 125.81 7.1669C125.81 6.30185 125.951 5.57931 126.232 4.99929C126.514 4.41927 126.889 3.98509 127.356 3.69673C127.827 3.40838 128.342 3.2642 128.902 3.2642C129.33 3.2642 129.688 3.33712 129.976 3.48295C130.264 3.62547 130.496 3.80445 130.672 4.01989C130.851 4.23201 130.989 4.44081 131.085 4.64631H131.164V3.36364H133.267V11.0746C133.267 11.7242 133.108 12.2678 132.79 12.7053C132.472 13.1428 132.031 13.4709 131.468 13.6896C130.907 13.9117 130.263 14.0227 129.534 14.0227ZM129.578 9.29972C129.92 9.29972 130.208 9.2152 130.443 9.04616C130.682 8.87382 130.864 8.62855 130.99 8.31037C131.119 7.98887 131.184 7.6044 131.184 7.15696C131.184 6.70952 131.121 6.32173 130.995 5.99361C130.869 5.66217 130.687 5.4053 130.448 5.22301C130.21 5.04072 129.92 4.94957 129.578 4.94957C129.23 4.94957 128.937 5.04403 128.698 5.23295C128.46 5.41856 128.279 5.67708 128.156 6.00852C128.034 6.33996 127.972 6.72277 127.972 7.15696C127.972 7.59777 128.034 7.97893 128.156 8.30043C128.282 8.61861 128.463 8.86553 128.698 9.04119C128.937 9.21354 129.23 9.29972 129.578 9.29972ZM137.07 6.58523V11H134.953V0.818182H137.011V4.71094H137.1C137.273 4.26018 137.551 3.9072 137.936 3.65199C138.32 3.39347 138.802 3.2642 139.382 3.2642C139.913 3.2642 140.375 3.38021 140.769 3.61222C141.167 3.84091 141.475 4.17069 141.694 4.60156C141.916 5.02912 142.026 5.54119 142.022 6.13778V11H139.904V6.51562C139.908 6.04498 139.788 5.67874 139.546 5.4169C139.308 5.15507 138.973 5.02415 138.542 5.02415C138.254 5.02415 137.999 5.08546 137.776 5.2081C137.558 5.33073 137.385 5.50971 137.259 5.74503C137.137 5.97704 137.074 6.2571 137.07 6.58523ZM147.751 3.36364V4.95455H143.152V3.36364H147.751ZM144.196 1.53409H146.314V8.65341C146.314 8.84896 146.344 9.00142 146.403 9.1108C146.463 9.21686 146.546 9.29143 146.652 9.33452C146.761 9.3776 146.887 9.39915 147.03 9.39915C147.129 9.39915 147.229 9.39086 147.328 9.37429C147.428 9.3544 147.504 9.33949 147.557 9.32955L147.89 10.9055C147.784 10.9387 147.635 10.9768 147.442 11.0199C147.25 11.0663 147.017 11.0945 146.741 11.1044C146.231 11.1243 145.784 11.0563 145.399 10.9006C145.018 10.7448 144.721 10.5028 144.509 10.1747C144.297 9.84659 144.193 9.43229 144.196 8.93182V1.53409ZM150.637 11L148.559 3.36364H150.701L151.885 8.49432H151.954L153.187 3.36364H155.29L156.543 8.46449H156.608L157.771 3.36364H159.909L157.836 11H155.593L154.281 6.19744H154.186L152.874 11H150.637ZM164.327 11.1491C163.542 11.1491 162.866 10.9901 162.299 10.6719C161.735 10.3504 161.301 9.89631 160.996 9.30966C160.691 8.7197 160.539 8.02202 160.539 7.21662C160.539 6.43111 160.691 5.74171 160.996 5.14844C161.301 4.55516 161.73 4.0928 162.284 3.76136C162.841 3.42992 163.494 3.2642 164.243 3.2642C164.747 3.2642 165.215 3.34541 165.65 3.50781C166.087 3.6669 166.468 3.9072 166.793 4.22869C167.121 4.55019 167.376 4.95455 167.559 5.44176C167.741 5.92566 167.832 6.49242 167.832 7.14205V7.72372H161.384V6.41122H165.839C165.839 6.1063 165.772 5.83617 165.64 5.60085C165.507 5.36553 165.323 5.18158 165.088 5.04901C164.856 4.91312 164.586 4.84517 164.278 4.84517C163.956 4.84517 163.671 4.91974 163.422 5.06889C163.177 5.21473 162.985 5.41193 162.846 5.66051C162.706 5.90578 162.635 6.17921 162.632 6.48082V7.72869C162.632 8.10653 162.702 8.433 162.841 8.7081C162.983 8.98319 163.184 9.19531 163.442 9.34446C163.701 9.49361 164.007 9.56818 164.362 9.56818C164.597 9.56818 164.813 9.53504 165.008 9.46875C165.204 9.40246 165.371 9.30303 165.51 9.17045C165.65 9.03788 165.756 8.87547 165.829 8.68324L167.787 8.8125C167.688 9.28314 167.484 9.69413 167.176 10.0455C166.871 10.3935 166.477 10.6652 165.993 10.8608C165.512 11.053 164.957 11.1491 164.327 11.1491ZM169.214 11V3.36364H171.332V11H169.214ZM170.278 2.37926C169.963 2.37926 169.693 2.27486 169.468 2.06605C169.246 1.85393 169.135 1.60038 169.135 1.3054C169.135 1.01373 169.246 0.763494 169.468 0.554688C169.693 0.342566 169.963 0.236505 170.278 0.236505C170.593 0.236505 170.862 0.342566 171.084 0.554688C171.309 0.763494 171.422 1.01373 171.422 1.3054C171.422 1.60038 171.309 1.85393 171.084 2.06605C170.862 2.27486 170.593 2.37926 170.278 2.37926ZM176.469 14.0227C175.783 14.0227 175.195 13.9283 174.704 13.7393C174.217 13.5537 173.829 13.3002 173.541 12.9787C173.252 12.6572 173.065 12.2959 172.979 11.8949L174.938 11.6314C174.998 11.7839 175.092 11.9264 175.221 12.0589C175.35 12.1915 175.521 12.2976 175.733 12.3771C175.949 12.46 176.211 12.5014 176.519 12.5014C176.98 12.5014 177.359 12.3887 177.657 12.1634C177.959 11.9413 178.11 11.5684 178.11 11.0447V9.64773H178.02C177.927 9.85985 177.788 10.0604 177.603 10.2493C177.417 10.4382 177.178 10.5923 176.887 10.7116C176.595 10.831 176.247 10.8906 175.843 10.8906C175.269 10.8906 174.747 10.758 174.277 10.4929C173.809 10.2244 173.436 9.8151 173.158 9.26491C172.883 8.71141 172.745 8.01207 172.745 7.1669C172.745 6.30185 172.886 5.57931 173.168 4.99929C173.45 4.41927 173.824 3.98509 174.292 3.69673C174.762 3.40838 175.278 3.2642 175.838 3.2642C176.265 3.2642 176.623 3.33712 176.912 3.48295C177.2 3.62547 177.432 3.80445 177.608 4.01989C177.787 4.23201 177.924 4.44081 178.02 4.64631H178.1V3.36364H180.203V11.0746C180.203 11.7242 180.044 12.2678 179.725 12.7053C179.407 13.1428 178.967 13.4709 178.403 13.6896C177.843 13.9117 177.198 14.0227 176.469 14.0227ZM176.514 9.29972C176.855 9.29972 177.144 9.2152 177.379 9.04616C177.618 8.87382 177.8 8.62855 177.926 8.31037C178.055 7.98887 178.12 7.6044 178.12 7.15696C178.12 6.70952 178.057 6.32173 177.931 5.99361C177.805 5.66217 177.623 5.4053 177.384 5.22301C177.145 5.04072 176.855 4.94957 176.514 4.94957C176.166 4.94957 175.873 5.04403 175.634 5.23295C175.395 5.41856 175.215 5.67708 175.092 6.00852C174.969 6.33996 174.908 6.72277 174.908 7.15696C174.908 7.59777 174.969 7.97893 175.092 8.30043C175.218 8.61861 175.399 8.86553 175.634 9.04119C175.873 9.21354 176.166 9.29972 176.514 9.29972ZM184.006 6.58523V11H181.888V0.818182H183.946V4.71094H184.036C184.208 4.26018 184.487 3.9072 184.871 3.65199C185.256 3.39347 185.738 3.2642 186.318 3.2642C186.848 3.2642 187.31 3.38021 187.705 3.61222C188.103 3.84091 188.411 4.17069 188.63 4.60156C188.852 5.02912 188.961 5.54119 188.958 6.13778V11H186.84V6.51562C186.843 6.04498 186.724 5.67874 186.482 5.4169C186.243 5.15507 185.908 5.02415 185.478 5.02415C185.189 5.02415 184.934 5.08546 184.712 5.2081C184.493 5.33073 184.321 5.50971 184.195 5.74503C184.072 5.97704 184.009 6.2571 184.006 6.58523ZM194.686 3.36364V4.95455H190.088V3.36364H194.686ZM191.132 1.53409H193.249V8.65341C193.249 8.84896 193.279 9.00142 193.339 9.1108C193.399 9.21686 193.481 9.29143 193.588 9.33452C193.697 9.3776 193.823 9.39915 193.965 9.39915C194.065 9.39915 194.164 9.39086 194.264 9.37429C194.363 9.3544 194.439 9.33949 194.492 9.32955L194.825 10.9055C194.719 10.9387 194.57 10.9768 194.378 11.0199C194.186 11.0663 193.952 11.0945 193.677 11.1044C193.167 11.1243 192.719 11.0563 192.335 10.9006C191.954 10.7448 191.657 10.5028 191.445 10.1747C191.233 9.84659 191.128 9.43229 191.132 8.93182V1.53409ZM201.484 11.1442C200.996 11.1442 200.562 11.0597 200.181 10.8906C199.8 10.7183 199.498 10.4647 199.276 10.13C199.058 9.7919 198.948 9.37098 198.948 8.86719C198.948 8.44295 199.026 8.08665 199.182 7.7983C199.338 7.50994 199.55 7.27794 199.818 7.10227C200.087 6.92661 200.392 6.79403 200.733 6.70455C201.078 6.61506 201.439 6.55208 201.817 6.51562C202.261 6.46922 202.619 6.42614 202.891 6.38636C203.162 6.34328 203.36 6.2803 203.482 6.19744C203.605 6.11458 203.666 5.99195 203.666 5.82955V5.79972C203.666 5.48485 203.567 5.24124 203.368 5.06889C203.172 4.89654 202.894 4.81037 202.533 4.81037C202.152 4.81037 201.848 4.89489 201.623 5.06392C201.397 5.22964 201.248 5.43845 201.175 5.69034L199.217 5.53125C199.316 5.06723 199.512 4.66619 199.803 4.32812C200.095 3.98674 200.471 3.7249 200.932 3.54261C201.396 3.35701 201.933 3.2642 202.543 3.2642C202.967 3.2642 203.373 3.31392 203.761 3.41335C204.152 3.51278 204.498 3.6669 204.8 3.87571C205.105 4.08452 205.345 4.35298 205.521 4.68111C205.696 5.00592 205.784 5.39536 205.784 5.84943V11H203.776V9.94105H203.716C203.593 10.1797 203.429 10.3902 203.224 10.5724C203.018 10.7514 202.771 10.8923 202.483 10.995C202.195 11.0945 201.862 11.1442 201.484 11.1442ZM202.09 9.68253C202.402 9.68253 202.677 9.62121 202.915 9.49858C203.154 9.37263 203.341 9.2036 203.477 8.99148C203.613 8.77936 203.681 8.53906 203.681 8.2706V7.46023C203.615 7.50331 203.524 7.54309 203.408 7.57955C203.295 7.61269 203.167 7.64418 203.025 7.67401C202.882 7.70052 202.74 7.72538 202.597 7.74858C202.455 7.76847 202.326 7.78669 202.21 7.80327C201.961 7.83973 201.744 7.89773 201.558 7.97727C201.373 8.05682 201.228 8.16454 201.126 8.30043C201.023 8.433 200.972 8.59872 200.972 8.79759C200.972 9.08594 201.076 9.30634 201.285 9.45881C201.497 9.60795 201.765 9.68253 202.09 9.68253ZM209.545 6.58523V11H207.427V3.36364H209.446V4.71094H209.535C209.704 4.26681 209.988 3.91548 210.385 3.65696C210.783 3.39512 211.265 3.2642 211.832 3.2642C212.362 3.2642 212.825 3.38021 213.219 3.61222C213.614 3.84422 213.92 4.17566 214.139 4.60653C214.358 5.03409 214.467 5.54451 214.467 6.13778V11H212.349V6.51562C212.352 6.0483 212.233 5.68371 211.991 5.42188C211.749 5.15672 211.416 5.02415 210.992 5.02415C210.707 5.02415 210.455 5.08546 210.236 5.2081C210.021 5.33073 209.852 5.50971 209.729 5.74503C209.61 5.97704 209.548 6.2571 209.545 6.58523ZM218.95 11.1243C218.37 11.1243 217.845 10.9751 217.374 10.6768C216.907 10.3752 216.536 9.93277 216.26 9.34943C215.989 8.76278 215.853 8.04356 215.853 7.19176C215.853 6.31676 215.994 5.58925 216.275 5.00923C216.557 4.4259 216.932 3.99006 217.399 3.7017C217.87 3.41004 218.385 3.2642 218.945 3.2642C219.373 3.2642 219.729 3.33712 220.014 3.48295C220.302 3.62547 220.534 3.80445 220.71 4.01989C220.889 4.23201 221.025 4.44081 221.118 4.64631H221.182V0.818182H223.295V11H221.207V9.77699H221.118C221.018 9.98911 220.877 10.1996 220.695 10.4084C220.516 10.6139 220.282 10.7846 219.994 10.9205C219.709 11.0563 219.361 11.1243 218.95 11.1243ZM219.621 9.43892C219.963 9.43892 220.251 9.34612 220.486 9.16051C220.725 8.97159 220.907 8.7081 221.033 8.37003C221.162 8.03196 221.227 7.63589 221.227 7.18182C221.227 6.72775 221.164 6.33333 221.038 5.99858C220.912 5.66383 220.73 5.4053 220.491 5.22301C220.253 5.04072 219.963 4.94957 219.621 4.94957C219.273 4.94957 218.98 5.04403 218.741 5.23295C218.503 5.42187 218.322 5.68371 218.199 6.01847C218.077 6.35322 218.015 6.741 218.015 7.18182C218.015 7.62595 218.077 8.0187 218.199 8.36009C218.325 8.69815 218.506 8.9633 218.741 9.15554C218.98 9.34446 219.273 9.43892 219.621 9.43892ZM228.277 13.8636V3.36364H230.365V4.64631H230.459C230.552 4.44081 230.686 4.23201 230.862 4.01989C231.041 3.80445 231.273 3.62547 231.558 3.48295C231.846 3.33712 232.204 3.2642 232.632 3.2642C233.189 3.2642 233.702 3.41004 234.173 3.7017C234.644 3.99006 235.02 4.4259 235.302 5.00923C235.583 5.58925 235.724 6.31676 235.724 7.19176C235.724 8.04356 235.587 8.76278 235.312 9.34943C235.04 9.93277 234.669 10.3752 234.198 10.6768C233.731 10.9751 233.207 11.1243 232.627 11.1243C232.216 11.1243 231.866 11.0563 231.578 10.9205C231.293 10.7846 231.059 10.6139 230.877 10.4084C230.695 10.1996 230.555 9.98911 230.459 9.77699H230.395V13.8636H228.277ZM230.35 7.18182C230.35 7.63589 230.413 8.03196 230.539 8.37003C230.665 8.7081 230.847 8.97159 231.086 9.16051C231.324 9.34612 231.614 9.43892 231.956 9.43892C232.3 9.43892 232.592 9.34446 232.831 9.15554C233.069 8.9633 233.25 8.69815 233.373 8.36009C233.499 8.0187 233.562 7.62595 233.562 7.18182C233.562 6.741 233.5 6.35322 233.378 6.01847C233.255 5.68371 233.074 5.42187 232.836 5.23295C232.597 5.04403 232.304 4.94957 231.956 4.94957C231.611 4.94957 231.319 5.04072 231.081 5.22301C230.845 5.4053 230.665 5.66383 230.539 5.99858C230.413 6.33333 230.35 6.72775 230.35 7.18182ZM237.136 11V3.36364H239.189V4.69602H239.269C239.408 4.22206 239.642 3.86411 239.97 3.62216C240.298 3.37689 240.676 3.25426 241.104 3.25426C241.21 3.25426 241.324 3.26089 241.447 3.27415C241.569 3.28741 241.677 3.30563 241.77 3.32883V5.2081C241.67 5.17827 241.533 5.15175 241.357 5.12855C241.181 5.10535 241.021 5.09375 240.875 5.09375C240.563 5.09375 240.285 5.1617 240.04 5.29759C239.798 5.43016 239.605 5.61577 239.463 5.8544C239.324 6.09304 239.254 6.36813 239.254 6.67969V11H237.136ZM242.865 11V3.36364H244.983V11H242.865ZM243.929 2.37926C243.614 2.37926 243.344 2.27486 243.118 2.06605C242.896 1.85393 242.785 1.60038 242.785 1.3054C242.785 1.01373 242.896 0.763494 243.118 0.554688C243.344 0.342566 243.614 0.236505 243.929 0.236505C244.243 0.236505 244.512 0.342566 244.734 0.554688C244.959 0.763494 245.072 1.01373 245.072 1.3054C245.072 1.60038 244.959 1.85393 244.734 2.06605C244.512 2.27486 244.243 2.37926 243.929 2.37926ZM253.798 3.36364L251.129 11H248.742L246.073 3.36364H248.31L249.896 8.82741H249.975L251.556 3.36364H253.798ZM256.855 11.1442C256.368 11.1442 255.933 11.0597 255.552 10.8906C255.171 10.7183 254.869 10.4647 254.647 10.13C254.429 9.7919 254.319 9.37098 254.319 8.86719C254.319 8.44295 254.397 8.08665 254.553 7.7983C254.709 7.50994 254.921 7.27794 255.189 7.10227C255.458 6.92661 255.763 6.79403 256.104 6.70455C256.449 6.61506 256.81 6.55208 257.188 6.51562C257.632 6.46922 257.99 6.42614 258.262 6.38636C258.533 6.34328 258.731 6.2803 258.853 6.19744C258.976 6.11458 259.037 5.99195 259.037 5.82955V5.79972C259.037 5.48485 258.938 5.24124 258.739 5.06889C258.543 4.89654 258.265 4.81037 257.904 4.81037C257.523 4.81037 257.219 4.89489 256.994 5.06392C256.769 5.22964 256.619 5.43845 256.547 5.69034L254.588 5.53125C254.687 5.06723 254.883 4.66619 255.174 4.32812C255.466 3.98674 255.842 3.7249 256.303 3.54261C256.767 3.35701 257.304 3.2642 257.914 3.2642C258.338 3.2642 258.744 3.31392 259.132 3.41335C259.523 3.51278 259.869 3.6669 260.171 3.87571C260.476 4.08452 260.716 4.35298 260.892 4.68111C261.067 5.00592 261.155 5.39536 261.155 5.84943V11H259.147V9.94105H259.087C258.964 10.1797 258.8 10.3902 258.595 10.5724C258.389 10.7514 258.142 10.8923 257.854 10.995C257.566 11.0945 257.233 11.1442 256.855 11.1442ZM257.461 9.68253C257.773 9.68253 258.048 9.62121 258.287 9.49858C258.525 9.37263 258.712 9.2036 258.848 8.99148C258.984 8.77936 259.052 8.53906 259.052 8.2706V7.46023C258.986 7.50331 258.895 7.54309 258.779 7.57955C258.666 7.61269 258.538 7.64418 258.396 7.67401C258.253 7.70052 258.111 7.72538 257.968 7.74858C257.826 7.76847 257.697 7.78669 257.581 7.80327C257.332 7.83973 257.115 7.89773 256.929 7.97727C256.744 8.05682 256.6 8.16454 256.497 8.30043C256.394 8.433 256.343 8.59872 256.343 8.79759C256.343 9.08594 256.447 9.30634 256.656 9.45881C256.868 9.60795 257.136 9.68253 257.461 9.68253ZM266.249 11.1491C265.466 11.1491 264.794 10.9834 264.23 10.652C263.67 10.3172 263.239 9.85322 262.938 9.25994C262.639 8.66667 262.49 7.9839 262.49 7.21165C262.49 6.42945 262.641 5.74337 262.942 5.15341C263.247 4.56013 263.68 4.09777 264.24 3.76633C264.8 3.43158 265.466 3.2642 266.239 3.2642C266.905 3.2642 267.488 3.38518 267.989 3.62713C268.489 3.86908 268.885 4.20881 269.177 4.64631C269.469 5.08381 269.629 5.59754 269.659 6.1875H267.661C267.604 5.80634 267.455 5.49976 267.213 5.26776C266.974 5.03243 266.661 4.91477 266.273 4.91477C265.945 4.91477 265.659 5.00426 265.413 5.18324C265.171 5.3589 264.982 5.61577 264.847 5.95384C264.711 6.2919 264.643 6.70123 264.643 7.18182C264.643 7.66903 264.709 8.08333 264.842 8.42472C264.978 8.7661 265.168 9.02628 265.413 9.20526C265.659 9.38423 265.945 9.47372 266.273 9.47372C266.515 9.47372 266.732 9.42401 266.925 9.32457C267.12 9.22514 267.281 9.08097 267.407 8.89205C267.536 8.69981 267.621 8.46946 267.661 8.20099H269.659C269.626 8.78433 269.467 9.29806 269.182 9.74219C268.9 10.183 268.511 10.5277 268.013 10.7763C267.516 11.0249 266.928 11.1491 266.249 11.1491ZM272.323 13.8636C272.054 13.8636 271.802 13.8421 271.567 13.799C271.335 13.7592 271.143 13.7079 270.99 13.6449L271.468 12.0639C271.716 12.1402 271.94 12.1816 272.139 12.1882C272.341 12.1948 272.515 12.1484 272.661 12.049C272.81 11.9496 272.931 11.7805 273.024 11.5419L273.148 11.2188L270.409 3.36364H272.636L274.217 8.97159H274.296L275.892 3.36364H278.134L275.166 11.8253C275.024 12.2363 274.83 12.5942 274.585 12.8991C274.343 13.2074 274.036 13.4444 273.665 13.6101C273.294 13.7791 272.846 13.8636 272.323 13.8636ZM283.976 5.97869V7.65909H279.333V5.97869H283.976ZM289.887 3.36364V4.95455H285.174V3.36364H289.887ZM286.253 11V2.81179C286.253 2.25829 286.361 1.79924 286.576 1.43466C286.795 1.07008 287.093 0.796638 287.471 0.614346C287.849 0.432054 288.278 0.340908 288.759 0.340908C289.084 0.340908 289.38 0.365767 289.649 0.415483C289.92 0.465199 290.123 0.509943 290.255 0.549716L289.877 2.14062C289.794 2.11411 289.692 2.08925 289.569 2.06605C289.45 2.04285 289.327 2.03125 289.201 2.03125C288.89 2.03125 288.673 2.10417 288.55 2.25C288.427 2.39252 288.366 2.59304 288.366 2.85156V11H286.253ZM294.358 11.1491C293.586 11.1491 292.918 10.9851 292.354 10.657C291.794 10.3255 291.362 9.86482 291.057 9.27486C290.752 8.68158 290.599 7.99384 290.599 7.21165C290.599 6.42282 290.752 5.73343 291.057 5.14347C291.362 4.55019 291.794 4.08949 292.354 3.76136C292.918 3.42992 293.586 3.2642 294.358 3.2642C295.13 3.2642 295.796 3.42992 296.357 3.76136C296.92 4.08949 297.354 4.55019 297.659 5.14347C297.964 5.73343 298.116 6.42282 298.116 7.21165C298.116 7.99384 297.964 8.68158 297.659 9.27486C297.354 9.86482 296.92 10.3255 296.357 10.657C295.796 10.9851 295.13 11.1491 294.358 11.1491ZM294.368 9.50852C294.719 9.50852 295.013 9.40909 295.248 9.21023C295.483 9.00805 295.661 8.73295 295.78 8.38494C295.902 8.03693 295.964 7.64086 295.964 7.19673C295.964 6.7526 295.902 6.35653 295.78 6.00852C295.661 5.66051 295.483 5.38542 295.248 5.18324C295.013 4.98106 294.719 4.87997 294.368 4.87997C294.013 4.87997 293.715 4.98106 293.473 5.18324C293.234 5.38542 293.054 5.66051 292.931 6.00852C292.812 6.35653 292.752 6.7526 292.752 7.19673C292.752 7.64086 292.812 8.03693 292.931 8.38494C293.054 8.73295 293.234 9.00805 293.473 9.21023C293.715 9.40909 294.013 9.50852 294.368 9.50852ZM302.944 11.1491C302.162 11.1491 301.489 10.9834 300.925 10.652C300.365 10.3172 299.934 9.85322 299.633 9.25994C299.335 8.66667 299.185 7.9839 299.185 7.21165C299.185 6.42945 299.336 5.74337 299.638 5.15341C299.943 4.56013 300.375 4.09777 300.935 3.76633C301.496 3.43158 302.162 3.2642 302.934 3.2642C303.6 3.2642 304.183 3.38518 304.684 3.62713C305.184 3.86908 305.58 4.20881 305.872 4.64631C306.164 5.08381 306.325 5.59754 306.354 6.1875H304.356C304.299 5.80634 304.15 5.49976 303.908 5.26776C303.67 5.03243 303.357 4.91477 302.969 4.91477C302.641 4.91477 302.354 5.00426 302.109 5.18324C301.867 5.3589 301.678 5.61577 301.542 5.95384C301.406 6.2919 301.338 6.70123 301.338 7.18182C301.338 7.66903 301.404 8.08333 301.537 8.42472C301.673 8.7661 301.863 9.02628 302.109 9.20526C302.354 9.38423 302.641 9.47372 302.969 9.47372C303.211 9.47372 303.428 9.42401 303.62 9.32457C303.816 9.22514 303.976 9.08097 304.102 8.89205C304.232 8.69981 304.316 8.46946 304.356 8.20099H306.354C306.321 8.78433 306.162 9.29806 305.877 9.74219C305.595 10.183 305.206 10.5277 304.709 10.7763C304.212 11.0249 303.623 11.1491 302.944 11.1491ZM312.607 7.74858V3.36364H314.725V11H312.692V9.61293H312.612C312.44 10.0604 312.153 10.42 311.752 10.6918C311.355 10.9635 310.869 11.0994 310.296 11.0994C309.785 11.0994 309.336 10.9834 308.948 10.7514C308.561 10.5194 308.257 10.1896 308.039 9.76207C307.823 9.33452 307.714 8.82244 307.71 8.22585V3.36364H309.828V7.84801C309.832 8.29877 309.953 8.65507 310.191 8.9169C310.43 9.17874 310.75 9.30966 311.151 9.30966C311.406 9.30966 311.645 9.25166 311.867 9.13565C312.089 9.01634 312.268 8.84067 312.404 8.60866C312.543 8.37666 312.611 8.08996 312.607 7.74858ZM322.773 5.54119L320.834 5.66051C320.801 5.49479 320.73 5.34564 320.62 5.21307C320.511 5.07718 320.367 4.96946 320.188 4.88991C320.012 4.80705 319.802 4.76562 319.556 4.76562C319.228 4.76562 318.952 4.83523 318.726 4.97443C318.501 5.11032 318.388 5.29261 318.388 5.52131C318.388 5.7036 318.461 5.85772 318.607 5.98366C318.753 6.10961 319.003 6.2107 319.358 6.28693L320.74 6.56534C321.482 6.7178 322.036 6.96307 322.4 7.30114C322.765 7.6392 322.947 8.08333 322.947 8.63352C322.947 9.134 322.8 9.57315 322.505 9.95099C322.213 10.3288 321.812 10.6238 321.301 10.8359C320.794 11.0447 320.209 11.1491 319.547 11.1491C318.536 11.1491 317.73 10.9387 317.13 10.5178C316.534 10.0935 316.184 9.51681 316.081 8.78764L318.164 8.67827C318.227 8.98651 318.38 9.22183 318.622 9.38423C318.864 9.54332 319.174 9.62287 319.551 9.62287C319.923 9.62287 320.221 9.55161 320.446 9.40909C320.675 9.26326 320.791 9.07599 320.794 8.8473C320.791 8.65507 320.71 8.49763 320.551 8.375C320.392 8.24905 320.146 8.15294 319.815 8.08665L318.493 7.82315C317.747 7.67401 317.192 7.41548 316.827 7.04759C316.466 6.67969 316.285 6.2107 316.285 5.64062C316.285 5.15009 316.418 4.72751 316.683 4.37287C316.951 4.01823 317.328 3.74479 317.811 3.55256C318.299 3.36032 318.869 3.2642 319.522 3.2642C320.486 3.2642 321.245 3.46804 321.799 3.87571C322.355 4.28338 322.68 4.83854 322.773 5.54119ZM327.761 11.1491C326.975 11.1491 326.299 10.9901 325.732 10.6719C325.169 10.3504 324.735 9.89631 324.43 9.30966C324.125 8.7197 323.972 8.02202 323.972 7.21662C323.972 6.43111 324.125 5.74171 324.43 5.14844C324.735 4.55516 325.164 4.0928 325.718 3.76136C326.274 3.42992 326.927 3.2642 327.676 3.2642C328.18 3.2642 328.649 3.34541 329.083 3.50781C329.521 3.6669 329.902 3.9072 330.227 4.22869C330.555 4.55019 330.81 4.95455 330.992 5.44176C331.175 5.92566 331.266 6.49242 331.266 7.14205V7.72372H324.818V6.41122H329.272C329.272 6.1063 329.206 5.83617 329.073 5.60085C328.941 5.36553 328.757 5.18158 328.521 5.04901C328.289 4.91312 328.019 4.84517 327.711 4.84517C327.39 4.84517 327.105 4.91974 326.856 5.06889C326.611 5.21473 326.419 5.41193 326.279 5.66051C326.14 5.90578 326.069 6.17921 326.066 6.48082V7.72869C326.066 8.10653 326.135 8.433 326.274 8.7081C326.417 8.98319 326.617 9.19531 326.876 9.34446C327.134 9.49361 327.441 9.56818 327.796 9.56818C328.031 9.56818 328.246 9.53504 328.442 9.46875C328.637 9.40246 328.805 9.30303 328.944 9.17045C329.083 9.03788 329.189 8.87547 329.262 8.68324L331.221 8.8125C331.122 9.28314 330.918 9.69413 330.61 10.0455C330.305 10.3935 329.91 10.6652 329.426 10.8608C328.946 11.053 328.391 11.1491 327.761 11.1491ZM335.462 11.1243C334.882 11.1243 334.356 10.9751 333.886 10.6768C333.419 10.3752 333.047 9.93277 332.772 9.34943C332.5 8.76278 332.365 8.04356 332.365 7.19176C332.365 6.31676 332.505 5.58925 332.787 5.00923C333.069 4.4259 333.443 3.99006 333.911 3.7017C334.381 3.41004 334.897 3.2642 335.457 3.2642C335.884 3.2642 336.241 3.33712 336.526 3.48295C336.814 3.62547 337.046 3.80445 337.222 4.01989C337.401 4.23201 337.537 4.44081 337.629 4.64631H337.694V0.818182H339.807V11H337.719V9.77699H337.629C337.53 9.98911 337.389 10.1996 337.207 10.4084C337.028 10.6139 336.794 10.7846 336.506 10.9205C336.221 11.0563 335.873 11.1243 335.462 11.1243ZM336.133 9.43892C336.474 9.43892 336.763 9.34612 336.998 9.16051C337.237 8.97159 337.419 8.7081 337.545 8.37003C337.674 8.03196 337.739 7.63589 337.739 7.18182C337.739 6.72775 337.676 6.33333 337.55 5.99858C337.424 5.66383 337.242 5.4053 337.003 5.22301C336.764 5.04072 336.474 4.94957 336.133 4.94957C335.785 4.94957 335.492 5.04403 335.253 5.23295C335.014 5.42187 334.834 5.68371 334.711 6.01847C334.588 6.35322 334.527 6.741 334.527 7.18182C334.527 7.62595 334.588 8.0187 334.711 8.36009C334.837 8.69815 335.018 8.9633 335.253 9.15554C335.492 9.34446 335.785 9.43892 336.133 9.43892ZM344.828 11V0.818182H348.905C349.654 0.818182 350.279 0.929214 350.779 1.15128C351.28 1.37334 351.656 1.68158 351.908 2.07599C352.16 2.46709 352.286 2.91785 352.286 3.42827C352.286 3.82599 352.206 4.17566 352.047 4.47727C351.888 4.77557 351.669 5.02083 351.391 5.21307C351.116 5.40199 350.801 5.53622 350.446 5.61577V5.7152C350.834 5.73177 351.197 5.84115 351.535 6.04332C351.876 6.2455 352.153 6.52888 352.365 6.89347C352.577 7.25473 352.683 7.68561 352.683 8.18608C352.683 8.72633 352.549 9.20857 352.281 9.63281C352.016 10.0537 351.623 10.3868 351.102 10.6321C350.582 10.8774 349.941 11 349.178 11H344.828ZM346.981 9.24006H348.736C349.336 9.24006 349.773 9.12571 350.048 8.89702C350.324 8.66501 350.461 8.35677 350.461 7.9723C350.461 7.69058 350.393 7.442 350.257 7.22656C350.121 7.01113 349.927 6.84209 349.676 6.71946C349.427 6.59683 349.13 6.53551 348.786 6.53551H346.981V9.24006ZM346.981 5.07884H348.577C348.872 5.07884 349.134 5.02746 349.362 4.92472C349.594 4.81866 349.777 4.66951 349.909 4.47727C350.045 4.28504 350.113 4.05469 350.113 3.78622C350.113 3.41832 349.982 3.12169 349.72 2.89631C349.462 2.67093 349.094 2.55824 348.617 2.55824H346.981V5.07884ZM357.525 11.1491C356.739 11.1491 356.063 10.9901 355.496 10.6719C354.933 10.3504 354.498 9.89631 354.194 9.30966C353.889 8.7197 353.736 8.02202 353.736 7.21662C353.736 6.43111 353.889 5.74171 354.194 5.14844C354.498 4.55516 354.928 4.0928 355.481 3.76136C356.038 3.42992 356.691 3.2642 357.44 3.2642C357.944 3.2642 358.413 3.34541 358.847 3.50781C359.284 3.6669 359.666 3.9072 359.99 4.22869C360.319 4.55019 360.574 4.95455 360.756 5.44176C360.938 5.92566 361.029 6.49242 361.029 7.14205V7.72372H354.581V6.41122H359.036C359.036 6.1063 358.97 5.83617 358.837 5.60085C358.704 5.36553 358.52 5.18158 358.285 5.04901C358.053 4.91312 357.783 4.84517 357.475 4.84517C357.153 4.84517 356.868 4.91974 356.62 5.06889C356.374 5.21473 356.182 5.41193 356.043 5.66051C355.904 5.90578 355.833 6.17921 355.829 6.48082V7.72869C355.829 8.10653 355.899 8.433 356.038 8.7081C356.181 8.98319 356.381 9.19531 356.64 9.34446C356.898 9.49361 357.205 9.56818 357.559 9.56818C357.795 9.56818 358.01 9.53504 358.206 9.46875C358.401 9.40246 358.569 9.30303 358.708 9.17045C358.847 9.03788 358.953 8.87547 359.026 8.68324L360.985 8.8125C360.885 9.28314 360.681 9.69413 360.373 10.0455C360.068 10.3935 359.674 10.6652 359.19 10.8608C358.709 11.053 358.154 11.1491 357.525 11.1491ZM362.451 11V0.818182H366.468C367.237 0.818182 367.894 0.955729 368.437 1.23082C368.984 1.5026 369.4 1.88873 369.685 2.3892C369.973 2.88636 370.118 3.47135 370.118 4.14418C370.118 4.82031 369.972 5.40199 369.68 5.8892C369.388 6.37311 368.966 6.74432 368.412 7.00284C367.862 7.26136 367.196 7.39062 366.414 7.39062H363.724V5.66051H366.066C366.477 5.66051 366.818 5.60417 367.09 5.49148C367.362 5.37879 367.564 5.20975 367.696 4.98438C367.832 4.759 367.9 4.47893 367.9 4.14418C367.9 3.80611 367.832 3.52107 367.696 3.28906C367.564 3.05705 367.36 2.88139 367.085 2.76207C366.813 2.63944 366.47 2.57812 366.056 2.57812H364.604V11H362.451ZM367.95 6.36648L370.48 11H368.104L365.628 6.36648H367.95ZM374.956 11.1491C374.171 11.1491 373.494 10.9901 372.928 10.6719C372.364 10.3504 371.93 9.89631 371.625 9.30966C371.32 8.7197 371.168 8.02202 371.168 7.21662C371.168 6.43111 371.32 5.74171 371.625 5.14844C371.93 4.55516 372.359 4.0928 372.913 3.76136C373.47 3.42992 374.123 3.2642 374.872 3.2642C375.375 3.2642 375.844 3.34541 376.279 3.50781C376.716 3.6669 377.097 3.9072 377.422 4.22869C377.75 4.55019 378.005 4.95455 378.188 5.44176C378.37 5.92566 378.461 6.49242 378.461 7.14205V7.72372H372.013V6.41122H376.468C376.468 6.1063 376.401 5.83617 376.269 5.60085C376.136 5.36553 375.952 5.18158 375.717 5.04901C375.485 4.91312 375.215 4.84517 374.906 4.84517C374.585 4.84517 374.3 4.91974 374.051 5.06889C373.806 5.21473 373.614 5.41193 373.475 5.66051C373.335 5.90578 373.264 6.17921 373.261 6.48082V7.72869C373.261 8.10653 373.33 8.433 373.47 8.7081C373.612 8.98319 373.813 9.19531 374.071 9.34446C374.33 9.49361 374.636 9.56818 374.991 9.56818C375.226 9.56818 375.442 9.53504 375.637 9.46875C375.833 9.40246 376 9.30303 376.139 9.17045C376.279 9.03788 376.385 8.87547 376.458 8.68324L378.416 8.8125C378.317 9.28314 378.113 9.69413 377.805 10.0455C377.5 10.3935 377.106 10.6652 376.622 10.8608C376.141 11.053 375.586 11.1491 374.956 11.1491ZM382.021 11.1442C381.534 11.1442 381.099 11.0597 380.718 10.8906C380.337 10.7183 380.035 10.4647 379.813 10.13C379.595 9.7919 379.485 9.37098 379.485 8.86719C379.485 8.44295 379.563 8.08665 379.719 7.7983C379.875 7.50994 380.087 7.27794 380.355 7.10227C380.624 6.92661 380.929 6.79403 381.27 6.70455C381.615 6.61506 381.976 6.55208 382.354 6.51562C382.798 6.46922 383.156 6.42614 383.428 6.38636C383.7 6.34328 383.897 6.2803 384.019 6.19744C384.142 6.11458 384.203 5.99195 384.203 5.82955V5.79972C384.203 5.48485 384.104 5.24124 383.905 5.06889C383.709 4.89654 383.431 4.81037 383.07 4.81037C382.689 4.81037 382.385 4.89489 382.16 5.06392C381.935 5.22964 381.785 5.43845 381.713 5.69034L379.754 5.53125C379.853 5.06723 380.049 4.66619 380.34 4.32812C380.632 3.98674 381.008 3.7249 381.469 3.54261C381.933 3.35701 382.47 3.2642 383.08 3.2642C383.504 3.2642 383.91 3.31392 384.298 3.41335C384.689 3.51278 385.035 3.6669 385.337 3.87571C385.642 4.08452 385.882 4.35298 386.058 4.68111C386.233 5.00592 386.321 5.39536 386.321 5.84943V11H384.313V9.94105H384.253C384.13 10.1797 383.966 10.3902 383.761 10.5724C383.555 10.7514 383.308 10.8923 383.02 10.995C382.732 11.0945 382.399 11.1442 382.021 11.1442ZM382.627 9.68253C382.939 9.68253 383.214 9.62121 383.453 9.49858C383.691 9.37263 383.878 9.2036 384.014 8.99148C384.15 8.77936 384.218 8.53906 384.218 8.2706V7.46023C384.152 7.50331 384.061 7.54309 383.945 7.57955C383.832 7.61269 383.704 7.64418 383.562 7.67401C383.419 7.70052 383.277 7.72538 383.134 7.74858C382.992 7.76847 382.863 7.78669 382.747 7.80327C382.498 7.83973 382.281 7.89773 382.095 7.97727C381.91 8.05682 381.766 8.16454 381.663 8.30043C381.56 8.433 381.509 8.59872 381.509 8.79759C381.509 9.08594 381.613 9.30634 381.822 9.45881C382.034 9.60795 382.302 9.68253 382.627 9.68253ZM390.082 0.818182V11H387.964V0.818182H390.082ZM397.197 11.1442C396.709 11.1442 396.275 11.0597 395.894 10.8906C395.513 10.7183 395.211 10.4647 394.989 10.13C394.77 9.7919 394.661 9.37098 394.661 8.86719C394.661 8.44295 394.739 8.08665 394.895 7.7983C395.05 7.50994 395.263 7.27794 395.531 7.10227C395.8 6.92661 396.104 6.79403 396.446 6.70455C396.791 6.61506 397.152 6.55208 397.53 6.51562C397.974 6.46922 398.332 6.42614 398.604 6.38636C398.875 6.34328 399.073 6.2803 399.195 6.19744C399.318 6.11458 399.379 5.99195 399.379 5.82955V5.79972C399.379 5.48485 399.28 5.24124 399.081 5.06889C398.885 4.89654 398.607 4.81037 398.246 4.81037C397.864 4.81037 397.561 4.89489 397.336 5.06392C397.11 5.22964 396.961 5.43845 396.888 5.69034L394.93 5.53125C395.029 5.06723 395.224 4.66619 395.516 4.32812C395.808 3.98674 396.184 3.7249 396.645 3.54261C397.109 3.35701 397.646 3.2642 398.256 3.2642C398.68 3.2642 399.086 3.31392 399.474 3.41335C399.865 3.51278 400.211 3.6669 400.513 3.87571C400.818 4.08452 401.058 4.35298 401.233 4.68111C401.409 5.00592 401.497 5.39536 401.497 5.84943V11H399.488V9.94105H399.429C399.306 10.1797 399.142 10.3902 398.937 10.5724C398.731 10.7514 398.484 10.8923 398.196 10.995C397.907 11.0945 397.574 11.1442 397.197 11.1442ZM397.803 9.68253C398.115 9.68253 398.39 9.62121 398.628 9.49858C398.867 9.37263 399.054 9.2036 399.19 8.99148C399.326 8.77936 399.394 8.53906 399.394 8.2706V7.46023C399.328 7.50331 399.237 7.54309 399.121 7.57955C399.008 7.61269 398.88 7.64418 398.738 7.67401C398.595 7.70052 398.453 7.72538 398.31 7.74858C398.168 7.76847 398.038 7.78669 397.922 7.80327C397.674 7.83973 397.457 7.89773 397.271 7.97727C397.086 8.05682 396.941 8.16454 396.839 8.30043C396.736 8.433 396.684 8.59872 396.684 8.79759C396.684 9.08594 396.789 9.30634 396.998 9.45881C397.21 9.60795 397.478 9.68253 397.803 9.68253ZM405.258 0.818182V11H403.14V0.818182H405.258ZM411.016 3.36364V4.95455H406.418V3.36364H411.016ZM407.462 1.53409H409.58V8.65341C409.58 8.84896 409.609 9.00142 409.669 9.1108C409.729 9.21686 409.812 9.29143 409.918 9.33452C410.027 9.3776 410.153 9.39915 410.295 9.39915C410.395 9.39915 410.494 9.39086 410.594 9.37429C410.693 9.3544 410.769 9.33949 410.822 9.32955L411.156 10.9055C411.049 10.9387 410.9 10.9768 410.708 11.0199C410.516 11.0663 410.282 11.0945 410.007 11.1044C409.497 11.1243 409.049 11.0563 408.665 10.9006C408.284 10.7448 407.987 10.5028 407.775 10.1747C407.563 9.84659 407.458 9.43229 407.462 8.93182V1.53409ZM415.794 11.1491C415.009 11.1491 414.332 10.9901 413.766 10.6719C413.202 10.3504 412.768 9.89631 412.463 9.30966C412.158 8.7197 412.006 8.02202 412.006 7.21662C412.006 6.43111 412.158 5.74171 412.463 5.14844C412.768 4.55516 413.197 4.0928 413.751 3.76136C414.308 3.42992 414.96 3.2642 415.71 3.2642C416.213 3.2642 416.682 3.34541 417.116 3.50781C417.554 3.6669 417.935 3.9072 418.26 4.22869C418.588 4.55019 418.843 4.95455 419.026 5.44176C419.208 5.92566 419.299 6.49242 419.299 7.14205V7.72372H412.851V6.41122H417.305C417.305 6.1063 417.239 5.83617 417.107 5.60085C416.974 5.36553 416.79 5.18158 416.555 5.04901C416.323 4.91312 416.053 4.84517 415.744 4.84517C415.423 4.84517 415.138 4.91974 414.889 5.06889C414.644 5.21473 414.452 5.41193 414.312 5.66051C414.173 5.90578 414.102 6.17921 414.099 6.48082V7.72869C414.099 8.10653 414.168 8.433 414.308 8.7081C414.45 8.98319 414.651 9.19531 414.909 9.34446C415.168 9.49361 415.474 9.56818 415.829 9.56818C416.064 9.56818 416.28 9.53504 416.475 9.46875C416.671 9.40246 416.838 9.30303 416.977 9.17045C417.116 9.03788 417.223 8.87547 417.295 8.68324L419.254 8.8125C419.155 9.28314 418.951 9.69413 418.643 10.0455C418.338 10.3935 417.943 10.6652 417.46 10.8608C416.979 11.053 416.424 11.1491 415.794 11.1491ZM420.681 11V3.36364H422.734V4.69602H422.814C422.953 4.22206 423.187 3.86411 423.515 3.62216C423.843 3.37689 424.221 3.25426 424.648 3.25426C424.754 3.25426 424.869 3.26089 424.991 3.27415C425.114 3.28741 425.222 3.30563 425.315 3.32883V5.2081C425.215 5.17827 425.078 5.15175 424.902 5.12855C424.726 5.10535 424.566 5.09375 424.42 5.09375C424.108 5.09375 423.83 5.1617 423.585 5.29759C423.343 5.43016 423.15 5.61577 423.008 5.8544C422.869 6.09304 422.799 6.36813 422.799 6.67969V11H420.681ZM428.528 6.58523V11H426.41V3.36364H428.428V4.71094H428.518C428.687 4.26681 428.97 3.91548 429.368 3.65696C429.765 3.39512 430.248 3.2642 430.814 3.2642C431.345 3.2642 431.807 3.38021 432.202 3.61222C432.596 3.84422 432.903 4.17566 433.121 4.60653C433.34 5.03409 433.449 5.54451 433.449 6.13778V11H431.331V6.51562C431.335 6.0483 431.215 5.68371 430.974 5.42188C430.732 5.15672 430.398 5.02415 429.974 5.02415C429.689 5.02415 429.437 5.08546 429.219 5.2081C429.003 5.33073 428.834 5.50971 428.711 5.74503C428.592 5.97704 428.531 6.2571 428.528 6.58523ZM437.296 11.1442C436.809 11.1442 436.375 11.0597 435.994 10.8906C435.612 10.7183 435.311 10.4647 435.089 10.13C434.87 9.7919 434.761 9.37098 434.761 8.86719C434.761 8.44295 434.839 8.08665 434.994 7.7983C435.15 7.50994 435.362 7.27794 435.631 7.10227C435.899 6.92661 436.204 6.79403 436.545 6.70455C436.89 6.61506 437.251 6.55208 437.629 6.51562C438.073 6.46922 438.431 6.42614 438.703 6.38636C438.975 6.34328 439.172 6.2803 439.295 6.19744C439.417 6.11458 439.479 5.99195 439.479 5.82955V5.79972C439.479 5.48485 439.379 5.24124 439.18 5.06889C438.985 4.89654 438.706 4.81037 438.345 4.81037C437.964 4.81037 437.661 4.89489 437.435 5.06392C437.21 5.22964 437.061 5.43845 436.988 5.69034L435.029 5.53125C435.129 5.06723 435.324 4.66619 435.616 4.32812C435.907 3.98674 436.284 3.7249 436.744 3.54261C437.208 3.35701 437.745 3.2642 438.355 3.2642C438.779 3.2642 439.185 3.31392 439.573 3.41335C439.964 3.51278 440.311 3.6669 440.612 3.87571C440.917 4.08452 441.157 4.35298 441.333 4.68111C441.509 5.00592 441.597 5.39536 441.597 5.84943V11H439.588V9.94105H439.528C439.406 10.1797 439.242 10.3902 439.036 10.5724C438.831 10.7514 438.584 10.8923 438.295 10.995C438.007 11.0945 437.674 11.1442 437.296 11.1442ZM437.903 9.68253C438.214 9.68253 438.489 9.62121 438.728 9.49858C438.967 9.37263 439.154 9.2036 439.29 8.99148C439.426 8.77936 439.494 8.53906 439.494 8.2706V7.46023C439.427 7.50331 439.336 7.54309 439.22 7.57955C439.107 7.61269 438.98 7.64418 438.837 7.67401C438.695 7.70052 438.552 7.72538 438.41 7.74858C438.267 7.76847 438.138 7.78669 438.022 7.80327C437.773 7.83973 437.556 7.89773 437.371 7.97727C437.185 8.05682 437.041 8.16454 436.938 8.30043C436.835 8.433 436.784 8.59872 436.784 8.79759C436.784 9.08594 436.888 9.30634 437.097 9.45881C437.309 9.60795 437.578 9.68253 437.903 9.68253ZM447.301 3.36364V4.95455H442.703V3.36364H447.301ZM443.747 1.53409H445.865V8.65341C445.865 8.84896 445.895 9.00142 445.954 9.1108C446.014 9.21686 446.097 9.29143 446.203 9.33452C446.312 9.3776 446.438 9.39915 446.581 9.39915C446.68 9.39915 446.779 9.39086 446.879 9.37429C446.978 9.3544 447.055 9.33949 447.108 9.32955L447.441 10.9055C447.335 10.9387 447.185 10.9768 446.993 11.0199C446.801 11.0663 446.567 11.0945 446.292 11.1044C445.782 11.1243 445.334 11.0563 444.95 10.9006C444.569 10.7448 444.272 10.5028 444.06 10.1747C443.848 9.84659 443.743 9.43229 443.747 8.93182V1.53409ZM448.681 11V3.36364H450.799V11H448.681ZM449.745 2.37926C449.43 2.37926 449.16 2.27486 448.935 2.06605C448.713 1.85393 448.602 1.60038 448.602 1.3054C448.602 1.01373 448.713 0.763494 448.935 0.554688C449.16 0.342566 449.43 0.236505 449.745 0.236505C450.06 0.236505 450.328 0.342566 450.55 0.554688C450.776 0.763494 450.888 1.01373 450.888 1.3054C450.888 1.60038 450.776 1.85393 450.55 2.06605C450.328 2.27486 450.06 2.37926 449.745 2.37926ZM459.615 3.36364L456.945 11H454.559L451.889 3.36364H454.126L455.712 8.82741H455.792L457.373 3.36364H459.615ZM463.933 11.1491C463.147 11.1491 462.471 10.9901 461.904 10.6719C461.341 10.3504 460.907 9.89631 460.602 9.30966C460.297 8.7197 460.144 8.02202 460.144 7.21662C460.144 6.43111 460.297 5.74171 460.602 5.14844C460.907 4.55516 461.336 4.0928 461.889 3.76136C462.446 3.42992 463.099 3.2642 463.848 3.2642C464.352 3.2642 464.821 3.34541 465.255 3.50781C465.693 3.6669 466.074 3.9072 466.399 4.22869C466.727 4.55019 466.982 4.95455 467.164 5.44176C467.347 5.92566 467.438 6.49242 467.438 7.14205V7.72372H460.99V6.41122H465.444C465.444 6.1063 465.378 5.83617 465.245 5.60085C465.113 5.36553 464.929 5.18158 464.693 5.04901C464.461 4.91312 464.191 4.84517 463.883 4.84517C463.561 4.84517 463.276 4.91974 463.028 5.06889C462.783 5.21473 462.59 5.41193 462.451 5.66051C462.312 5.90578 462.241 6.17921 462.237 6.48082V7.72869C462.237 8.10653 462.307 8.433 462.446 8.7081C462.589 8.98319 462.789 9.19531 463.048 9.34446C463.306 9.49361 463.613 9.56818 463.968 9.56818C464.203 9.56818 464.418 9.53504 464.614 9.46875C464.809 9.40246 464.977 9.30303 465.116 9.17045C465.255 9.03788 465.361 8.87547 465.434 8.68324L467.393 8.8125C467.294 9.28314 467.09 9.69413 466.781 10.0455C466.477 10.3935 466.082 10.6652 465.598 10.8608C465.118 11.053 464.562 11.1491 463.933 11.1491ZM475.51 11.1491C474.728 11.1491 474.055 10.9834 473.492 10.652C472.932 10.3172 472.501 9.85322 472.199 9.25994C471.901 8.66667 471.752 7.9839 471.752 7.21165C471.752 6.42945 471.903 5.74337 472.204 5.15341C472.509 4.56013 472.942 4.09777 473.502 3.76633C474.062 3.43158 474.728 3.2642 475.5 3.2642C476.167 3.2642 476.75 3.38518 477.25 3.62713C477.751 3.86908 478.147 4.20881 478.439 4.64631C478.73 5.08381 478.891 5.59754 478.921 6.1875H476.922C476.866 5.80634 476.717 5.49976 476.475 5.26776C476.236 5.03243 475.923 4.91477 475.535 4.91477C475.207 4.91477 474.92 5.00426 474.675 5.18324C474.433 5.3589 474.244 5.61577 474.108 5.95384C473.972 6.2919 473.904 6.70123 473.904 7.18182C473.904 7.66903 473.971 8.08333 474.103 8.42472C474.239 8.7661 474.43 9.02628 474.675 9.20526C474.92 9.38423 475.207 9.47372 475.535 9.47372C475.777 9.47372 475.994 9.42401 476.186 9.32457C476.382 9.22514 476.543 9.08097 476.669 8.89205C476.798 8.69981 476.882 8.46946 476.922 8.20099H478.921C478.888 8.78433 478.729 9.29806 478.444 9.74219C478.162 10.183 477.772 10.5277 477.275 10.7763C476.778 11.0249 476.19 11.1491 475.51 11.1491ZM482.395 0.818182V11H480.277V0.818182H482.395ZM484.091 11V3.36364H486.209V11H484.091ZM485.155 2.37926C484.84 2.37926 484.57 2.27486 484.345 2.06605C484.123 1.85393 484.012 1.60038 484.012 1.3054C484.012 1.01373 484.123 0.763494 484.345 0.554688C484.57 0.342566 484.84 0.236505 485.155 0.236505C485.47 0.236505 485.739 0.342566 485.961 0.554688C486.186 0.763494 486.299 1.01373 486.299 1.3054C486.299 1.60038 486.186 1.85393 485.961 2.06605C485.739 2.27486 485.47 2.37926 485.155 2.37926ZM491.386 11.1491C490.6 11.1491 489.924 10.9901 489.357 10.6719C488.794 10.3504 488.36 9.89631 488.055 9.30966C487.75 8.7197 487.597 8.02202 487.597 7.21662C487.597 6.43111 487.75 5.74171 488.055 5.14844C488.36 4.55516 488.789 4.0928 489.343 3.76136C489.899 3.42992 490.552 3.2642 491.301 3.2642C491.805 3.2642 492.274 3.34541 492.708 3.50781C493.146 3.6669 493.527 3.9072 493.852 4.22869C494.18 4.55019 494.435 4.95455 494.617 5.44176C494.8 5.92566 494.891 6.49242 494.891 7.14205V7.72372H488.443V6.41122H492.897C492.897 6.1063 492.831 5.83617 492.698 5.60085C492.566 5.36553 492.382 5.18158 492.146 5.04901C491.914 4.91312 491.644 4.84517 491.336 4.84517C491.015 4.84517 490.73 4.91974 490.481 5.06889C490.236 5.21473 490.044 5.41193 489.904 5.66051C489.765 5.90578 489.694 6.17921 489.691 6.48082V7.72869C489.691 8.10653 489.76 8.433 489.899 8.7081C490.042 8.98319 490.242 9.19531 490.501 9.34446C490.759 9.49361 491.066 9.56818 491.421 9.56818C491.656 9.56818 491.871 9.53504 492.067 9.46875C492.262 9.40246 492.43 9.30303 492.569 9.17045C492.708 9.03788 492.814 8.87547 492.887 8.68324L494.846 8.8125C494.747 9.28314 494.543 9.69413 494.235 10.0455C493.93 10.3935 493.535 10.6652 493.051 10.8608C492.571 11.053 492.016 11.1491 491.386 11.1491ZM498.391 6.58523V11H496.273V3.36364H498.291V4.71094H498.381C498.55 4.26681 498.833 3.91548 499.231 3.65696C499.629 3.39512 500.111 3.2642 500.678 3.2642C501.208 3.2642 501.67 3.38021 502.065 3.61222C502.459 3.84422 502.766 4.17566 502.985 4.60653C503.203 5.03409 503.313 5.54451 503.313 6.13778V11H501.195V6.51562C501.198 6.0483 501.079 5.68371 500.837 5.42188C500.595 5.15672 500.262 5.02415 499.838 5.02415C499.552 5.02415 499.301 5.08546 499.082 5.2081C498.866 5.33073 498.697 5.50971 498.575 5.74503C498.455 5.97704 498.394 6.2571 498.391 6.58523ZM509.044 3.36364V4.95455H504.445V3.36364H509.044ZM505.489 1.53409H507.607V8.65341C507.607 8.84896 507.637 9.00142 507.696 9.1108C507.756 9.21686 507.839 9.29143 507.945 9.33452C508.054 9.3776 508.18 9.39915 508.323 9.39915C508.422 9.39915 508.522 9.39086 508.621 9.37429C508.721 9.3544 508.797 9.33949 508.85 9.32955L509.183 10.9055C509.077 10.9387 508.928 10.9768 508.735 11.0199C508.543 11.0663 508.31 11.0945 508.034 11.1044C507.524 11.1243 507.077 11.0563 506.692 10.9006C506.311 10.7448 506.014 10.5028 505.802 10.1747C505.59 9.84659 505.486 9.43229 505.489 8.93182V1.53409ZM511.661 11.1293C511.333 11.1293 511.051 11.0133 510.816 10.7812C510.584 10.5459 510.468 10.2642 510.468 9.93608C510.468 9.61127 510.584 9.33286 510.816 9.10085C511.051 8.86884 511.333 8.75284 511.661 8.75284C511.979 8.75284 512.258 8.86884 512.496 9.10085C512.735 9.33286 512.854 9.61127 512.854 9.93608C512.854 10.1548 512.798 10.3554 512.685 10.5376C512.576 10.7166 512.432 10.8608 512.253 10.9702C512.074 11.0762 511.877 11.1293 511.661 11.1293Z" fill="black"/>
</svg>
