<svg width="572" height="50" viewBox="0 0 572 50" fill="none" xmlns="http://www.w3.org/2000/svg">
<g filter="url(#filter0_d_46_32)">
<rect x="4" width="42" height="42" rx="21" fill="#00FF2F" fill-opacity="0.1" shape-rendering="crispEdges"/>
<g clip-path="url(#clip0_46_32)">
<path d="M28 11V13M28 29V31M15 24H17M15 18H17M33 24H35M33 18H35M22 11V13M22 29V31M19 13H31C32.1046 13 33 13.8954 33 15V27C33 28.1046 32.1046 29 31 29H19C17.8954 29 17 28.1046 17 27V15C17 13.8954 17.8954 13 19 13ZM23 18H27C27.5523 18 28 18.4477 28 19V23C28 23.5523 27.5523 24 27 24H23C22.4477 24 22 23.5523 22 23V19C22 18.4477 22.4477 18 23 18Z" stroke="#00FF2F" stroke-width="2" stroke-linecap="round" stroke-linejoin="round"/>
</g>
</g>
<path d="M71.0625 29H65.3906V13H71.1094C72.7188 13 74.1042 13.3203 75.2656 13.9609C76.4271 14.5964 77.3203 15.5104 77.9453 16.7031C78.5755 17.8958 78.8906 19.3229 78.8906 20.9844C78.8906 22.651 78.5755 24.0833 77.9453 25.2812C77.3203 26.4792 76.4219 27.3984 75.25 28.0391C74.0833 28.6797 72.6875 29 71.0625 29ZM68.7734 26.1016H70.9219C71.9219 26.1016 72.763 25.9245 73.4453 25.5703C74.1328 25.2109 74.6484 24.6562 74.9922 23.9062C75.3411 23.151 75.5156 22.1771 75.5156 20.9844C75.5156 19.8021 75.3411 18.8359 74.9922 18.0859C74.6484 17.3359 74.1354 16.7839 73.4531 16.4297C72.7708 16.0755 71.9297 15.8984 70.9297 15.8984H68.7734V26.1016ZM86.8027 29.2344C85.5684 29.2344 84.5059 28.9844 83.6152 28.4844C82.7298 27.9792 82.0475 27.2656 81.5684 26.3437C81.0892 25.4167 80.8496 24.3203 80.8496 23.0547C80.8496 21.8203 81.0892 20.737 81.5684 19.8047C82.0475 18.8724 82.722 18.1458 83.5918 17.625C84.4668 17.1042 85.4928 16.8438 86.6699 16.8438C87.4616 16.8438 88.1986 16.9714 88.8809 17.2266C89.5684 17.4766 90.1673 17.8542 90.6777 18.3594C91.1934 18.8646 91.5944 19.5 91.8809 20.2656C92.1673 21.026 92.3105 21.9167 92.3105 22.9375V23.8516H82.1777V21.7891H89.1777C89.1777 21.3099 89.0736 20.8854 88.8652 20.5156C88.6569 20.1458 88.3678 19.8568 87.998 19.6484C87.6335 19.4349 87.209 19.3281 86.7246 19.3281C86.2194 19.3281 85.7715 19.4453 85.3809 19.6797C84.9954 19.9089 84.6934 20.2187 84.4746 20.6094C84.2559 20.9948 84.1439 21.4245 84.1387 21.8984V23.8594C84.1387 24.4531 84.248 24.9661 84.4668 25.3984C84.6908 25.8307 85.0059 26.1641 85.4121 26.3984C85.8184 26.6328 86.3001 26.75 86.8574 26.75C87.2272 26.75 87.5658 26.6979 87.873 26.5938C88.1803 26.4896 88.4434 26.3333 88.6621 26.125C88.8809 25.9167 89.0475 25.6615 89.1621 25.3594L92.2402 25.5625C92.084 26.3021 91.7637 26.9479 91.2793 27.5C90.8001 28.0469 90.1803 28.474 89.4199 28.7813C88.6647 29.0833 87.7923 29.2344 86.8027 29.2344ZM105.348 17L101.152 29H97.4023L93.207 17H96.7227L99.2148 25.5859H99.3398L101.824 17H105.348ZM112.133 29.2344C110.898 29.2344 109.836 28.9844 108.945 28.4844C108.06 27.9792 107.378 27.2656 106.898 26.3437C106.419 25.4167 106.18 24.3203 106.18 23.0547C106.18 21.8203 106.419 20.737 106.898 19.8047C107.378 18.8724 108.052 18.1458 108.922 17.625C109.797 17.1042 110.823 16.8438 112 16.8438C112.792 16.8438 113.529 16.9714 114.211 17.2266C114.898 17.4766 115.497 17.8542 116.008 18.3594C116.523 18.8646 116.924 19.5 117.211 20.2656C117.497 21.026 117.641 21.9167 117.641 22.9375V23.8516H107.508V21.7891H114.508C114.508 21.3099 114.404 20.8854 114.195 20.5156C113.987 20.1458 113.698 19.8568 113.328 19.6484C112.964 19.4349 112.539 19.3281 112.055 19.3281C111.549 19.3281 111.102 19.4453 110.711 19.6797C110.326 19.9089 110.023 20.2187 109.805 20.6094C109.586 20.9948 109.474 21.4245 109.469 21.8984V23.8594C109.469 24.4531 109.578 24.9661 109.797 25.3984C110.021 25.8307 110.336 26.1641 110.742 26.3984C111.148 26.6328 111.63 26.75 112.187 26.75C112.557 26.75 112.896 26.6979 113.203 26.5938C113.51 26.4896 113.773 26.3333 113.992 26.125C114.211 25.9167 114.378 25.6615 114.492 25.3594L117.57 25.5625C117.414 26.3021 117.094 26.9479 116.609 27.5C116.13 28.0469 115.51 28.474 114.75 28.7813C113.995 29.0833 113.122 29.2344 112.133 29.2344ZM123.141 13V29H119.813V13H123.141ZM131.229 29.2344C130.015 29.2344 128.965 28.9766 128.08 28.4609C127.2 27.9401 126.52 27.2161 126.041 26.2891C125.562 25.3568 125.322 24.276 125.322 23.0469C125.322 21.8073 125.562 20.724 126.041 19.7969C126.52 18.8646 127.2 18.1406 128.08 17.625C128.965 17.1042 130.015 16.8438 131.229 16.8438C132.442 16.8438 133.489 17.1042 134.369 17.625C135.255 18.1406 135.937 18.8646 136.416 19.7969C136.895 20.724 137.135 21.8073 137.135 23.0469C137.135 24.276 136.895 25.3568 136.416 26.2891C135.937 27.2161 135.255 27.9401 134.369 28.4609C133.489 28.9766 132.442 29.2344 131.229 29.2344ZM131.244 26.6562C131.796 26.6562 132.257 26.5 132.627 26.1875C132.997 25.8698 133.275 25.4375 133.463 24.8906C133.656 24.3437 133.752 23.7214 133.752 23.0234C133.752 22.3255 133.656 21.7031 133.463 21.1562C133.275 20.6094 132.997 20.1771 132.627 19.8594C132.257 19.5417 131.796 19.3828 131.244 19.3828C130.687 19.3828 130.218 19.5417 129.838 19.8594C129.463 20.1771 129.179 20.6094 128.986 21.1562C128.799 21.7031 128.705 22.3255 128.705 23.0234C128.705 23.7214 128.799 24.3437 128.986 24.8906C129.179 25.4375 129.463 25.8698 129.838 26.1875C130.218 26.5 130.687 26.6562 131.244 26.6562ZM139.299 33.5V17H142.58V19.0156H142.729C142.874 18.6927 143.085 18.3646 143.361 18.0312C143.643 17.6927 144.007 17.4115 144.455 17.1875C144.908 16.9583 145.471 16.8438 146.143 16.8438C147.018 16.8438 147.825 17.0729 148.564 17.5313C149.304 17.9844 149.895 18.6693 150.338 19.5859C150.781 20.4974 151.002 21.6406 151.002 23.0156C151.002 24.3542 150.786 25.4844 150.354 26.4062C149.926 27.3229 149.343 28.0182 148.604 28.4922C147.869 28.9609 147.046 29.1953 146.135 29.1953C145.489 29.1953 144.939 29.0885 144.486 28.875C144.038 28.6615 143.671 28.3932 143.385 28.0703C143.098 27.7422 142.88 27.4115 142.729 27.0781H142.627V33.5H139.299ZM142.557 23C142.557 23.7135 142.656 24.3359 142.854 24.8672C143.051 25.3984 143.338 25.8125 143.713 26.1094C144.088 26.401 144.544 26.5469 145.08 26.5469C145.622 26.5469 146.08 26.3984 146.455 26.1016C146.83 25.7995 147.114 25.3828 147.307 24.8516C147.505 24.3151 147.604 23.6979 147.604 23C147.604 22.3073 147.507 21.6979 147.314 21.1719C147.122 20.6458 146.838 20.2344 146.463 19.9375C146.088 19.6406 145.627 19.4922 145.08 19.4922C144.538 19.4922 144.08 19.6354 143.705 19.9219C143.335 20.2083 143.051 20.6146 142.854 21.1406C142.656 21.6667 142.557 22.2865 142.557 23ZM153.221 29V17H156.393V19.1172H156.533C156.783 18.4141 157.2 17.8594 157.783 17.4531C158.367 17.0469 159.064 16.8438 159.877 16.8438C160.7 16.8438 161.4 17.0495 161.979 17.4609C162.557 17.8672 162.942 18.4193 163.135 19.1172H163.26C163.505 18.4297 163.947 17.8802 164.588 17.4687C165.234 17.0521 165.997 16.8438 166.877 16.8438C167.997 16.8438 168.906 17.2005 169.604 17.9141C170.307 18.6224 170.658 19.6276 170.658 20.9297V29H167.338V21.5859C167.338 20.9193 167.161 20.4193 166.807 20.0859C166.452 19.7526 166.01 19.5859 165.479 19.5859C164.874 19.5859 164.403 19.7786 164.064 20.1641C163.726 20.5443 163.557 21.0469 163.557 21.6719V29H160.33V21.5156C160.33 20.9271 160.161 20.4583 159.822 20.1094C159.489 19.7604 159.049 19.5859 158.502 19.5859C158.132 19.5859 157.799 19.6797 157.502 19.8672C157.21 20.0495 156.979 20.3073 156.807 20.6406C156.635 20.9687 156.549 21.3542 156.549 21.7969V29H153.221ZM178.756 29.2344C177.521 29.2344 176.459 28.9844 175.568 28.4844C174.683 27.9792 174.001 27.2656 173.521 26.3437C173.042 25.4167 172.803 24.3203 172.803 23.0547C172.803 21.8203 173.042 20.737 173.521 19.8047C174.001 18.8724 174.675 18.1458 175.545 17.625C176.42 17.1042 177.446 16.8438 178.623 16.8438C179.415 16.8438 180.152 16.9714 180.834 17.2266C181.521 17.4766 182.12 17.8542 182.631 18.3594C183.146 18.8646 183.548 19.5 183.834 20.2656C184.12 21.026 184.264 21.9167 184.264 22.9375V23.8516H174.131V21.7891H181.131C181.131 21.3099 181.027 20.8854 180.818 20.5156C180.61 20.1458 180.321 19.8568 179.951 19.6484C179.587 19.4349 179.162 19.3281 178.678 19.3281C178.173 19.3281 177.725 19.4453 177.334 19.6797C176.949 19.9089 176.646 20.2187 176.428 20.6094C176.209 20.9948 176.097 21.4245 176.092 21.8984V23.8594C176.092 24.4531 176.201 24.9661 176.42 25.3984C176.644 25.8307 176.959 26.1641 177.365 26.3984C177.771 26.6328 178.253 26.75 178.811 26.75C179.18 26.75 179.519 26.6979 179.826 26.5938C180.133 26.4896 180.396 26.3333 180.615 26.125C180.834 25.9167 181.001 25.6615 181.115 25.3594L184.193 25.5625C184.037 26.3021 183.717 26.9479 183.232 27.5C182.753 28.0469 182.133 28.474 181.373 28.7813C180.618 29.0833 179.745 29.2344 178.756 29.2344ZM189.764 22.0625V29H186.436V17H189.607V19.1172H189.748C190.014 18.4193 190.459 17.8672 191.084 17.4609C191.709 17.0495 192.467 16.8438 193.357 16.8438C194.191 16.8438 194.917 17.026 195.537 17.3906C196.157 17.7552 196.639 18.276 196.982 18.9531C197.326 19.625 197.498 20.4271 197.498 21.3594V29H194.17V21.9531C194.175 21.2187 193.988 20.6458 193.607 20.2344C193.227 19.8177 192.704 19.6094 192.037 19.6094C191.589 19.6094 191.193 19.7057 190.85 19.8984C190.511 20.0911 190.245 20.3724 190.053 20.7422C189.865 21.1068 189.769 21.5469 189.764 22.0625ZM206.504 17V19.5H199.277V17H206.504ZM200.918 14.125H204.246V25.3125C204.246 25.6198 204.293 25.8594 204.387 26.0312C204.48 26.1979 204.611 26.3151 204.777 26.3828C204.949 26.4505 205.147 26.4844 205.371 26.4844C205.527 26.4844 205.684 26.4714 205.84 26.4453C205.996 26.4141 206.116 26.3906 206.199 26.375L206.723 28.8516C206.556 28.9036 206.322 28.9635 206.02 29.0313C205.717 29.1042 205.35 29.1484 204.918 29.1641C204.116 29.1953 203.413 29.0885 202.809 28.8437C202.21 28.599 201.743 28.2187 201.41 27.7031C201.077 27.1875 200.913 26.5365 200.918 25.75V14.125Z" fill="white"/>
<defs>
<filter id="filter0_d_46_32" x="0" y="0" width="50" height="50" filterUnits="userSpaceOnUse" color-interpolation-filters="sRGB">
<feFlood flood-opacity="0" result="BackgroundImageFix"/>
<feColorMatrix in="SourceAlpha" type="matrix" values="0 0 0 0 0 0 0 0 0 0 0 0 0 0 0 0 0 0 127 0" result="hardAlpha"/>
<feOffset dy="4"/>
<feGaussianBlur stdDeviation="2"/>
<feComposite in2="hardAlpha" operator="out"/>
<feColorMatrix type="matrix" values="0 0 0 0 0 0 0 0 0 0 0 0 0 0 0 0 0 0 0.25 0"/>
<feBlend mode="normal" in2="BackgroundImageFix" result="effect1_dropShadow_46_32"/>
<feBlend mode="normal" in="SourceGraphic" in2="effect1_dropShadow_46_32" result="shape"/>
</filter>
<clipPath id="clip0_46_32">
<rect width="24" height="24" fill="white" transform="translate(13 9)"/>
</clipPath>
</defs>
</svg>
