<svg width="568" height="42" viewBox="0 0 568 42" fill="none" xmlns="http://www.w3.org/2000/svg">
<rect width="42" height="42" rx="21" fill="white" fill-opacity="0.1"/>
<path d="M28 26V14C28 13.4696 27.7893 12.9609 27.4142 12.5858C27.0391 12.2107 26.5304 12 26 12H13M13 12C13.5304 12 14.0391 12.2107 14.4142 12.5858C14.7893 12.9609 15 13.4696 15 14V28C15 28.5304 15.2107 29.0391 15.5858 29.4142C15.9609 29.7893 16.4696 30 17 30M13 12C12.4696 12 11.9609 12.2107 11.5858 12.5858C11.2107 12.9609 11 13.4696 11 14V16C11 16.2652 11.1054 16.5196 11.2929 16.7071C11.4804 16.8946 11.7348 17 12 17H15M17 30H29C29.5304 30 30.0391 29.7893 30.4142 29.4142C30.7893 29.0391 31 28.5304 31 28V27C31 26.7348 30.8946 26.4804 30.7071 26.2929C30.5196 26.1054 30.2652 26 30 26H20C19.7348 26 19.4804 26.1054 19.2929 26.2929C19.1054 26.4804 19 26.7348 19 27V28C19 28.5304 18.7893 29.0391 18.4142 29.4142C18.0391 29.7893 17.5304 30 17 30Z" stroke="white" stroke-width="2" stroke-linecap="round" stroke-linejoin="round"/>
<path d="M61.3906 29V13H64.7734V26.2109H71.6328V29H61.3906ZM73.8105 29V17H77.1387V29H73.8105ZM75.4824 15.4531C74.9876 15.4531 74.5632 15.2891 74.209 14.9609C73.86 14.6276 73.6855 14.2292 73.6855 13.7656C73.6855 13.3073 73.86 12.9141 74.209 12.5859C74.5632 12.2526 74.9876 12.0859 75.4824 12.0859C75.9772 12.0859 76.3991 12.2526 76.748 12.5859C77.1022 12.9141 77.2793 13.3073 77.2793 13.7656C77.2793 14.2292 77.1022 14.6276 76.748 14.9609C76.3991 15.2891 75.9772 15.4531 75.4824 15.4531ZM85.2266 29.2344C83.9974 29.2344 82.9401 28.974 82.0547 28.4531C81.1745 27.9271 80.4974 27.1979 80.0234 26.2656C79.5547 25.3333 79.3203 24.2604 79.3203 23.0469C79.3203 21.8177 79.5573 20.7396 80.0313 19.8125C80.5104 18.8802 81.1901 18.1536 82.0703 17.6328C82.9505 17.1068 83.9974 16.8438 85.2109 16.8438C86.2578 16.8438 87.1745 17.0339 87.9609 17.4141C88.7474 17.7943 89.3698 18.3281 89.8281 19.0156C90.2865 19.7031 90.5391 20.5104 90.5859 21.4375H87.4453C87.3568 20.8385 87.1224 20.3568 86.7422 19.9922C86.3672 19.6224 85.875 19.4375 85.2656 19.4375C84.75 19.4375 84.2995 19.5781 83.9141 19.8594C83.5339 20.1354 83.237 20.5391 83.0234 21.0703C82.8099 21.6016 82.7031 22.2448 82.7031 23C82.7031 23.7656 82.8073 24.4167 83.0156 24.9531C83.2292 25.4896 83.5286 25.8984 83.9141 26.1797C84.2995 26.4609 84.75 26.6016 85.2656 26.6016C85.6458 26.6016 85.987 26.5234 86.2891 26.3672C86.5964 26.2109 86.849 25.9844 87.0469 25.6875C87.25 25.3854 87.3828 25.0234 87.4453 24.6016H90.5859C90.5339 25.5182 90.2839 26.3255 89.8359 27.0234C89.3932 27.7161 88.7813 28.2578 88 28.6484C87.2188 29.0391 86.2943 29.2344 85.2266 29.2344ZM98.1855 29.2344C96.9512 29.2344 95.8887 28.9844 94.998 28.4844C94.1126 27.9792 93.4303 27.2656 92.9512 26.3437C92.472 25.4167 92.2324 24.3203 92.2324 23.0547C92.2324 21.8203 92.472 20.737 92.9512 19.8047C93.4303 18.8724 94.1048 18.1458 94.9746 17.625C95.8496 17.1042 96.8757 16.8438 98.0527 16.8438C98.8444 16.8438 99.5814 16.9714 100.264 17.2266C100.951 17.4766 101.55 17.8542 102.061 18.3594C102.576 18.8646 102.977 19.5 103.264 20.2656C103.55 21.026 103.693 21.9167 103.693 22.9375V23.8516H93.5605V21.7891H100.561C100.561 21.3099 100.456 20.8854 100.248 20.5156C100.04 20.1458 99.7507 19.8568 99.3809 19.6484C99.0163 19.4349 98.5918 19.3281 98.1074 19.3281C97.6022 19.3281 97.1543 19.4453 96.7637 19.6797C96.3783 19.9089 96.0762 20.2187 95.8574 20.6094C95.6387 20.9948 95.5267 21.4245 95.5215 21.8984V23.8594C95.5215 24.4531 95.6309 24.9661 95.8496 25.3984C96.0736 25.8307 96.3887 26.1641 96.7949 26.3984C97.2012 26.6328 97.6829 26.75 98.2402 26.75C98.61 26.75 98.9486 26.6979 99.2559 26.5938C99.5632 26.4896 99.8262 26.3333 100.045 26.125C100.264 25.9167 100.43 25.6615 100.545 25.3594L103.623 25.5625C103.467 26.3021 103.146 26.9479 102.662 27.5C102.183 28.0469 101.563 28.474 100.803 28.7813C100.048 29.0833 99.1751 29.2344 98.1855 29.2344ZM109.193 22.0625V29H105.865V17H109.037V19.1172H109.178C109.443 18.4193 109.889 17.8672 110.514 17.4609C111.139 17.0495 111.896 16.8438 112.787 16.8438C113.62 16.8438 114.347 17.026 114.967 17.3906C115.587 17.7552 116.068 18.276 116.412 18.9531C116.756 19.625 116.928 20.4271 116.928 21.3594V29H113.6V21.9531C113.605 21.2187 113.417 20.6458 113.037 20.2344C112.657 19.8177 112.133 19.6094 111.467 19.6094C111.019 19.6094 110.623 19.7057 110.279 19.8984C109.941 20.0911 109.675 20.3724 109.482 20.7422C109.295 21.1068 109.199 21.5469 109.193 22.0625ZM129.535 20.4219L126.488 20.6094C126.436 20.349 126.324 20.1146 126.152 19.9062C125.98 19.6927 125.754 19.5234 125.473 19.3984C125.197 19.2682 124.866 19.2031 124.48 19.2031C123.965 19.2031 123.53 19.3125 123.176 19.5312C122.822 19.7448 122.645 20.0312 122.645 20.3906C122.645 20.6771 122.759 20.9193 122.988 21.1172C123.217 21.3151 123.611 21.474 124.168 21.5937L126.34 22.0312C127.507 22.2708 128.376 22.6562 128.949 23.1875C129.522 23.7187 129.809 24.4167 129.809 25.2812C129.809 26.0677 129.577 26.7578 129.113 27.3516C128.655 27.9453 128.025 28.4089 127.223 28.7422C126.426 29.0703 125.507 29.2344 124.465 29.2344C122.876 29.2344 121.611 28.9036 120.668 28.2422C119.73 27.5755 119.181 26.6693 119.02 25.5234L122.293 25.3516C122.392 25.8359 122.632 26.2057 123.012 26.4609C123.392 26.7109 123.879 26.8359 124.473 26.8359C125.056 26.8359 125.525 26.724 125.879 26.5C126.238 26.2708 126.421 25.9766 126.426 25.6172C126.421 25.3151 126.293 25.0677 126.043 24.875C125.793 24.6771 125.408 24.526 124.887 24.4219L122.809 24.0078C121.637 23.7734 120.764 23.3672 120.191 22.7891C119.624 22.2109 119.34 21.474 119.34 20.5781C119.34 19.8073 119.548 19.1432 119.965 18.5859C120.387 18.0286 120.978 17.599 121.738 17.2969C122.504 16.9948 123.4 16.8438 124.426 16.8438C125.941 16.8438 127.134 17.1641 128.004 17.8047C128.879 18.4453 129.389 19.3177 129.535 20.4219ZM137.373 29.2344C136.139 29.2344 135.076 28.9844 134.186 28.4844C133.3 27.9792 132.618 27.2656 132.139 26.3437C131.66 25.4167 131.42 24.3203 131.42 23.0547C131.42 21.8203 131.66 20.737 132.139 19.8047C132.618 18.8724 133.292 18.1458 134.162 17.625C135.037 17.1042 136.063 16.8438 137.24 16.8438C138.032 16.8438 138.769 16.9714 139.451 17.2266C140.139 17.4766 140.738 17.8542 141.248 18.3594C141.764 18.8646 142.165 19.5 142.451 20.2656C142.738 21.026 142.881 21.9167 142.881 22.9375V23.8516H132.748V21.7891H139.748C139.748 21.3099 139.644 20.8854 139.436 20.5156C139.227 20.1458 138.938 19.8568 138.568 19.6484C138.204 19.4349 137.779 19.3281 137.295 19.3281C136.79 19.3281 136.342 19.4453 135.951 19.6797C135.566 19.9089 135.264 20.2187 135.045 20.6094C134.826 20.9948 134.714 21.4245 134.709 21.8984V23.8594C134.709 24.4531 134.818 24.9661 135.037 25.3984C135.261 25.8307 135.576 26.1641 135.982 26.3984C136.389 26.6328 136.87 26.75 137.428 26.75C137.798 26.75 138.136 26.6979 138.443 26.5938C138.751 26.4896 139.014 26.3333 139.232 26.125C139.451 25.9167 139.618 25.6615 139.732 25.3594L142.811 25.5625C142.654 26.3021 142.334 26.9479 141.85 27.5C141.37 28.0469 140.751 28.474 139.99 28.7813C139.235 29.0833 138.363 29.2344 137.373 29.2344Z" fill="white"/>
</svg>
