<svg width="568" height="42" viewBox="0 0 568 42" fill="none" xmlns="http://www.w3.org/2000/svg">
<rect width="42" height="42" rx="21" fill="#00FF2F" fill-opacity="0.1"/>
<g clip-path="url(#clip0_46_32)">
<path d="M24 11V13M24 29V31M11 24H13M11 18H13M29 24H31M29 18H31M18 11V13M18 29V31M15 13H27C28.1046 13 29 13.8954 29 15V27C29 28.1046 28.1046 29 27 29H15C13.8954 29 13 28.1046 13 27V15C13 13.8954 13.8954 13 15 13ZM19 18H23C23.5523 18 24 18.4477 24 19V23C24 23.5523 23.5523 24 23 24H19C18.4477 24 18 23.5523 18 23V19C18 18.4477 18.4477 18 19 18Z" stroke="#00FF2F" stroke-width="2" stroke-linecap="round" stroke-linejoin="round"/>
</g>
<path d="M67.0625 29H61.3906V13H67.1094C68.7188 13 70.1042 13.3203 71.2656 13.9609C72.4271 14.5964 73.3203 15.5104 73.9453 16.7031C74.5755 17.8958 74.8906 19.3229 74.8906 20.9844C74.8906 22.651 74.5755 24.0833 73.9453 25.2812C73.3203 26.4792 72.4219 27.3984 71.25 28.0391C70.0833 28.6797 68.6875 29 67.0625 29ZM64.7734 26.1016H66.9219C67.9219 26.1016 68.763 25.9245 69.4453 25.5703C70.1328 25.2109 70.6484 24.6562 70.9922 23.9062C71.3411 23.151 71.5156 22.1771 71.5156 20.9844C71.5156 19.8021 71.3411 18.8359 70.9922 18.0859C70.6484 17.3359 70.1354 16.7839 69.4531 16.4297C68.7708 16.0755 67.9297 15.8984 66.9297 15.8984H64.7734V26.1016ZM82.8027 29.2344C81.5684 29.2344 80.5059 28.9844 79.6152 28.4844C78.7298 27.9792 78.0475 27.2656 77.5684 26.3437C77.0892 25.4167 76.8496 24.3203 76.8496 23.0547C76.8496 21.8203 77.0892 20.737 77.5684 19.8047C78.0475 18.8724 78.722 18.1458 79.5918 17.625C80.4668 17.1042 81.4928 16.8438 82.6699 16.8438C83.4616 16.8438 84.1986 16.9714 84.8809 17.2266C85.5684 17.4766 86.1673 17.8542 86.6777 18.3594C87.1934 18.8646 87.5944 19.5 87.8809 20.2656C88.1673 21.026 88.3105 21.9167 88.3105 22.9375V23.8516H78.1777V21.7891H85.1777C85.1777 21.3099 85.0736 20.8854 84.8652 20.5156C84.6569 20.1458 84.3678 19.8568 83.998 19.6484C83.6335 19.4349 83.209 19.3281 82.7246 19.3281C82.2194 19.3281 81.7715 19.4453 81.3809 19.6797C80.9954 19.9089 80.6934 20.2187 80.4746 20.6094C80.2559 20.9948 80.1439 21.4245 80.1387 21.8984V23.8594C80.1387 24.4531 80.248 24.9661 80.4668 25.3984C80.6908 25.8307 81.0059 26.1641 81.4121 26.3984C81.8184 26.6328 82.3001 26.75 82.8574 26.75C83.2272 26.75 83.5658 26.6979 83.873 26.5938C84.1803 26.4896 84.4434 26.3333 84.6621 26.125C84.8809 25.9167 85.0475 25.6615 85.1621 25.3594L88.2402 25.5625C88.084 26.3021 87.7637 26.9479 87.2793 27.5C86.8001 28.0469 86.1803 28.474 85.4199 28.7813C84.6647 29.0833 83.7923 29.2344 82.8027 29.2344ZM101.348 17L97.1523 29H93.4023L89.207 17H92.7227L95.2148 25.5859H95.3398L97.8242 17H101.348ZM108.133 29.2344C106.898 29.2344 105.836 28.9844 104.945 28.4844C104.06 27.9792 103.378 27.2656 102.898 26.3437C102.419 25.4167 102.18 24.3203 102.18 23.0547C102.18 21.8203 102.419 20.737 102.898 19.8047C103.378 18.8724 104.052 18.1458 104.922 17.625C105.797 17.1042 106.823 16.8438 108 16.8438C108.792 16.8438 109.529 16.9714 110.211 17.2266C110.898 17.4766 111.497 17.8542 112.008 18.3594C112.523 18.8646 112.924 19.5 113.211 20.2656C113.497 21.026 113.641 21.9167 113.641 22.9375V23.8516H103.508V21.7891H110.508C110.508 21.3099 110.404 20.8854 110.195 20.5156C109.987 20.1458 109.698 19.8568 109.328 19.6484C108.964 19.4349 108.539 19.3281 108.055 19.3281C107.549 19.3281 107.102 19.4453 106.711 19.6797C106.326 19.9089 106.023 20.2187 105.805 20.6094C105.586 20.9948 105.474 21.4245 105.469 21.8984V23.8594C105.469 24.4531 105.578 24.9661 105.797 25.3984C106.021 25.8307 106.336 26.1641 106.742 26.3984C107.148 26.6328 107.63 26.75 108.187 26.75C108.557 26.75 108.896 26.6979 109.203 26.5938C109.51 26.4896 109.773 26.3333 109.992 26.125C110.211 25.9167 110.378 25.6615 110.492 25.3594L113.57 25.5625C113.414 26.3021 113.094 26.9479 112.609 27.5C112.13 28.0469 111.51 28.474 110.75 28.7813C109.995 29.0833 109.122 29.2344 108.133 29.2344ZM119.141 13V29H115.813V13H119.141ZM127.229 29.2344C126.015 29.2344 124.965 28.9766 124.08 28.4609C123.2 27.9401 122.52 27.2161 122.041 26.2891C121.562 25.3568 121.322 24.276 121.322 23.0469C121.322 21.8073 121.562 20.724 122.041 19.7969C122.52 18.8646 123.2 18.1406 124.08 17.625C124.965 17.1042 126.015 16.8438 127.229 16.8438C128.442 16.8438 129.489 17.1042 130.369 17.625C131.255 18.1406 131.937 18.8646 132.416 19.7969C132.895 20.724 133.135 21.8073 133.135 23.0469C133.135 24.276 132.895 25.3568 132.416 26.2891C131.937 27.2161 131.255 27.9401 130.369 28.4609C129.489 28.9766 128.442 29.2344 127.229 29.2344ZM127.244 26.6562C127.796 26.6562 128.257 26.5 128.627 26.1875C128.997 25.8698 129.275 25.4375 129.463 24.8906C129.656 24.3437 129.752 23.7214 129.752 23.0234C129.752 22.3255 129.656 21.7031 129.463 21.1562C129.275 20.6094 128.997 20.1771 128.627 19.8594C128.257 19.5417 127.796 19.3828 127.244 19.3828C126.687 19.3828 126.218 19.5417 125.838 19.8594C125.463 20.1771 125.179 20.6094 124.986 21.1562C124.799 21.7031 124.705 22.3255 124.705 23.0234C124.705 23.7214 124.799 24.3437 124.986 24.8906C125.179 25.4375 125.463 25.8698 125.838 26.1875C126.218 26.5 126.687 26.6562 127.244 26.6562ZM135.299 33.5V17H138.58V19.0156H138.729C138.874 18.6927 139.085 18.3646 139.361 18.0312C139.643 17.6927 140.007 17.4115 140.455 17.1875C140.908 16.9583 141.471 16.8438 142.143 16.8438C143.018 16.8438 143.825 17.0729 144.564 17.5313C145.304 17.9844 145.895 18.6693 146.338 19.5859C146.781 20.4974 147.002 21.6406 147.002 23.0156C147.002 24.3542 146.786 25.4844 146.354 26.4062C145.926 27.3229 145.343 28.0182 144.604 28.4922C143.869 28.9609 143.046 29.1953 142.135 29.1953C141.489 29.1953 140.939 29.0885 140.486 28.875C140.038 28.6615 139.671 28.3932 139.385 28.0703C139.098 27.7422 138.88 27.4115 138.729 27.0781H138.627V33.5H135.299ZM138.557 23C138.557 23.7135 138.656 24.3359 138.854 24.8672C139.051 25.3984 139.338 25.8125 139.713 26.1094C140.088 26.401 140.544 26.5469 141.08 26.5469C141.622 26.5469 142.08 26.3984 142.455 26.1016C142.83 25.7995 143.114 25.3828 143.307 24.8516C143.505 24.3151 143.604 23.6979 143.604 23C143.604 22.3073 143.507 21.6979 143.314 21.1719C143.122 20.6458 142.838 20.2344 142.463 19.9375C142.088 19.6406 141.627 19.4922 141.08 19.4922C140.538 19.4922 140.08 19.6354 139.705 19.9219C139.335 20.2083 139.051 20.6146 138.854 21.1406C138.656 21.6667 138.557 22.2865 138.557 23ZM149.221 29V17H152.393V19.1172H152.533C152.783 18.4141 153.2 17.8594 153.783 17.4531C154.367 17.0469 155.064 16.8438 155.877 16.8438C156.7 16.8438 157.4 17.0495 157.979 17.4609C158.557 17.8672 158.942 18.4193 159.135 19.1172H159.26C159.505 18.4297 159.947 17.8802 160.588 17.4687C161.234 17.0521 161.997 16.8438 162.877 16.8438C163.997 16.8438 164.906 17.2005 165.604 17.9141C166.307 18.6224 166.658 19.6276 166.658 20.9297V29H163.338V21.5859C163.338 20.9193 163.161 20.4193 162.807 20.0859C162.452 19.7526 162.01 19.5859 161.479 19.5859C160.874 19.5859 160.403 19.7786 160.064 20.1641C159.726 20.5443 159.557 21.0469 159.557 21.6719V29H156.33V21.5156C156.33 20.9271 156.161 20.4583 155.822 20.1094C155.489 19.7604 155.049 19.5859 154.502 19.5859C154.132 19.5859 153.799 19.6797 153.502 19.8672C153.21 20.0495 152.979 20.3073 152.807 20.6406C152.635 20.9687 152.549 21.3542 152.549 21.7969V29H149.221ZM174.756 29.2344C173.521 29.2344 172.459 28.9844 171.568 28.4844C170.683 27.9792 170.001 27.2656 169.521 26.3437C169.042 25.4167 168.803 24.3203 168.803 23.0547C168.803 21.8203 169.042 20.737 169.521 19.8047C170.001 18.8724 170.675 18.1458 171.545 17.625C172.42 17.1042 173.446 16.8438 174.623 16.8438C175.415 16.8438 176.152 16.9714 176.834 17.2266C177.521 17.4766 178.12 17.8542 178.631 18.3594C179.146 18.8646 179.548 19.5 179.834 20.2656C180.12 21.026 180.264 21.9167 180.264 22.9375V23.8516H170.131V21.7891H177.131C177.131 21.3099 177.027 20.8854 176.818 20.5156C176.61 20.1458 176.321 19.8568 175.951 19.6484C175.587 19.4349 175.162 19.3281 174.678 19.3281C174.173 19.3281 173.725 19.4453 173.334 19.6797C172.949 19.9089 172.646 20.2187 172.428 20.6094C172.209 20.9948 172.097 21.4245 172.092 21.8984V23.8594C172.092 24.4531 172.201 24.9661 172.42 25.3984C172.644 25.8307 172.959 26.1641 173.365 26.3984C173.771 26.6328 174.253 26.75 174.811 26.75C175.18 26.75 175.519 26.6979 175.826 26.5938C176.133 26.4896 176.396 26.3333 176.615 26.125C176.834 25.9167 177.001 25.6615 177.115 25.3594L180.193 25.5625C180.037 26.3021 179.717 26.9479 179.232 27.5C178.753 28.0469 178.133 28.474 177.373 28.7813C176.618 29.0833 175.745 29.2344 174.756 29.2344ZM185.764 22.0625V29H182.436V17H185.607V19.1172H185.748C186.014 18.4193 186.459 17.8672 187.084 17.4609C187.709 17.0495 188.467 16.8438 189.357 16.8438C190.191 16.8438 190.917 17.026 191.537 17.3906C192.157 17.7552 192.639 18.276 192.982 18.9531C193.326 19.625 193.498 20.4271 193.498 21.3594V29H190.17V21.9531C190.175 21.2187 189.988 20.6458 189.607 20.2344C189.227 19.8177 188.704 19.6094 188.037 19.6094C187.589 19.6094 187.193 19.7057 186.85 19.8984C186.511 20.0911 186.245 20.3724 186.053 20.7422C185.865 21.1068 185.769 21.5469 185.764 22.0625ZM202.504 17V19.5H195.277V17H202.504ZM196.918 14.125H200.246V25.3125C200.246 25.6198 200.293 25.8594 200.387 26.0312C200.48 26.1979 200.611 26.3151 200.777 26.3828C200.949 26.4505 201.147 26.4844 201.371 26.4844C201.527 26.4844 201.684 26.4714 201.84 26.4453C201.996 26.4141 202.116 26.3906 202.199 26.375L202.723 28.8516C202.556 28.9036 202.322 28.9635 202.02 29.0313C201.717 29.1042 201.35 29.1484 200.918 29.1641C200.116 29.1953 199.413 29.0885 198.809 28.8437C198.21 28.599 197.743 28.2187 197.41 27.7031C197.077 27.1875 196.913 26.5365 196.918 25.75V14.125Z" fill="black"/>
<defs>
<clipPath id="clip0_46_32">
<rect width="24" height="24" fill="white" transform="translate(9 9)"/>
</clipPath>
</defs>
</svg>
