<svg width="568" height="42" viewBox="0 0 568 42" fill="none" xmlns="http://www.w3.org/2000/svg">
<rect width="42" height="42" rx="21" fill="#FFFF00" fill-opacity="0.1"/>
<path d="M28.9999 11.9998V15.9998M30.9999 13.9998H26.9999M12.9999 25.9998V27.9998M13.9999 26.9998H11.9999M18.9369 24.4998C18.8477 24.1537 18.6673 23.8379 18.4146 23.5851C18.1618 23.3324 17.846 23.152 17.4999 23.0628L11.3649 21.4808C11.2603 21.4511 11.1681 21.388 11.1026 21.3012C11.037 21.2144 11.0015 21.1086 11.0015 20.9998C11.0015 20.891 11.037 20.7851 11.1026 20.6983C11.1681 20.6115 11.2603 20.5485 11.3649 20.5188L17.4999 18.9358C17.8459 18.8466 18.1616 18.6663 18.4143 18.4138C18.6671 18.1613 18.8475 17.8456 18.9369 17.4998L20.5189 11.3648C20.5483 11.2597 20.6113 11.1671 20.6983 11.1012C20.7852 11.0352 20.8913 10.9995 21.0004 10.9995C21.1096 10.9995 21.2157 11.0352 21.3026 11.1012C21.3896 11.1671 21.4525 11.2597 21.4819 11.3648L23.0629 17.4998C23.1522 17.8458 23.3326 18.1617 23.5853 18.4144C23.838 18.6671 24.1539 18.8475 24.4999 18.9368L30.6349 20.5178C30.7404 20.5469 30.8335 20.6098 30.8998 20.6968C30.9661 20.7839 31.002 20.8903 31.002 20.9998C31.002 21.1092 30.9661 21.2156 30.8998 21.3027C30.8335 21.3898 30.7404 21.4527 30.6349 21.4818L24.4999 23.0628C24.1539 23.152 23.838 23.3324 23.5853 23.5851C23.3326 23.8379 23.1522 24.1537 23.0629 24.4998L21.4809 30.6348C21.4515 30.7398 21.3886 30.8324 21.3016 30.8984C21.2147 30.9643 21.1086 31 20.9994 31C20.8903 31 20.7842 30.9643 20.6973 30.8984C20.6103 30.8324 20.5473 30.7398 20.5179 30.6348L18.9369 24.4998Z" stroke="#FFFF00" stroke-width="2" stroke-linecap="round" stroke-linejoin="round"/>
<path d="M61.3906 29V13H71.9844V15.7891H64.7734V19.6016H71.2813V22.3906H64.7734V29H61.3906ZM78.7852 29.2344C77.5508 29.2344 76.4883 28.9844 75.5977 28.4844C74.7122 27.9792 74.0299 27.2656 73.5508 26.3437C73.0716 25.4167 72.832 24.3203 72.832 23.0547C72.832 21.8203 73.0716 20.737 73.5508 19.8047C74.0299 18.8724 74.7044 18.1458 75.5742 17.625C76.4492 17.1042 77.4753 16.8438 78.6523 16.8438C79.444 16.8438 80.181 16.9714 80.8633 17.2266C81.5508 17.4766 82.1497 17.8542 82.6602 18.3594C83.1758 18.8646 83.5768 19.5 83.8633 20.2656C84.1497 21.026 84.293 21.9167 84.293 22.9375V23.8516H74.1602V21.7891H81.1602C81.1602 21.3099 81.056 20.8854 80.8477 20.5156C80.6393 20.1458 80.3503 19.8568 79.9805 19.6484C79.6159 19.4349 79.1914 19.3281 78.707 19.3281C78.2018 19.3281 77.7539 19.4453 77.3633 19.6797C76.9779 19.9089 76.6758 20.2187 76.457 20.6094C76.2383 20.9948 76.1263 21.4245 76.1211 21.8984V23.8594C76.1211 24.4531 76.2305 24.9661 76.4492 25.3984C76.6732 25.8307 76.9883 26.1641 77.3945 26.3984C77.8008 26.6328 78.2826 26.75 78.8398 26.75C79.2096 26.75 79.5482 26.6979 79.8555 26.5938C80.1628 26.4896 80.4258 26.3333 80.6445 26.125C80.8633 25.9167 81.0299 25.6615 81.1445 25.3594L84.2227 25.5625C84.0664 26.3021 83.7461 26.9479 83.2617 27.5C82.7826 28.0469 82.1628 28.474 81.4023 28.7813C80.6471 29.0833 79.7747 29.2344 78.7852 29.2344ZM89.8867 29.2266C89.1211 29.2266 88.4388 29.0938 87.8398 28.8281C87.2409 28.5573 86.7669 28.1589 86.418 27.6328C86.0742 27.1016 85.9023 26.4401 85.9023 25.6484C85.9023 24.9818 86.0247 24.4219 86.2695 23.9687C86.5143 23.5156 86.8477 23.151 87.2695 22.875C87.6914 22.599 88.1706 22.3906 88.707 22.25C89.2487 22.1094 89.8164 22.0104 90.4102 21.9531C91.1081 21.8802 91.6706 21.8125 92.0977 21.75C92.5247 21.6823 92.8346 21.5833 93.0273 21.4531C93.2201 21.3229 93.3164 21.1302 93.3164 20.875V20.8281C93.3164 20.3333 93.1602 19.9505 92.8477 19.6797C92.5404 19.4089 92.1029 19.2734 91.5352 19.2734C90.9362 19.2734 90.4596 19.4062 90.1055 19.6719C89.7513 19.9323 89.5169 20.2604 89.4023 20.6562L86.3242 20.4062C86.4805 19.6771 86.7878 19.0469 87.2461 18.5156C87.7044 17.9792 88.2956 17.5677 89.0195 17.2812C89.7487 16.9896 90.5924 16.8438 91.5508 16.8438C92.2174 16.8438 92.8555 16.9219 93.4648 17.0781C94.0794 17.2344 94.6237 17.4766 95.0977 17.8047C95.5768 18.1328 95.9544 18.5547 96.2305 19.0703C96.5065 19.5807 96.6445 20.1927 96.6445 20.9062V29H93.4883V27.3359H93.3945C93.2018 27.7109 92.944 28.0417 92.6211 28.3281C92.2982 28.6094 91.9102 28.8307 91.457 28.9922C91.0039 29.1484 90.4805 29.2266 89.8867 29.2266ZM90.8398 26.9297C91.3294 26.9297 91.7617 26.8333 92.1367 26.6406C92.5117 26.4427 92.806 26.1771 93.0195 25.8438C93.2331 25.5104 93.3398 25.1328 93.3398 24.7109V23.4375C93.2357 23.5052 93.0924 23.5677 92.9102 23.625C92.7331 23.6771 92.5326 23.7266 92.3086 23.7734C92.0846 23.8151 91.8607 23.8542 91.6367 23.8906C91.4128 23.9219 91.2096 23.9505 91.0273 23.9766C90.6367 24.0339 90.2956 24.125 90.0039 24.25C89.7122 24.375 89.4857 24.5443 89.3242 24.7578C89.1628 24.9661 89.082 25.2266 89.082 25.5391C89.082 25.9922 89.2461 26.3385 89.5742 26.5781C89.9076 26.8125 90.3294 26.9297 90.8398 26.9297ZM105.609 17V19.5H98.3828V17H105.609ZM100.023 14.125H103.352V25.3125C103.352 25.6198 103.398 25.8594 103.492 26.0312C103.586 26.1979 103.716 26.3151 103.883 26.3828C104.055 26.4505 104.253 26.4844 104.477 26.4844C104.633 26.4844 104.789 26.4714 104.945 26.4453C105.102 26.4141 105.221 26.3906 105.305 26.375L105.828 28.8516C105.661 28.9036 105.427 28.9635 105.125 29.0313C104.823 29.1042 104.456 29.1484 104.023 29.1641C103.221 29.1953 102.518 29.0885 101.914 28.8437C101.315 28.599 100.849 28.2187 100.516 27.7031C100.182 27.1875 100.018 26.5365 100.023 25.75V14.125ZM115.473 23.8906V17H118.801V29H115.605V26.8203H115.48C115.21 27.5234 114.759 28.0885 114.129 28.5156C113.504 28.9427 112.741 29.1563 111.84 29.1563C111.038 29.1563 110.332 28.974 109.723 28.6094C109.113 28.2448 108.637 27.7266 108.293 27.0547C107.954 26.3828 107.783 25.5781 107.777 24.6406V17H111.105V24.0469C111.111 24.7552 111.301 25.3151 111.676 25.7266C112.051 26.138 112.553 26.3437 113.184 26.3437C113.585 26.3437 113.96 26.2526 114.309 26.0703C114.658 25.8828 114.939 25.6068 115.152 25.2422C115.371 24.8776 115.478 24.4271 115.473 23.8906ZM121.463 29V17H124.689V19.0937H124.814C125.033 18.349 125.4 17.7865 125.916 17.4063C126.432 17.0208 127.025 16.8281 127.697 16.8281C127.864 16.8281 128.044 16.8385 128.236 16.8594C128.429 16.8802 128.598 16.9089 128.744 16.9453V19.8984C128.588 19.8516 128.372 19.8099 128.096 19.7734C127.82 19.737 127.567 19.7188 127.338 19.7188C126.848 19.7188 126.411 19.8255 126.025 20.0391C125.645 20.2474 125.343 20.5391 125.119 20.9141C124.9 21.2891 124.791 21.7214 124.791 22.2109V29H121.463ZM135.375 29.2344C134.141 29.2344 133.078 28.9844 132.188 28.4844C131.302 27.9792 130.62 27.2656 130.141 26.3437C129.661 25.4167 129.422 24.3203 129.422 23.0547C129.422 21.8203 129.661 20.737 130.141 19.8047C130.62 18.8724 131.294 18.1458 132.164 17.625C133.039 17.1042 134.065 16.8438 135.242 16.8438C136.034 16.8438 136.771 16.9714 137.453 17.2266C138.141 17.4766 138.74 17.8542 139.25 18.3594C139.766 18.8646 140.167 19.5 140.453 20.2656C140.74 21.026 140.883 21.9167 140.883 22.9375V23.8516H130.75V21.7891H137.75C137.75 21.3099 137.646 20.8854 137.438 20.5156C137.229 20.1458 136.94 19.8568 136.57 19.6484C136.206 19.4349 135.781 19.3281 135.297 19.3281C134.792 19.3281 134.344 19.4453 133.953 19.6797C133.568 19.9089 133.266 20.2187 133.047 20.6094C132.828 20.9948 132.716 21.4245 132.711 21.8984V23.8594C132.711 24.4531 132.82 24.9661 133.039 25.3984C133.263 25.8307 133.578 26.1641 133.984 26.3984C134.391 26.6328 134.872 26.75 135.43 26.75C135.799 26.75 136.138 26.6979 136.445 26.5938C136.753 26.4896 137.016 26.3333 137.234 26.125C137.453 25.9167 137.62 25.6615 137.734 25.3594L140.813 25.5625C140.656 26.3021 140.336 26.9479 139.852 27.5C139.372 28.0469 138.753 28.474 137.992 28.7813C137.237 29.0833 136.365 29.2344 135.375 29.2344ZM153.039 20.4219L149.992 20.6094C149.94 20.349 149.828 20.1146 149.656 19.9062C149.484 19.6927 149.258 19.5234 148.977 19.3984C148.701 19.2682 148.37 19.2031 147.984 19.2031C147.469 19.2031 147.034 19.3125 146.68 19.5312C146.326 19.7448 146.148 20.0312 146.148 20.3906C146.148 20.6771 146.263 20.9193 146.492 21.1172C146.721 21.3151 147.115 21.474 147.672 21.5937L149.844 22.0312C151.01 22.2708 151.88 22.6562 152.453 23.1875C153.026 23.7187 153.313 24.4167 153.313 25.2812C153.313 26.0677 153.081 26.7578 152.617 27.3516C152.159 27.9453 151.529 28.4089 150.727 28.7422C149.93 29.0703 149.01 29.2344 147.969 29.2344C146.38 29.2344 145.115 28.9036 144.172 28.2422C143.234 27.5755 142.685 26.6693 142.523 25.5234L145.797 25.3516C145.896 25.8359 146.135 26.2057 146.516 26.4609C146.896 26.7109 147.383 26.8359 147.977 26.8359C148.56 26.8359 149.029 26.724 149.383 26.5C149.742 26.2708 149.924 25.9766 149.93 25.6172C149.924 25.3151 149.797 25.0677 149.547 24.875C149.297 24.6771 148.911 24.526 148.391 24.4219L146.313 24.0078C145.141 23.7734 144.268 23.3672 143.695 22.7891C143.128 22.2109 142.844 21.474 142.844 20.5781C142.844 19.8073 143.052 19.1432 143.469 18.5859C143.891 18.0286 144.482 17.599 145.242 17.2969C146.008 16.9948 146.904 16.8438 147.93 16.8438C149.445 16.8438 150.638 17.1641 151.508 17.8047C152.383 18.4453 152.893 19.3177 153.039 20.4219Z" fill="black"/>
</svg>
