<svg width="568" height="42" viewBox="0 0 568 42" fill="none" xmlns="http://www.w3.org/2000/svg">
<rect width="42" height="42" rx="21" fill="#00F7FF" fill-opacity="0.1"/>
<path d="M21 23.9998L18 20.9998M21 23.9998C22.3968 23.4685 23.7369 22.7985 25 21.9998M21 23.9998V28.9998C21 28.9998 24.03 28.4498 25 26.9998C26.08 25.3798 25 21.9998 25 21.9998M18 20.9998C18.5321 19.6192 19.2022 18.2958 20 17.0498C21.1652 15.1867 22.7876 13.6528 24.713 12.5939C26.6384 11.5349 28.8027 10.9861 31 10.9998C31 13.7198 30.22 18.4998 25 21.9998M18 20.9998H13C13 20.9998 13.55 17.9698 15 16.9998C16.62 15.9198 20 16.9998 20 16.9998M13.5 25.4998C12 26.7598 11.5 30.4998 11.5 30.4998C11.5 30.4998 15.24 29.9998 16.5 28.4998C17.21 27.6598 17.2 26.3698 16.41 25.5898C16.0213 25.2188 15.5093 25.0044 14.9722 24.9878C14.4352 24.9712 13.9109 25.1535 13.5 25.4998Z" stroke="#00F7FF" stroke-width="2" stroke-linecap="round" stroke-linejoin="round"/>
<path d="M72 18.1719C71.8906 17.7917 71.737 17.4557 71.5391 17.1641C71.3411 16.8672 71.099 16.6172 70.8125 16.4141C70.5313 16.2057 70.2083 16.0469 69.8438 15.9375C69.4844 15.8281 69.0859 15.7734 68.6484 15.7734C67.8307 15.7734 67.112 15.9766 66.4922 16.3828C65.8776 16.7891 65.3984 17.3802 65.0547 18.1562C64.7109 18.9271 64.5391 19.8698 64.5391 20.9844C64.5391 22.099 64.7083 23.0469 65.0469 23.8281C65.3854 24.6094 65.8646 25.2057 66.4844 25.6172C67.1042 26.0234 67.8359 26.2266 68.6797 26.2266C69.4453 26.2266 70.099 26.0911 70.6406 25.8203C71.1875 25.5443 71.6042 25.1562 71.8906 24.6562C72.1823 24.1562 72.3281 23.5651 72.3281 22.8828L73.0156 22.9844H68.8906V20.4375H75.5859V22.4531C75.5859 23.8594 75.2891 25.0677 74.6953 26.0781C74.1016 27.0833 73.2839 27.8594 72.2422 28.4062C71.2005 28.9479 70.0078 29.2187 68.6641 29.2187C67.1641 29.2187 65.8464 28.888 64.7109 28.2266C63.5755 27.5599 62.6901 26.6146 62.0547 25.3906C61.4245 24.1615 61.1094 22.7031 61.1094 21.0156C61.1094 19.7187 61.2969 18.5625 61.6719 17.5469C62.0521 16.526 62.5833 15.6615 63.2656 14.9531C63.9479 14.2448 64.7422 13.7057 65.6484 13.3359C66.5547 12.9661 67.5365 12.7812 68.5938 12.7812C69.5 12.7812 70.3438 12.9141 71.125 13.1797C71.9063 13.4401 72.599 13.8099 73.2031 14.2891C73.8125 14.7682 74.3099 15.3385 74.6953 16C75.0807 16.6562 75.3281 17.3802 75.4375 18.1719H72ZM83.5332 29.2344C82.2988 29.2344 81.2363 28.9844 80.3457 28.4844C79.4603 27.9792 78.778 27.2656 78.2988 26.3437C77.8197 25.4167 77.5801 24.3203 77.5801 23.0547C77.5801 21.8203 77.8197 20.737 78.2988 19.8047C78.778 18.8724 79.4525 18.1458 80.3223 17.625C81.1973 17.1042 82.2233 16.8438 83.4004 16.8438C84.1921 16.8438 84.929 16.9714 85.6113 17.2266C86.2988 17.4766 86.8978 17.8542 87.4082 18.3594C87.9238 18.8646 88.3249 19.5 88.6113 20.2656C88.8978 21.026 89.041 21.9167 89.041 22.9375V23.8516H78.9082V21.7891H85.9082C85.9082 21.3099 85.804 20.8854 85.5957 20.5156C85.3874 20.1458 85.0983 19.8568 84.7285 19.6484C84.3639 19.4349 83.9395 19.3281 83.4551 19.3281C82.9499 19.3281 82.502 19.4453 82.1113 19.6797C81.7259 19.9089 81.4238 20.2187 81.2051 20.6094C80.9863 20.9948 80.8743 21.4245 80.8691 21.8984V23.8594C80.8691 24.4531 80.9785 24.9661 81.1973 25.3984C81.4212 25.8307 81.7363 26.1641 82.1426 26.3984C82.5488 26.6328 83.0306 26.75 83.5879 26.75C83.9577 26.75 84.2962 26.6979 84.6035 26.5938C84.9108 26.4896 85.1738 26.3333 85.3926 26.125C85.6113 25.9167 85.778 25.6615 85.8926 25.3594L88.9707 25.5625C88.8145 26.3021 88.4941 26.9479 88.0098 27.5C87.5306 28.0469 86.9108 28.474 86.1504 28.7813C85.3952 29.0833 84.5228 29.2344 83.5332 29.2344ZM97.5957 17V19.5H90.3691V17H97.5957ZM92.0098 14.125H95.3379V25.3125C95.3379 25.6198 95.3848 25.8594 95.4785 26.0312C95.5723 26.1979 95.7025 26.3151 95.8691 26.3828C96.041 26.4505 96.2389 26.4844 96.4629 26.4844C96.6191 26.4844 96.7754 26.4714 96.9316 26.4453C97.0879 26.4141 97.2077 26.3906 97.291 26.375L97.8145 28.8516C97.6478 28.9036 97.4134 28.9635 97.1113 29.0313C96.8092 29.1042 96.4421 29.1484 96.0098 29.1641C95.2077 29.1953 94.5046 29.0885 93.9004 28.8437C93.3014 28.599 92.8353 28.2187 92.502 27.7031C92.1686 27.1875 92.0046 26.5365 92.0098 25.75V14.125ZM106.146 17V19.5H98.9199V17H106.146ZM100.561 14.125H103.889V25.3125C103.889 25.6198 103.936 25.8594 104.029 26.0312C104.123 26.1979 104.253 26.3151 104.42 26.3828C104.592 26.4505 104.79 26.4844 105.014 26.4844C105.17 26.4844 105.326 26.4714 105.482 26.4453C105.639 26.4141 105.758 26.3906 105.842 26.375L106.365 28.8516C106.199 28.9036 105.964 28.9635 105.662 29.0313C105.36 29.1042 104.993 29.1484 104.561 29.1641C103.758 29.1953 103.055 29.0885 102.451 28.8437C101.852 28.599 101.386 28.2187 101.053 27.7031C100.719 27.1875 100.555 26.5365 100.561 25.75V14.125ZM108.314 29V17H111.643V29H108.314ZM109.986 15.4531C109.492 15.4531 109.067 15.2891 108.713 14.9609C108.364 14.6276 108.189 14.2292 108.189 13.7656C108.189 13.3073 108.364 12.9141 108.713 12.5859C109.067 12.2526 109.492 12.0859 109.986 12.0859C110.481 12.0859 110.903 12.2526 111.252 12.5859C111.606 12.9141 111.783 13.3073 111.783 13.7656C111.783 14.2292 111.606 14.6276 111.252 14.9609C110.903 15.2891 110.481 15.4531 109.986 15.4531ZM117.637 22.0625V29H114.309V17H117.48V19.1172H117.621C117.887 18.4193 118.332 17.8672 118.957 17.4609C119.582 17.0495 120.34 16.8438 121.23 16.8438C122.064 16.8438 122.79 17.026 123.41 17.3906C124.03 17.7552 124.512 18.276 124.855 18.9531C125.199 19.625 125.371 20.4271 125.371 21.3594V29H122.043V21.9531C122.048 21.2187 121.861 20.6458 121.48 20.2344C121.1 19.8177 120.577 19.6094 119.91 19.6094C119.462 19.6094 119.066 19.7057 118.723 19.8984C118.384 20.0911 118.118 20.3724 117.926 20.7422C117.738 21.1068 117.642 21.5469 117.637 22.0625ZM133.4 33.75C132.322 33.75 131.398 33.6016 130.627 33.3047C129.861 33.013 129.252 32.6146 128.799 32.1094C128.346 31.6042 128.051 31.0365 127.916 30.4062L130.994 29.9922C131.088 30.2318 131.236 30.4557 131.439 30.6641C131.643 30.8724 131.911 31.0391 132.244 31.1641C132.583 31.2943 132.994 31.3594 133.479 31.3594C134.202 31.3594 134.799 31.1823 135.268 30.8281C135.742 30.4792 135.979 29.8932 135.979 29.0703V26.875H135.838C135.692 27.2083 135.473 27.5234 135.182 27.8203C134.89 28.1172 134.515 28.3594 134.057 28.5469C133.598 28.7344 133.051 28.8281 132.416 28.8281C131.515 28.8281 130.695 28.6198 129.955 28.2031C129.221 27.7812 128.635 27.138 128.197 26.2734C127.765 25.4036 127.549 24.3047 127.549 22.9766C127.549 21.6172 127.77 20.4818 128.213 19.5703C128.656 18.6589 129.244 17.9766 129.979 17.5234C130.718 17.0703 131.528 16.8438 132.408 16.8438C133.08 16.8438 133.643 16.9583 134.096 17.1875C134.549 17.4115 134.913 17.6927 135.189 18.0312C135.471 18.3646 135.687 18.6927 135.838 19.0156H135.963V17H139.268V29.1172C139.268 30.138 139.018 30.9922 138.518 31.6797C138.018 32.3672 137.325 32.8828 136.439 33.2266C135.559 33.5755 134.546 33.75 133.4 33.75ZM133.471 26.3281C134.007 26.3281 134.46 26.1953 134.83 25.9297C135.205 25.6589 135.492 25.2734 135.689 24.7734C135.893 24.2682 135.994 23.6641 135.994 22.9609C135.994 22.2578 135.895 21.6484 135.697 21.1328C135.499 20.612 135.213 20.2083 134.838 19.9219C134.463 19.6354 134.007 19.4922 133.471 19.4922C132.924 19.4922 132.463 19.6406 132.088 19.9375C131.713 20.2292 131.429 20.6354 131.236 21.1562C131.044 21.6771 130.947 22.2786 130.947 22.9609C130.947 23.6536 131.044 24.2526 131.236 24.7578C131.434 25.2578 131.718 25.6458 132.088 25.9219C132.463 26.1927 132.924 26.3281 133.471 26.3281ZM155.75 17.6016C155.688 16.9714 155.419 16.4818 154.945 16.1328C154.471 15.7839 153.828 15.6094 153.016 15.6094C152.464 15.6094 151.997 15.6875 151.617 15.8437C151.237 15.9948 150.945 16.2057 150.742 16.4766C150.544 16.7474 150.445 17.0547 150.445 17.3984C150.435 17.6849 150.495 17.9349 150.625 18.1484C150.76 18.362 150.945 18.5469 151.18 18.7031C151.414 18.8542 151.685 18.987 151.992 19.1016C152.299 19.2109 152.628 19.3047 152.977 19.3828L154.414 19.7266C155.112 19.8828 155.753 20.0911 156.336 20.3516C156.919 20.612 157.424 20.9323 157.852 21.3125C158.279 21.6927 158.609 22.1406 158.844 22.6562C159.083 23.1719 159.206 23.763 159.211 24.4297C159.206 25.4089 158.956 26.2578 158.461 26.9766C157.971 27.6901 157.263 28.2448 156.336 28.6406C155.414 29.0312 154.302 29.2266 153 29.2266C151.708 29.2266 150.583 29.0286 149.625 28.6328C148.672 28.237 147.927 27.651 147.391 26.875C146.859 26.0937 146.581 25.1276 146.555 23.9766H149.828C149.865 24.513 150.018 24.9609 150.289 25.3203C150.565 25.6745 150.932 25.9427 151.391 26.125C151.854 26.3021 152.378 26.3906 152.961 26.3906C153.534 26.3906 154.031 26.3073 154.453 26.1406C154.88 25.974 155.211 25.7422 155.445 25.4453C155.68 25.1484 155.797 24.8073 155.797 24.4219C155.797 24.0625 155.69 23.7604 155.477 23.5156C155.268 23.2708 154.961 23.0625 154.555 22.8906C154.154 22.7187 153.661 22.5625 153.078 22.4219L151.336 21.9844C149.987 21.6562 148.922 21.1432 148.141 20.4453C147.359 19.7474 146.971 18.8073 146.977 17.625C146.971 16.6562 147.229 15.8099 147.75 15.0859C148.276 14.362 148.997 13.7969 149.914 13.3906C150.831 12.9844 151.872 12.7812 153.039 12.7812C154.227 12.7812 155.263 12.9844 156.148 13.3906C157.039 13.7969 157.732 14.362 158.227 15.0859C158.721 15.8099 158.977 16.6484 158.992 17.6016H155.75ZM167.807 17V19.5H160.58V17H167.807ZM162.221 14.125H165.549V25.3125C165.549 25.6198 165.596 25.8594 165.689 26.0312C165.783 26.1979 165.913 26.3151 166.08 26.3828C166.252 26.4505 166.45 26.4844 166.674 26.4844C166.83 26.4844 166.986 26.4714 167.143 26.4453C167.299 26.4141 167.419 26.3906 167.502 26.375L168.025 28.8516C167.859 28.9036 167.624 28.9635 167.322 29.0313C167.02 29.1042 166.653 29.1484 166.221 29.1641C165.419 29.1953 164.715 29.0885 164.111 28.8437C163.512 28.599 163.046 28.2187 162.713 27.7031C162.38 27.1875 162.215 26.5365 162.221 25.75V14.125ZM173.396 29.2266C172.631 29.2266 171.949 29.0938 171.35 28.8281C170.751 28.5573 170.277 28.1589 169.928 27.6328C169.584 27.1016 169.412 26.4401 169.412 25.6484C169.412 24.9818 169.535 24.4219 169.779 23.9687C170.024 23.5156 170.357 23.151 170.779 22.875C171.201 22.599 171.68 22.3906 172.217 22.25C172.758 22.1094 173.326 22.0104 173.92 21.9531C174.618 21.8802 175.18 21.8125 175.607 21.75C176.035 21.6823 176.344 21.5833 176.537 21.4531C176.73 21.3229 176.826 21.1302 176.826 20.875V20.8281C176.826 20.3333 176.67 19.9505 176.357 19.6797C176.05 19.4089 175.613 19.2734 175.045 19.2734C174.446 19.2734 173.969 19.4062 173.615 19.6719C173.261 19.9323 173.027 20.2604 172.912 20.6562L169.834 20.4062C169.99 19.6771 170.298 19.0469 170.756 18.5156C171.214 17.9792 171.805 17.5677 172.529 17.2812C173.258 16.9896 174.102 16.8438 175.061 16.8438C175.727 16.8438 176.365 16.9219 176.975 17.0781C177.589 17.2344 178.133 17.4766 178.607 17.8047C179.087 18.1328 179.464 18.5547 179.74 19.0703C180.016 19.5807 180.154 20.1927 180.154 20.9062V29H176.998V27.3359H176.904C176.712 27.7109 176.454 28.0417 176.131 28.3281C175.808 28.6094 175.42 28.8307 174.967 28.9922C174.514 29.1484 173.99 29.2266 173.396 29.2266ZM174.35 26.9297C174.839 26.9297 175.271 26.8333 175.646 26.6406C176.021 26.4427 176.316 26.1771 176.529 25.8438C176.743 25.5104 176.85 25.1328 176.85 24.7109V23.4375C176.745 23.5052 176.602 23.5677 176.42 23.625C176.243 23.6771 176.042 23.7266 175.818 23.7734C175.594 23.8151 175.37 23.8542 175.146 23.8906C174.923 23.9219 174.719 23.9505 174.537 23.9766C174.146 24.0339 173.805 24.125 173.514 24.25C173.222 24.375 172.995 24.5443 172.834 24.7578C172.673 24.9661 172.592 25.2266 172.592 25.5391C172.592 25.9922 172.756 26.3385 173.084 26.5781C173.417 26.8125 173.839 26.9297 174.35 26.9297ZM182.736 29V17H185.963V19.0937H186.088C186.307 18.349 186.674 17.7865 187.189 17.4063C187.705 17.0208 188.299 16.8281 188.971 16.8281C189.137 16.8281 189.317 16.8385 189.51 16.8594C189.702 16.8802 189.872 16.9089 190.018 16.9453V19.8984C189.861 19.8516 189.645 19.8099 189.369 19.7734C189.093 19.737 188.84 19.7188 188.611 19.7188C188.122 19.7188 187.684 19.8255 187.299 20.0391C186.919 20.2474 186.617 20.5391 186.393 20.9141C186.174 21.2891 186.064 21.7214 186.064 22.2109V29H182.736ZM198.723 17V19.5H191.496V17H198.723ZM193.137 14.125H196.465V25.3125C196.465 25.6198 196.512 25.8594 196.605 26.0312C196.699 26.1979 196.829 26.3151 196.996 26.3828C197.168 26.4505 197.366 26.4844 197.59 26.4844C197.746 26.4844 197.902 26.4714 198.059 26.4453C198.215 26.4141 198.335 26.3906 198.418 26.375L198.941 28.8516C198.775 28.9036 198.54 28.9635 198.238 29.0313C197.936 29.1042 197.569 29.1484 197.137 29.1641C196.335 29.1953 195.632 29.0885 195.027 28.8437C194.428 28.599 193.962 28.2187 193.629 27.7031C193.296 27.1875 193.132 26.5365 193.137 25.75V14.125ZM206.23 29.2344C204.996 29.2344 203.934 28.9844 203.043 28.4844C202.158 27.9792 201.475 27.2656 200.996 26.3437C200.517 25.4167 200.277 24.3203 200.277 23.0547C200.277 21.8203 200.517 20.737 200.996 19.8047C201.475 18.8724 202.15 18.1458 203.02 17.625C203.895 17.1042 204.921 16.8438 206.098 16.8438C206.889 16.8438 207.626 16.9714 208.309 17.2266C208.996 17.4766 209.595 17.8542 210.105 18.3594C210.621 18.8646 211.022 19.5 211.309 20.2656C211.595 21.026 211.738 21.9167 211.738 22.9375V23.8516H201.605V21.7891H208.605C208.605 21.3099 208.501 20.8854 208.293 20.5156C208.085 20.1458 207.796 19.8568 207.426 19.6484C207.061 19.4349 206.637 19.3281 206.152 19.3281C205.647 19.3281 205.199 19.4453 204.809 19.6797C204.423 19.9089 204.121 20.2187 203.902 20.6094C203.684 20.9948 203.572 21.4245 203.566 21.8984V23.8594C203.566 24.4531 203.676 24.9661 203.895 25.3984C204.118 25.8307 204.434 26.1641 204.84 26.3984C205.246 26.6328 205.728 26.75 206.285 26.75C206.655 26.75 206.993 26.6979 207.301 26.5938C207.608 26.4896 207.871 26.3333 208.09 26.125C208.309 25.9167 208.475 25.6615 208.59 25.3594L211.668 25.5625C211.512 26.3021 211.191 26.9479 210.707 27.5C210.228 28.0469 209.608 28.474 208.848 28.7813C208.092 29.0833 207.22 29.2344 206.23 29.2344ZM218.332 29.1953C217.421 29.1953 216.595 28.9609 215.855 28.4922C215.121 28.0182 214.538 27.3229 214.105 26.4062C213.678 25.4844 213.465 24.3542 213.465 23.0156C213.465 21.6406 213.686 20.4974 214.129 19.5859C214.572 18.6693 215.16 17.9844 215.895 17.5313C216.634 17.0729 217.444 16.8438 218.324 16.8438C218.996 16.8438 219.556 16.9583 220.004 17.1875C220.457 17.4115 220.822 17.6927 221.098 18.0312C221.379 18.3646 221.592 18.6927 221.738 19.0156H221.84V13H225.16V29H221.879V27.0781H221.738C221.582 27.4115 221.361 27.7422 221.074 28.0703C220.793 28.3932 220.426 28.6615 219.973 28.875C219.525 29.0885 218.978 29.1953 218.332 29.1953ZM219.387 26.5469C219.923 26.5469 220.376 26.401 220.746 26.1094C221.121 25.8125 221.408 25.3984 221.605 24.8672C221.809 24.3359 221.91 23.7135 221.91 23C221.91 22.2865 221.811 21.6667 221.613 21.1406C221.415 20.6146 221.129 20.2083 220.754 19.9219C220.379 19.6354 219.923 19.4922 219.387 19.4922C218.84 19.4922 218.379 19.6406 218.004 19.9375C217.629 20.2344 217.345 20.6458 217.152 21.1719C216.96 21.6979 216.863 22.3073 216.863 23C216.863 23.6979 216.96 24.3151 217.152 24.8516C217.35 25.3828 217.634 25.7995 218.004 26.1016C218.379 26.3984 218.84 26.5469 219.387 26.5469Z" fill="black"/>
</svg>
