<svg xmlns="http://www.w3.org/2000/svg" width="1024" height="1024" fill="none" viewBox="0 0 1024 1024"><rect width="1024" height="1024" fill="#000" rx="150"/><path stroke="#fff" stroke-width="4" d="M344.818 818.006C321.038 805.399 290.862 806.549 268.577 801.902C257.435 799.571 247.581 795.453 242.78 786.112C237.995 776.787 238.869 763.942 245.664 745.361C247.788 738.75 246.185 728.988 244.605 718.667C243.846 713.706 243.095 708.552 243.095 703.468C243.095 697.969 243.969 692.548 246.66 687.525C246.676 687.51 246.684 687.487 246.691 687.472C246.699 687.472 246.699 687.463 246.699 687.463C252.42 676.482 261.844 671.943 270.433 668.86C279.022 665.785 286.828 663.707 292.311 658.231C298.178 652.027 303.446 642.81 310.57 635.195C311.529 634.183 312.526 633.193 313.576 632.25C310.225 610.103 313.86 586.707 321.498 563.755C337.686 515.114 371.872 468.389 396.143 439.525C416.81 410.154 422.899 386.474 425.023 356.429C426.748 315.348 395.944 192.652 512.076 183.304C516.67 182.936 521.079 182.759 525.305 182.767C629.229 182.913 623.385 292.427 622.734 351.482C622.312 390.178 643.708 416.374 665.586 443.973C685.133 467.07 710.723 500.834 725.377 539.591C737.325 571.163 741.965 606.108 730.132 641.199C731.903 641.866 733.675 642.71 735.422 643.745C737.163 644.781 738.896 646.023 740.583 647.495C740.598 647.511 740.621 647.526 740.637 647.542C749.149 654.789 751.809 665.969 754.187 676.337C756.572 686.713 758.789 696.452 763.443 701.705C763.443 701.712 763.451 701.72 763.459 701.728C777.615 717.44 783.773 729.189 783.176 739.672C782.57 750.163 774.817 757.386 765.255 763.153C746.122 774.686 717.28 783.421 699.903 804.494M344.841 818.013C370.3 831.326 396.113 836.051 416.703 831.349C431.641 827.945 443.757 819.049 449.984 805.368C466.088 805.291 483.764 798.466 512.076 796.91C531.286 795.361 555.281 803.735 582.88 802.201C583.601 805.192 584.644 808.075 586.07 810.813C586.086 810.835 586.101 810.866 586.117 810.889C596.814 832.285 616.691 842.07 637.879 840.398C659.09 838.725 681.643 826.219 699.88 804.524"/><path fill="#fff" d="M774.448 739.173C774.08 745.644 769.395 750.453 760.737 755.668C743.436 766.104 712.769 775.184 693.192 798.903C676.183 819.14 655.447 830.252 637.189 831.693C618.931 833.135 603.179 825.559 593.885 806.916L593.869 806.878L593.846 806.831C588.079 795.865 590.479 778.573 595.333 760.322C600.188 742.079 607.166 723.337 608.102 708.115V708.068C609.082 688.56 610.18 671.52 613.453 658.368C616.736 645.217 621.896 636.321 631.038 631.314C631.468 631.084 631.889 630.861 632.31 630.654C633.346 647.548 641.713 664.788 656.497 668.514C672.678 672.778 695.998 658.898 705.845 647.571C707.815 647.494 709.732 647.395 711.596 647.349C720.239 647.141 727.478 647.64 734.885 654.112L734.908 654.135L734.931 654.151C740.621 658.974 743.328 668.084 745.674 678.284C748.022 688.491 749.892 699.602 756.933 707.524L756.94 707.531L756.948 707.548C770.476 722.555 774.824 732.693 774.448 739.173Z"/><path fill="#fff" d="M445.659 787.009L445.652 787.055V787.109C444.087 807.615 432.523 818.78 414.763 822.837C397.018 826.893 372.946 822.853 348.913 810.283C348.905 810.283 348.898 810.276 348.89 810.276C322.296 796.189 290.663 797.592 270.364 793.351C260.219 791.235 253.593 788.045 250.556 782.125C247.52 776.197 247.451 765.867 253.907 748.253L253.938 748.175L253.961 748.098C257.159 738.244 254.789 727.462 253.24 717.34C251.691 707.226 250.932 698.016 254.391 691.604L254.421 691.543C258.846 683.016 265.334 679.963 273.386 677.08C281.445 674.189 290.993 671.92 298.531 664.358L298.577 664.32L298.615 664.281C305.586 656.927 310.823 647.702 316.951 641.161C322.119 635.639 327.295 631.981 335.094 631.928C335.186 631.936 335.271 631.936 335.363 631.928C336.728 631.936 338.177 632.05 339.711 632.289C350.063 633.853 359.089 641.092 367.785 652.886L392.892 698.644L392.9 698.667L392.915 698.682C399.594 712.631 413.705 727.976 425.66 743.628C437.615 759.272 446.863 774.985 445.659 787.009Z"/><path fill="#fff" d="M570.872 360.44C568.855 356.49 564.737 352.733 557.728 349.857L557.713 349.849L557.69 349.842C543.112 343.599 536.785 343.155 528.649 337.863C515.405 329.351 504.462 326.368 495.367 326.407C490.605 326.422 486.349 327.265 482.538 328.584C471.457 332.396 464.103 340.348 459.494 344.711L459.486 344.719C459.486 344.727 459.479 344.727 459.479 344.734C458.574 345.593 457.408 346.375 454.586 348.446C451.741 350.524 447.477 353.653 441.342 358.254C435.89 362.341 434.119 367.663 436.005 373.898C437.884 380.132 443.896 387.325 454.893 393.545L454.908 393.56L454.931 393.568C461.756 397.578 466.419 402.985 471.771 407.287C474.448 409.434 477.262 411.351 480.651 412.8C484.041 414.25 487.998 415.231 492.952 415.523C504.577 416.198 513.135 412.708 520.689 408.383C528.258 404.066 534.668 398.782 542.023 396.397L542.038 396.39L542.054 396.382C557.13 391.674 567.882 382.188 571.248 373.177C572.935 368.668 572.881 364.389 570.872 360.44Z"/><path fill="#202020" d="M532.621 382.693C520.627 388.945 506.617 396.527 491.709 396.527C476.809 396.527 465.038 389.641 456.572 382.931C452.339 379.58 448.903 376.244 446.311 373.821C441.814 370.271 442.353 365.292 444.201 365.439C447.298 365.825 447.766 369.903 449.716 371.727C452.354 374.196 455.659 377.394 459.662 380.569C467.668 386.911 478.343 393.084 491.709 393.084C505.052 393.084 520.629 385.25 530.136 379.917C535.523 376.895 542.377 371.479 547.971 367.373C552.25 364.232 552.094 360.449 555.628 360.861C559.161 361.273 556.547 365.048 551.599 369.367C546.65 373.685 538.909 379.415 532.621 382.693Z"/><path fill="#fff" d="M716.282 638.639C714.618 638.577 712.977 638.586 711.382 638.623C711.236 638.631 711.09 638.631 710.937 638.631C715.055 625.625 705.945 616.032 681.666 605.05C656.49 593.978 636.43 595.074 633.04 617.543C632.825 618.716 632.649 619.92 632.519 621.131C630.632 621.791 628.746 622.619 626.844 623.654C615.027 630.127 608.57 641.859 604.981 656.262C601.4 670.648 600.364 688.032 599.383 707.58C599.383 707.587 599.383 707.587 599.383 707.595C598.777 717.419 594.728 730.716 590.633 744.796C549.392 774.219 492.154 786.964 443.55 753.79C440.261 748.583 436.48 743.422 432.592 738.33C430.108 735.08 427.554 731.851 425.023 728.661C430.008 728.669 434.249 727.848 437.676 726.299C441.94 724.359 444.931 721.261 446.419 717.273C449.379 709.305 446.403 698.063 436.917 685.218C427.431 672.381 411.366 657.895 387.762 643.417C387.762 643.417 387.762 643.417 387.762 643.409C370.416 632.62 360.723 619.398 356.183 605.044C351.635 590.68 352.272 575.152 355.776 559.822C362.494 530.398 379.748 501.779 390.76 483.819C393.72 481.641 391.818 487.868 379.61 510.536C368.675 531.258 348.223 579.078 376.221 616.409C376.972 589.845 383.314 562.752 393.966 537.407C409.479 502.247 441.925 441.259 444.501 392.656C445.836 393.622 450.398 396.705 452.431 397.863C452.438 397.87 452.438 397.87 452.446 397.87C458.397 401.375 462.868 406.497 468.657 411.152C474.462 415.815 481.709 419.841 492.66 420.477C493.71 420.538 494.738 420.569 495.743 420.569C507.031 420.569 515.834 416.888 523.165 412.694C531.134 408.138 537.498 403.093 543.534 401.129C543.541 401.122 543.549 401.122 543.557 401.122C556.309 397.134 566.44 390.079 572.206 381.858C582.113 420.907 605.15 477.309 619.958 504.831C627.834 519.432 643.492 550.459 650.257 587.843C654.543 587.712 659.267 588.334 664.321 589.629C682.012 543.763 649.321 494.37 634.367 480.613C628.332 474.754 628.041 472.132 631.039 472.254C647.251 486.602 668.545 515.444 676.291 548.004C679.826 562.85 680.578 578.464 676.789 593.87C678.637 594.637 680.524 595.472 682.433 596.378C710.83 610.204 721.328 622.228 716.282 638.639Z"/><path fill="#fff" d="M572.206 315.455C572.267 323.193 570.933 329.78 567.996 336.505C566.324 340.34 564.4 343.56 562.092 346.352C561.309 345.976 560.496 345.616 559.652 345.271C556.73 344.021 554.146 342.993 551.831 342.119C549.514 341.245 547.707 340.647 545.843 340.003C547.193 338.37 549.853 336.445 550.843 334.029C552.346 330.387 553.083 326.829 553.221 322.588C553.221 322.419 553.274 322.273 553.274 322.074C553.359 318.01 552.822 314.536 551.633 310.978C550.391 307.243 548.81 304.559 546.526 302.328C544.233 300.096 541.948 299.084 539.203 298.992C539.072 298.984 538.949 298.984 538.819 298.984C536.242 298.992 534.003 299.881 531.687 301.814C529.256 303.846 527.454 306.446 525.951 310.065C524.456 313.685 523.72 317.274 523.573 321.537C523.551 321.706 523.551 321.852 523.551 322.02C523.497 324.367 523.651 326.514 524.011 328.6C518.735 325.97 511.985 324.052 507.323 322.94C507.054 320.923 506.901 318.845 506.855 316.667V316.076C506.771 308.362 508.036 301.744 511.004 295.026C513.971 288.301 517.645 283.47 522.812 279.536C527.989 275.61 533.074 273.807 539.093 273.746H539.377C545.266 273.746 550.304 275.479 555.48 279.229C560.733 283.048 564.522 287.818 567.574 294.489C570.564 300.992 572.006 307.35 572.153 314.888C572.152 315.087 572.152 315.256 572.206 315.455Z"/><path fill="#fff" d="M483.189 323.163C482.415 323.385 481.663 323.623 480.92 323.876C476.702 325.333 473.353 326.941 470.117 329.081C470.431 326.842 470.477 324.572 470.232 322.033C470.209 321.895 470.209 321.78 470.209 321.642C469.872 318.276 469.158 315.454 467.97 312.601C466.704 309.633 465.286 307.54 463.422 305.929C461.735 304.472 460.14 303.798 458.376 303.813C458.2 303.813 458.016 303.821 457.832 303.836C455.854 304.005 454.212 304.971 452.656 306.865C451.107 308.751 450.087 311.098 449.351 314.211C448.614 317.317 448.423 320.369 448.729 323.874C448.729 324.012 448.76 324.127 448.76 324.265C449.098 327.662 449.78 330.484 450.992 333.337C452.234 336.274 453.676 338.367 455.539 339.978C455.854 340.246 456.16 340.492 456.467 340.706C454.535 342.202 453.236 343.262 451.641 344.428C450.621 345.172 449.41 346.061 447.999 347.104C444.923 344.221 442.523 340.601 440.422 335.824C437.937 330.18 436.611 324.528 436.212 317.856V317.803C435.844 311.131 436.496 305.395 438.328 299.46C440.169 293.524 442.623 289.23 446.189 285.702C449.747 282.167 453.336 280.388 457.661 280.166C457.998 280.15 458.328 280.143 458.658 280.143C462.576 280.15 466.073 281.454 469.693 284.345C473.619 287.481 476.587 291.492 479.071 297.144C481.564 302.795 482.89 308.447 483.258 315.119V315.172C483.435 317.971 483.412 320.609 483.189 323.163Z"/><path fill="#202020" d="M502.864 339.121C503.36 340.713 505.926 340.449 507.409 341.213C508.71 341.883 509.756 343.351 511.219 343.394C512.615 343.434 514.787 342.91 514.969 341.525C515.209 339.696 512.537 338.533 510.818 337.863C508.606 337.001 505.772 336.563 503.697 337.717C503.221 337.981 502.702 338.601 502.864 339.121Z"/><path fill="#202020" d="M487.708 339.121C487.212 340.713 484.646 340.449 483.163 341.213C481.862 341.883 480.816 343.351 479.353 343.394C477.957 343.434 475.785 342.91 475.603 341.525C475.363 339.696 478.035 338.533 479.754 337.863C481.966 337.001 484.8 336.563 486.875 337.717C487.351 337.981 487.87 338.601 487.708 339.121Z"/></svg>