<svg width="568" height="42" viewBox="0 0 568 42" fill="none" xmlns="http://www.w3.org/2000/svg">
<rect width="42" height="42" rx="21" fill="#FFA600" fill-opacity="0.1"/>
<path d="M30 24L26.914 20.914C26.5389 20.5391 26.0303 20.3284 25.5 20.3284C24.9697 20.3284 24.4611 20.5391 24.086 20.914L15 30M14 12H28C29.1046 12 30 12.8954 30 14V28C30 29.1046 29.1046 30 28 30H14C12.8954 30 12 29.1046 12 28V14C12 12.8954 12.8954 12 14 12ZM20 18C20 19.1046 19.1046 20 18 20C16.8954 20 16 19.1046 16 18C16 16.8954 16.8954 16 18 16C19.1046 16 20 16.8954 20 18Z" stroke="#FFA600" stroke-width="2" stroke-linecap="round" stroke-linejoin="round"/>
<path d="M70.0703 17.6016C70.0078 16.9714 69.7396 16.4818 69.2656 16.1328C68.7917 15.7839 68.1484 15.6094 67.3359 15.6094C66.7839 15.6094 66.3177 15.6875 65.9375 15.8437C65.5573 15.9948 65.2656 16.2057 65.0625 16.4766C64.8646 16.7474 64.7656 17.0547 64.7656 17.3984C64.7552 17.6849 64.8151 17.9349 64.9453 18.1484C65.0807 18.362 65.2656 18.5469 65.5 18.7031C65.7344 18.8542 66.0052 18.987 66.3125 19.1016C66.6198 19.2109 66.9479 19.3047 67.2969 19.3828L68.7344 19.7266C69.4323 19.8828 70.0729 20.0911 70.6562 20.3516C71.2396 20.612 71.7448 20.9323 72.1719 21.3125C72.599 21.6927 72.9297 22.1406 73.1641 22.6562C73.4036 23.1719 73.526 23.763 73.5312 24.4297C73.526 25.4089 73.276 26.2578 72.7813 26.9766C72.2917 27.6901 71.5833 28.2448 70.6562 28.6406C69.7344 29.0312 68.6224 29.2266 67.3203 29.2266C66.0286 29.2266 64.9036 29.0286 63.9453 28.6328C62.9922 28.237 62.2474 27.651 61.7109 26.875C61.1797 26.0937 60.901 25.1276 60.875 23.9766H64.1484C64.1849 24.513 64.3385 24.9609 64.6094 25.3203C64.8854 25.6745 65.2526 25.9427 65.7109 26.125C66.1745 26.3021 66.6979 26.3906 67.2812 26.3906C67.8542 26.3906 68.3516 26.3073 68.7734 26.1406C69.2005 25.974 69.5313 25.7422 69.7656 25.4453C70 25.1484 70.1172 24.8073 70.1172 24.4219C70.1172 24.0625 70.0104 23.7604 69.7969 23.5156C69.5885 23.2708 69.2813 23.0625 68.875 22.8906C68.474 22.7187 67.9818 22.5625 67.3984 22.4219L65.6563 21.9844C64.3073 21.6562 63.2422 21.1432 62.4609 20.4453C61.6797 19.7474 61.2917 18.8073 61.2969 17.625C61.2917 16.6562 61.5495 15.8099 62.0703 15.0859C62.5964 14.362 63.3177 13.7969 64.2344 13.3906C65.151 12.9844 66.1927 12.7812 67.3594 12.7812C68.5469 12.7812 69.5833 12.9844 70.4688 13.3906C71.3594 13.7969 72.0521 14.362 72.5469 15.0859C73.0417 15.8099 73.2969 16.6484 73.3125 17.6016H70.0703ZM81.166 29.2344C79.9368 29.2344 78.8796 28.974 77.9941 28.4531C77.1139 27.9271 76.4368 27.1979 75.9629 26.2656C75.4941 25.3333 75.2598 24.2604 75.2598 23.0469C75.2598 21.8177 75.4967 20.7396 75.9707 19.8125C76.4499 18.8802 77.1296 18.1536 78.0098 17.6328C78.89 17.1068 79.9368 16.8438 81.1504 16.8438C82.1973 16.8438 83.1139 17.0339 83.9004 17.4141C84.6868 17.7943 85.3092 18.3281 85.7676 19.0156C86.2259 19.7031 86.4785 20.5104 86.5254 21.4375H83.3848C83.2962 20.8385 83.0618 20.3568 82.6816 19.9922C82.3066 19.6224 81.8145 19.4375 81.2051 19.4375C80.6895 19.4375 80.2389 19.5781 79.8535 19.8594C79.4733 20.1354 79.1764 20.5391 78.9629 21.0703C78.7493 21.6016 78.6426 22.2448 78.6426 23C78.6426 23.7656 78.7467 24.4167 78.9551 24.9531C79.1686 25.4896 79.4681 25.8984 79.8535 26.1797C80.2389 26.4609 80.6895 26.6016 81.2051 26.6016C81.5853 26.6016 81.9264 26.5234 82.2285 26.3672C82.5358 26.2109 82.7884 25.9844 82.9863 25.6875C83.1895 25.3854 83.3223 25.0234 83.3848 24.6016H86.5254C86.4733 25.5182 86.2233 26.3255 85.7754 27.0234C85.3327 27.7161 84.7207 28.2578 83.9395 28.6484C83.1582 29.0391 82.2337 29.2344 81.166 29.2344ZM88.6563 29V17H91.8828V19.0937H92.0078C92.2266 18.349 92.5938 17.7865 93.1094 17.4063C93.625 17.0208 94.2188 16.8281 94.8906 16.8281C95.0573 16.8281 95.237 16.8385 95.4297 16.8594C95.6224 16.8802 95.7917 16.9089 95.9375 16.9453V19.8984C95.7813 19.8516 95.5651 19.8099 95.2891 19.7734C95.013 19.737 94.7604 19.7188 94.5313 19.7188C94.0417 19.7188 93.6042 19.8255 93.2188 20.0391C92.8385 20.2474 92.5365 20.5391 92.3125 20.9141C92.0938 21.2891 91.9844 21.7214 91.9844 22.2109V29H88.6563ZM102.568 29.2344C101.334 29.2344 100.271 28.9844 99.3809 28.4844C98.4954 27.9792 97.8132 27.2656 97.334 26.3437C96.8548 25.4167 96.6152 24.3203 96.6152 23.0547C96.6152 21.8203 96.8548 20.737 97.334 19.8047C97.8132 18.8724 98.4876 18.1458 99.3574 17.625C100.232 17.1042 101.258 16.8438 102.436 16.8438C103.227 16.8438 103.964 16.9714 104.646 17.2266C105.334 17.4766 105.933 17.8542 106.443 18.3594C106.959 18.8646 107.36 19.5 107.646 20.2656C107.933 21.026 108.076 21.9167 108.076 22.9375V23.8516H97.9434V21.7891H104.943C104.943 21.3099 104.839 20.8854 104.631 20.5156C104.423 20.1458 104.133 19.8568 103.764 19.6484C103.399 19.4349 102.975 19.3281 102.49 19.3281C101.985 19.3281 101.537 19.4453 101.146 19.6797C100.761 19.9089 100.459 20.2187 100.24 20.6094C100.021 20.9948 99.9095 21.4245 99.9043 21.8984V23.8594C99.9043 24.4531 100.014 24.9661 100.232 25.3984C100.456 25.8307 100.771 26.1641 101.178 26.3984C101.584 26.6328 102.066 26.75 102.623 26.75C102.993 26.75 103.331 26.6979 103.639 26.5938C103.946 26.4896 104.209 26.3333 104.428 26.125C104.646 25.9167 104.813 25.6615 104.928 25.3594L108.006 25.5625C107.85 26.3021 107.529 26.9479 107.045 27.5C106.566 28.0469 105.946 28.474 105.186 28.7813C104.43 29.0833 103.558 29.2344 102.568 29.2344ZM115.717 29.2344C114.482 29.2344 113.42 28.9844 112.529 28.4844C111.644 27.9792 110.962 27.2656 110.482 26.3437C110.003 25.4167 109.764 24.3203 109.764 23.0547C109.764 21.8203 110.003 20.737 110.482 19.8047C110.962 18.8724 111.636 18.1458 112.506 17.625C113.381 17.1042 114.407 16.8438 115.584 16.8438C116.376 16.8438 117.113 16.9714 117.795 17.2266C118.482 17.4766 119.081 17.8542 119.592 18.3594C120.107 18.8646 120.508 19.5 120.795 20.2656C121.081 21.026 121.225 21.9167 121.225 22.9375V23.8516H111.092V21.7891H118.092C118.092 21.3099 117.988 20.8854 117.779 20.5156C117.571 20.1458 117.282 19.8568 116.912 19.6484C116.548 19.4349 116.123 19.3281 115.639 19.3281C115.133 19.3281 114.686 19.4453 114.295 19.6797C113.91 19.9089 113.607 20.2187 113.389 20.6094C113.17 20.9948 113.058 21.4245 113.053 21.8984V23.8594C113.053 24.4531 113.162 24.9661 113.381 25.3984C113.605 25.8307 113.92 26.1641 114.326 26.3984C114.732 26.6328 115.214 26.75 115.771 26.75C116.141 26.75 116.48 26.6979 116.787 26.5938C117.094 26.4896 117.357 26.3333 117.576 26.125C117.795 25.9167 117.962 25.6615 118.076 25.3594L121.154 25.5625C120.998 26.3021 120.678 26.9479 120.193 27.5C119.714 28.0469 119.094 28.474 118.334 28.7813C117.579 29.0833 116.706 29.2344 115.717 29.2344ZM126.725 22.0625V29H123.396V17H126.568V19.1172H126.709C126.975 18.4193 127.42 17.8672 128.045 17.4609C128.67 17.0495 129.428 16.8438 130.318 16.8438C131.152 16.8438 131.878 17.026 132.498 17.3906C133.118 17.7552 133.6 18.276 133.943 18.9531C134.287 19.625 134.459 20.4271 134.459 21.3594V29H131.131V21.9531C131.136 21.2187 130.949 20.6458 130.568 20.2344C130.188 19.8177 129.665 19.6094 128.998 19.6094C128.55 19.6094 128.154 19.7057 127.811 19.8984C127.472 20.0911 127.206 20.3724 127.014 20.7422C126.826 21.1068 126.73 21.5469 126.725 22.0625ZM147.066 20.4219L144.02 20.6094C143.967 20.349 143.855 20.1146 143.684 19.9062C143.512 19.6927 143.285 19.5234 143.004 19.3984C142.728 19.2682 142.397 19.2031 142.012 19.2031C141.496 19.2031 141.061 19.3125 140.707 19.5312C140.353 19.7448 140.176 20.0312 140.176 20.3906C140.176 20.6771 140.29 20.9193 140.52 21.1172C140.749 21.3151 141.142 21.474 141.699 21.5937L143.871 22.0312C145.038 22.2708 145.908 22.6562 146.48 23.1875C147.053 23.7187 147.34 24.4167 147.34 25.2812C147.34 26.0677 147.108 26.7578 146.645 27.3516C146.186 27.9453 145.556 28.4089 144.754 28.7422C143.957 29.0703 143.038 29.2344 141.996 29.2344C140.408 29.2344 139.142 28.9036 138.199 28.2422C137.262 27.5755 136.712 26.6693 136.551 25.5234L139.824 25.3516C139.923 25.8359 140.163 26.2057 140.543 26.4609C140.923 26.7109 141.41 26.8359 142.004 26.8359C142.587 26.8359 143.056 26.724 143.41 26.5C143.77 26.2708 143.952 25.9766 143.957 25.6172C143.952 25.3151 143.824 25.0677 143.574 24.875C143.324 24.6771 142.939 24.526 142.418 24.4219L140.34 24.0078C139.168 23.7734 138.296 23.3672 137.723 22.7891C137.155 22.2109 136.871 21.474 136.871 20.5781C136.871 19.8073 137.079 19.1432 137.496 18.5859C137.918 18.0286 138.509 17.599 139.27 17.2969C140.035 16.9948 140.931 16.8438 141.957 16.8438C143.473 16.8438 144.665 17.1641 145.535 17.8047C146.41 18.4453 146.921 19.3177 147.066 20.4219ZM152.764 22.0625V29H149.436V13H152.67V19.1172H152.811C153.081 18.4089 153.519 17.8542 154.123 17.4531C154.727 17.0469 155.485 16.8438 156.396 16.8438C157.23 16.8438 157.956 17.026 158.576 17.3906C159.201 17.75 159.686 18.2682 160.029 18.9453C160.378 19.6172 160.55 20.4219 160.545 21.3594V29H157.217V21.9531C157.222 21.2135 157.035 20.638 156.654 20.2266C156.279 19.8151 155.753 19.6094 155.076 19.6094C154.623 19.6094 154.222 19.7057 153.873 19.8984C153.529 20.0911 153.258 20.3724 153.061 20.7422C152.868 21.1068 152.769 21.5469 152.764 22.0625ZM168.586 29.2344C167.372 29.2344 166.323 28.9766 165.438 28.4609C164.557 27.9401 163.878 27.2161 163.398 26.2891C162.919 25.3568 162.68 24.276 162.68 23.0469C162.68 21.8073 162.919 20.724 163.398 19.7969C163.878 18.8646 164.557 18.1406 165.438 17.625C166.323 17.1042 167.372 16.8438 168.586 16.8438C169.799 16.8438 170.846 17.1042 171.727 17.625C172.612 18.1406 173.294 18.8646 173.773 19.7969C174.253 20.724 174.492 21.8073 174.492 23.0469C174.492 24.276 174.253 25.3568 173.773 26.2891C173.294 27.2161 172.612 27.9401 171.727 28.4609C170.846 28.9766 169.799 29.2344 168.586 29.2344ZM168.602 26.6562C169.154 26.6562 169.615 26.5 169.984 26.1875C170.354 25.8698 170.633 25.4375 170.82 24.8906C171.013 24.3437 171.109 23.7214 171.109 23.0234C171.109 22.3255 171.013 21.7031 170.82 21.1562C170.633 20.6094 170.354 20.1771 169.984 19.8594C169.615 19.5417 169.154 19.3828 168.602 19.3828C168.044 19.3828 167.576 19.5417 167.195 19.8594C166.82 20.1771 166.536 20.6094 166.344 21.1562C166.156 21.7031 166.063 22.3255 166.063 23.0234C166.063 23.7214 166.156 24.3437 166.344 24.8906C166.536 25.4375 166.82 25.8698 167.195 26.1875C167.576 26.5 168.044 26.6562 168.602 26.6562ZM183.039 17V19.5H175.813V17H183.039ZM177.453 14.125H180.781V25.3125C180.781 25.6198 180.828 25.8594 180.922 26.0312C181.016 26.1979 181.146 26.3151 181.313 26.3828C181.484 26.4505 181.682 26.4844 181.906 26.4844C182.063 26.4844 182.219 26.4714 182.375 26.4453C182.531 26.4141 182.651 26.3906 182.734 26.375L183.258 28.8516C183.091 28.9036 182.857 28.9635 182.555 29.0313C182.253 29.1042 181.885 29.1484 181.453 29.1641C180.651 29.1953 179.948 29.0885 179.344 28.8437C178.745 28.599 178.279 28.2187 177.945 27.7031C177.612 27.1875 177.448 26.5365 177.453 25.75V14.125ZM195.041 20.4219L191.994 20.6094C191.942 20.349 191.83 20.1146 191.658 19.9062C191.486 19.6927 191.26 19.5234 190.979 19.3984C190.702 19.2682 190.372 19.2031 189.986 19.2031C189.471 19.2031 189.036 19.3125 188.682 19.5312C188.327 19.7448 188.15 20.0312 188.15 20.3906C188.15 20.6771 188.265 20.9193 188.494 21.1172C188.723 21.3151 189.117 21.474 189.674 21.5937L191.846 22.0312C193.012 22.2708 193.882 22.6562 194.455 23.1875C195.028 23.7187 195.314 24.4167 195.314 25.2812C195.314 26.0677 195.083 26.7578 194.619 27.3516C194.161 27.9453 193.531 28.4089 192.729 28.7422C191.932 29.0703 191.012 29.2344 189.971 29.2344C188.382 29.2344 187.117 28.9036 186.174 28.2422C185.236 27.5755 184.687 26.6693 184.525 25.5234L187.799 25.3516C187.898 25.8359 188.137 26.2057 188.518 26.4609C188.898 26.7109 189.385 26.8359 189.979 26.8359C190.562 26.8359 191.031 26.724 191.385 26.5C191.744 26.2708 191.926 25.9766 191.932 25.6172C191.926 25.3151 191.799 25.0677 191.549 24.875C191.299 24.6771 190.913 24.526 190.393 24.4219L188.314 24.0078C187.143 23.7734 186.27 23.3672 185.697 22.7891C185.13 22.2109 184.846 21.474 184.846 20.5781C184.846 19.8073 185.054 19.1432 185.471 18.5859C185.893 18.0286 186.484 17.599 187.244 17.2969C188.01 16.9948 188.906 16.8438 189.932 16.8438C191.447 16.8438 192.64 17.1641 193.51 17.8047C194.385 18.4453 194.895 19.3177 195.041 20.4219Z" fill="white"/>
</svg>
